Pacifico-Light.ufo
<glyph name="exclam" format="1">
  <advance width="1132"/>
  <unicode hex="0021"/>
  <outline>
    <contour>
      <point x="616.094" y="537.677"/>
      <point x="667.051" y="517.944"/>
      <point x="688" y="572.41" type="curve"/>
      <point x="1077" y="1550" type="line"/>
      <point x="1143" y="1722"/>
      <point x="1206" y="1851"/>
      <point x="1056" y="1867" type="curve"/>
      <point x="982" y="1875"/>
      <point x="933" y="1826"/>
      <point x="915" y="1751" type="curve"/>
      <point x="626.183" y="580.279" type="line"/>
    </contour>
    <contour>
      <point x="474" y="91"/>
      <point x="503" y="57"/>
      <point x="578" y="57" type="curve"/>
      <point x="641" y="57"/>
      <point x="699" y="113"/>
      <point x="699" y="191" type="curve"/>
      <point x="699" y="261"/>
      <point x="670" y="294"/>
      <point x="597" y="294" type="curve"/>
      <point x="533" y="294"/>
      <point x="474" y="239"/>
      <point x="474" y="162" type="curve"/>
    </contour>
  </outline>
</glyph>
<glyph name="dollar" format="1">
  <advance width="1735"/>
  <unicode hex="0024"/>
  <outline>
    <contour>
      <point x="820" y="-222" type="curve"/>
      <point x="888" y="-223"/>
      <point x="919" y="-213"/>
      <point x="931" y="-175" type="curve"/>
      <point x="964" y="4" type="line"/>
      <point x="1265" y="26"/>
      <point x="1505" y="168"/>
      <point x="1505" y="484" type="curve" smooth="yes"/>
      <point x="1505" y="723"/>
      <point x="1298.84" y="858.188"/>
      <point x="1135.41" y="953.087" type="curve"/>
      <point x="1239" y="1575" type="line"/>
      <point x="1331" y="1562"/>
      <point x="1482" y="1513"/>
      <point x="1482" y="1397" type="curve" smooth="yes"/>
      <point x="1482" y="1328"/>
      <point x="1522" y="1275"/>
      <point x="1584" y="1275" type="curve" smooth="yes"/>
      <point x="1642" y="1275"/>
      <point x="1672" y="1328"/>
      <point x="1672" y="1397" type="curve" smooth="yes"/>
      <point x="1672" y="1604"/>
      <point x="1451" y="1699"/>
      <point x="1264" y="1731" type="curve"/>
      <point x="1283" y="1847" type="line" smooth="yes"/>
      <point x="1294" y="1920"/>
      <point x="1302" y="1982"/>
      <point x="1250" y="1982" type="curve" smooth="yes"/>
      <point x="1185" y="1982"/>
      <point x="1139" y="1944"/>
      <point x="1131" y="1891" type="curve"/>
      <point x="1105" y="1742" type="line"/>
      <point x="814" y="1736"/>
      <point x="521" y="1599"/>
      <point x="521" y="1317" type="curve" smooth="yes"/>
      <point x="521" y="1082"/>
      <point x="782.932" y="957.127"/>
      <point x="950.838" y="866.492" type="curve"/>
      <point x="821" y="160" type="line"/>
      <point x="656" y="169"/>
      <point x="464" y="220"/>
      <point x="464" y="397" type="curve" smooth="yes"/>
      <point x="464" y="517"/>
      <point x="519" y="600"/>
      <point x="640" y="600" type="curve" smooth="yes"/>
      <point x="678" y="600"/>
      <point x="701" y="623"/>
      <point x="701" y="657" type="curve" smooth="yes"/>
      <point x="701" y="703"/>
      <point x="663" y="730"/>
      <point x="610" y="730" type="curve" smooth="yes"/>
      <point x="402" y="730"/>
      <point x="275" y="598"/>
      <point x="275" y="394" type="curve" smooth="yes"/>
      <point x="275" y="119"/>
      <point x="523" y="20"/>
      <point x="793" y="4" type="curve"/>
      <point x="775" y="-81"/>
      <point x="750" y="-222"/>
    </contour>
    <contour>
      <point x="982.812" y="1039.76" type="curve"/>
      <point x="910.562" y="1091.16"/>
      <point x="742" y="1187"/>
      <point x="742" y="1347" type="curve" smooth="yes"/>
      <point x="742" y="1517"/>
      <point x="933" y="1574"/>
      <point x="1076" y="1582" type="curve"/>
      <point x="1048" y="1416"/>
      <point x="1014" y="1235"/>
    </contour>
    <contour>
      <point x="995" y="168" type="curve"/>
      <point x="1106.11" y="783.584" type="line"/>
      <point x="1169" y="709"/>
      <point x="1315" y="638"/>
      <point x="1315" y="484" type="curve" smooth="yes"/>
      <point x="1315" y="288"/>
      <point x="1146" y="196"/>
    </contour>
  </outline>
</glyph>
<glyph name="percent" format="1">
  <advance width="754"/>
  <unicode hex="0025"/>
  <outline>
    <contour>
      <point x="155" y="250" type="curve" smooth="yes"/>
      <point x="172" y="250"/>
      <point x="186" y="253"/>
      <point x="200" y="259" type="curve" smooth="yes"/>
      <point x="268" y="287"/>
      <point x="316" y="365"/>
      <point x="316" y="460" type="curve" smooth="yes"/>
      <point x="316" y="540"/>
      <point x="280" y="594"/>
      <point x="203" y="594" type="curve" smooth="yes"/>
      <point x="98" y="594"/>
      <point x="41" y="502"/>
      <point x="41" y="395" type="curve" smooth="yes"/>
      <point x="41" y="315"/>
      <point x="79" y="250"/>
    </contour>
    <contour>
      <point x="158" y="295" type="curve" smooth="yes"/>
      <point x="107" y="295"/>
      <point x="98" y="362"/>
      <point x="98" y="401" type="curve" smooth="yes"/>
      <point x="98" y="462"/>
      <point x="122" y="549"/>
      <point x="197" y="549" type="curve" smooth="yes"/>
      <point x="249" y="549"/>
      <point x="264" y="502"/>
      <point x="264" y="462" type="curve" smooth="yes"/>
      <point x="264" y="403"/>
      <point x="231" y="295"/>
    </contour>
    <contour>
      <point x="257" y="20" type="curve" smooth="yes"/>
      <point x="335" y="154"/>
      <point x="519" y="474"/>
      <point x="562" y="550" type="curve" smooth="yes"/>
      <point x="580" y="583"/>
      <point x="544" y="608"/>
      <point x="524" y="574" type="curve" smooth="yes"/>
      <point x="220" y="52" type="line" smooth="yes"/>
      <point x="188" y="-2"/>
      <point x="230" y="-27"/>
    </contour>
    <contour>
      <point x="574" y="37" type="curve" smooth="yes"/>
      <point x="525" y="37"/>
      <point x="515" y="95"/>
      <point x="515" y="132" type="curve" smooth="yes"/>
      <point x="515" y="197"/>
      <point x="535" y="298"/>
      <point x="612" y="298" type="curve" smooth="yes"/>
      <point x="664" y="298"/>
      <point x="670" y="231"/>
      <point x="670" y="191" type="curve" smooth="yes"/>
      <point x="670" y="135"/>
      <point x="642" y="37"/>
    </contour>
    <contour>
      <point x="570" y="-4" type="curve" smooth="yes"/>
      <point x="646" y="-4"/>
      <point x="725" y="75"/>
      <point x="725" y="195" type="curve" smooth="yes"/>
      <point x="725" y="275"/>
      <point x="694" y="339"/>
      <point x="618" y="339" type="curve" smooth="yes"/>
      <point x="511" y="339"/>
      <point x="457" y="240"/>
      <point x="457" y="130" type="curve" smooth="yes"/>
      <point x="457" y="53"/>
      <point x="496" y="-4"/>
    </contour>
  </outline>
</glyph>
<glyph name="ampersand" format="1">
  <advance width="1523"/>
  <unicode hex="0026"/>
  <outline>
    <contour>
      <point x="1370" y="-238" type="curve"/>
      <point x="1496" y="-238"/>
      <point x="1575" y="-176"/>
      <point x="1575" y="-157" type="curve"/>
      <point x="1575" y="-121"/>
      <point x="1419" y="-76"/>
      <point x="1348" y="-21" type="curve"/>
      <point x="1301" y="17"/>
      <point x="1255" y="60"/>
      <point x="1152" y="159" type="curve"/>
      <point x="1327" y="251"/>
      <point x="1456" y="377"/>
      <point x="1456" y="538" type="curve"/>
      <point x="1456" y="588"/>
      <point x="1321" y="664"/>
      <point x="1294" y="611" type="curve"/>
      <point x="1294" y="453"/>
      <point x="1203" y="373"/>
      <point x="1049" y="309" type="curve"/>
      <point x="953" y="443"/>
      <point x="808.615" y="695.914"/>
      <point x="725.697" y="873.774" type="curve"/>
      <point x="889.844" y="971.102"/>
      <point x="1090" y="1147"/>
      <point x="1090" y="1385" type="curve"/>
      <point x="1090" y="1555"/>
      <point x="958" y="1657"/>
      <point x="782" y="1657" type="curve"/>
      <point x="564" y="1657"/>
      <point x="378" y="1488"/>
      <point x="378" y="1272" type="curve"/>
      <point x="378" y="1120"/>
      <point x="420" y="1013"/>
      <point x="476" y="912" type="curve"/>
      <point x="300" y="820"/>
      <point x="89" y="619"/>
      <point x="89" y="367" type="curve"/>
      <point x="89" y="138"/>
      <point x="308" y="0"/>
      <point x="558" y="0" type="curve"/>
      <point x="750" y="0"/>
      <point x="896" y="44"/>
      <point x="964" y="74" type="curve"/>
      <point x="1001" y="21"/>
      <point x="1094" y="-83"/>
      <point x="1198" y="-186" type="curve"/>
      <point x="1244" y="-233"/>
      <point x="1309" y="-238"/>
    </contour>
    <contour>
      <point x="566" y="152" type="curve"/>
      <point x="426" y="152"/>
      <point x="297" y="256"/>
      <point x="297" y="403" type="curve"/>
      <point x="297" y="591"/>
      <point x="446.229" y="699.893"/>
      <point x="543.7" y="771.97" type="curve"/>
      <point x="650" y="536"/>
      <point x="743" y="386"/>
      <point x="880" y="216" type="curve"/>
      <point x="806" y="186"/>
      <point x="696" y="152"/>
    </contour>
    <contour>
      <point x="684" y="1001" type="curve"/>
      <point x="620" y="1097"/>
      <point x="605" y="1194"/>
      <point x="605" y="1286" type="curve"/>
      <point x="605" y="1403"/>
      <point x="662" y="1495"/>
      <point x="794" y="1495" type="curve"/>
      <point x="888" y="1495"/>
      <point x="941" y="1463"/>
      <point x="941" y="1362" type="curve"/>
      <point x="941" y="1175"/>
      <point x="771" y="1049"/>
    </contour>
  </outline>
</glyph>
<glyph name="quotesingle" format="1">
  <advance width="524"/>
  <unicode hex="0027"/>
  <outline>
    <contour>
      <point x="163" y="1138" type="curve" smooth="yes"/>
      <point x="187" y="1138"/>
      <point x="287" y="1225"/>
      <point x="326" y="1287" type="curve"/>
      <point x="366" y="1348"/>
      <point x="556" y="1621"/>
      <point x="556" y="1749" type="curve" smooth="yes"/>
      <point x="556" y="1800"/>
      <point x="528" y="1831"/>
      <point x="467" y="1831" type="curve" smooth="yes"/>
      <point x="367" y="1831"/>
      <point x="301" y="1446"/>
      <point x="155.657" y="1216.27" type="curve"/>
      <point x="136" y="1182"/>
      <point x="127" y="1138"/>
    </contour>
  </outline>
</glyph>
<glyph name="parenleft" format="1">
  <advance width="1377"/>
  <unicode hex="0028"/>
  <outline>
    <contour>
      <point x="1040" y="-353" type="curve" smooth="yes"/>
      <point x="1109.36" y="-353"/>
      <point x="1237" y="-345"/>
      <point x="1237" y="-282" type="curve" smooth="yes"/>
      <point x="1237" y="-217"/>
      <point x="1149.15" y="-236"/>
      <point x="1029.79" y="-216" type="curve" smooth="yes"/>
      <point x="723.731" y="-163"/>
      <point x="605" y="97.5807"/>
      <point x="605" y="430" type="curve" smooth="yes"/>
      <point x="605" y="871.085"/>
      <point x="825.698" y="1391.16"/>
      <point x="1243.27" y="1694.2" type="curve" smooth="yes"/>
      <point x="1335.33" y="1761.33"/>
      <point x="1381" y="1815.42"/>
      <point x="1381" y="1854" type="curve" smooth="yes"/>
      <point x="1381" y="1877.38"/>
      <point x="1365.94" y="1892"/>
      <point x="1335" y="1892" type="curve" smooth="yes"/>
      <point x="1315.96" y="1892"/>
      <point x="1295.95" y="1887.2"/>
      <point x="1268.35" y="1875.24" type="curve" smooth="yes"/>
      <point x="717.197" y="1624.72"/>
      <point x="399" y="993.059"/>
      <point x="399" y="410" type="curve" smooth="yes"/>
      <point x="399" y="-40"/>
      <point x="626.765" y="-353"/>
    </contour>
  </outline>
</glyph>
<glyph name="parenright" format="1">
  <advance width="1377"/>
  <unicode hex="0029"/>
  <outline>
    <contour>
      <point x="345" y="-353" type="curve"/>
      <point x="866.518" y="-353"/>
      <point x="1193" y="141.482"/>
      <point x="1193" y="769" type="curve"/>
      <point x="1193" y="1236.66"/>
      <point x="996.01" y="1676.58"/>
      <point x="600.754" y="1875.67" type="curve"/>
      <point x="576.565" y="1887.31"/>
      <point x="557.042" y="1892"/>
      <point x="538" y="1892" type="curve"/>
      <point x="502.271" y="1892"/>
      <point x="478" y="1870.55"/>
      <point x="478" y="1837" type="curve"/>
      <point x="478" y="1801.06"/>
      <point x="512.175" y="1751.62"/>
      <point x="580.313" y="1692.94" type="curve"/>
      <point x="855.354" y="1456.61"/>
      <point x="985" y="1089.28"/>
      <point x="985" y="733" type="curve"/>
      <point x="985" y="254.275"/>
      <point x="789.829" y="-151"/>
      <point x="396.036" y="-216" type="curve"/>
      <point x="275.997" y="-236"/>
      <point x="167" y="-215"/>
      <point x="167" y="-297" type="curve"/>
      <point x="167" y="-346"/>
      <point x="279.613" y="-353"/>
    </contour>
  </outline>
</glyph>
<glyph name="asterisk" format="1">
  <advance width="1024"/>
  <unicode hex="002A"/>
  <outline>
    <contour>
      <point x="424" y="884" type="curve" smooth="yes"/>
      <point x="478.01" y="884"/>
      <point x="528" y="911.181"/>
      <point x="528.003" y="957.344" type="curve"/>
      <point x="542" y="1278" type="line"/>
      <point x="779.142" y="1059.14" type="line"/>
      <point x="820.532" y="1017.75"/>
      <point x="931" y="1055.34"/>
      <point x="931" y="1133" type="curve" smooth="yes"/>
      <point x="931" y="1198"/>
      <point x="775" y="1250"/>
      <point x="610" y="1336" type="curve"/>
      <point x="714" y="1349"/>
      <point x="972.999" y="1374.5"/>
      <point x="972.999" y="1452" type="curve" smooth="yes"/>
      <point x="973" y="1529.19"/>
      <point x="891.49" y="1574.24"/>
      <point x="844.805" y="1548.57" type="curve" smooth="yes"/>
      <point x="747.989" y="1494.11"/>
      <point x="657" y="1452"/>
      <point x="563" y="1404" type="curve"/>
      <point x="606" y="1501"/>
      <point x="632.77" y="1603.76"/>
      <point x="670.026" y="1714.32" type="curve" smooth="yes"/>
      <point x="685.987" y="1762.21"/>
      <point x="662.215" y="1804"/>
      <point x="601" y="1804" type="curve" smooth="yes"/>
      <point x="545.858" y="1804"/>
      <point x="498" y="1778.65"/>
      <point x="498" y="1731" type="curve" smooth="yes"/>
      <point x="498" y="1618.63"/>
      <point x="483" y="1514"/>
      <point x="485" y="1408" type="curve"/>
      <point x="391" y="1490"/>
      <point x="258.074" y="1643"/>
      <point x="203" y="1643" type="curve" smooth="yes"/>
      <point x="149.71" y="1643"/>
      <point x="94" y="1600.9"/>
      <point x="94" y="1551" type="curve" smooth="yes"/>
      <point x="94" y="1480.18"/>
      <point x="313" y="1411"/>
      <point x="423" y="1353" type="curve"/>
      <point x="405" y="1346"/>
      <point x="52" y="1326"/>
      <point x="52" y="1235" type="curve" smooth="yes"/>
      <point x="52" y="1155.85"/>
      <point x="141.139" y="1110.72"/>
      <point x="180.821" y="1137.24" type="curve"/>
      <point x="278.081" y="1188.86"/>
      <point x="373" y="1234"/>
      <point x="463" y="1287" type="curve"/>
      <point x="440" y="1195"/>
      <point x="351" y="1065.67"/>
      <point x="351" y="943" type="curve" smooth="yes"/>
      <point x="351" y="903.09"/>
      <point x="379.89" y="884"/>
    </contour>
  </outline>
</glyph>
<glyph name="plus" format="1">
  <advance width="1503"/>
  <unicode hex="002B"/>
  <outline>
    <contour>
      <point x="768" y="80" type="curve" smooth="yes"/>
      <point x="819.393" y="80"/>
      <point x="845" y="130.649"/>
      <point x="845" y="193" type="curve" smooth="yes"/>
      <point x="845" y="436" type="line"/>
      <point x="1096" y="436" type="line" smooth="yes"/>
      <point x="1152.71" y="436"/>
      <point x="1195" y="471.46"/>
      <point x="1195" y="525" type="curve" smooth="yes"/>
      <point x="1195" y="564.958"/>
      <point x="1165.22" y="588"/>
      <point x="1115" y="588" type="curve" smooth="yes"/>
      <point x="845" y="588" type="line"/>
      <point x="845" y="855" type="line" smooth="yes"/>
      <point x="845" y="905.217"/>
      <point x="821.958" y="935"/>
      <point x="782" y="935" type="curve" smooth="yes"/>
      <point x="728.46" y="935"/>
      <point x="693" y="892.714"/>
      <point x="693" y="836" type="curve" smooth="yes"/>
      <point x="693" y="588" type="line"/>
      <point x="453" y="588" type="line" smooth="yes"/>
      <point x="390.649" y="588"/>
      <point x="340" y="562.393"/>
      <point x="340" y="511" type="curve" smooth="yes"/>
      <point x="340" y="460.525"/>
      <point x="387.713" y="436"/>
      <point x="449" y="436" type="curve" smooth="yes"/>
      <point x="693" y="436" type="line"/>
      <point x="693" y="189" type="line" smooth="yes"/>
      <point x="693" y="127.713"/>
      <point x="717.525" y="80"/>
    </contour>
  </outline>
</glyph>
<glyph name="comma" format="1">
  <advance width="849"/>
  <unicode hex="002C"/>
  <outline>
    <contour>
      <point x="278" y="-178" type="curve" smooth="yes"/>
      <point x="388" y="-147"/>
      <point x="549" y="45"/>
      <point x="549" y="207" type="curve" smooth="yes"/>
      <point x="549" y="265"/>
      <point x="526" y="315"/>
      <point x="460" y="306" type="curve" smooth="yes"/>
      <point x="403" y="299"/>
      <point x="383" y="273"/>
      <point x="378" y="234" type="curve" smooth="yes"/>
      <point x="361" y="98"/>
      <point x="308" y="-35"/>
      <point x="243" y="-144" type="curve" smooth="yes"/>
      <point x="228" y="-171"/>
      <point x="249" y="-186"/>
    </contour>
  </outline>
</glyph>
<glyph name="hyphen" format="1">
  <advance width="974"/>
  <unicode hex="002D"/>
  <outline>
    <contour>
      <point x="287" y="546"/>
      <point x="323" y="546" type="curve" smooth="yes"/>
      <point x="834" y="596" type="line"/>
      <point x="892" y="600"/>
      <point x="898" y="620"/>
      <point x="898" y="648" type="curve"/>
      <point x="898" y="681"/>
      <point x="876" y="689"/>
      <point x="843" y="689" type="curve"/>
      <point x="322" y="667" type="line" smooth="yes"/>
      <point x="285" y="665"/>
      <point x="258" y="648"/>
      <point x="258" y="607" type="curve" smooth="yes"/>
      <point x="258" y="561"/>
    </contour>
    <contour>
      <point x="577" y="614" type="move" name="_mid"/>
    </contour>
  </outline>
</glyph>
<glyph name="period" format="1">
  <advance width="882"/>
  <unicode hex="002E"/>
  <outline>
    <contour>
      <point x="502" y="0" type="curve" smooth="yes"/>
      <point x="593" y="0"/>
      <point x="643" y="55"/>
      <point x="643" y="144" type="curve" smooth="yes"/>
      <point x="643" y="223"/>
      <point x="601" y="260"/>
      <point x="519" y="260" type="curve" smooth="yes"/>
      <point x="430" y="260"/>
      <point x="382" y="206"/>
      <point x="382" y="118" type="curve" smooth="yes"/>
      <point x="382" y="37"/>
      <point x="422" y="0"/>
    </contour>
  </outline>
</glyph>
<glyph name="slash" format="1">
  <advance width="1248"/>
  <unicode hex="002F"/>
  <outline>
    <contour>
      <point x="341" y="2" type="curve" smooth="yes"/>
      <point x="418.932" y="2"/>
      <point x="455.809" y="27.5661"/>
      <point x="482.756" y="79.7743" type="curve" smooth="yes"/>
      <point x="734.397" y="578.977"/>
      <point x="932.366" y="1130.89"/>
      <point x="1163.88" y="1635.89" type="curve" smooth="yes"/>
      <point x="1181.1" y="1675.72"/>
      <point x="1231" y="1747.57"/>
      <point x="1231" y="1783" type="curve" smooth="yes"/>
      <point x="1231" y="1812.72"/>
      <point x="1212.01" y="1821"/>
      <point x="1184" y="1821" type="curve" smooth="yes"/>
      <point x="1073.46" y="1821"/>
      <point x="995.469" y="1758.07"/>
      <point x="959.856" y="1681.5" type="curve" smooth="yes"/>
      <point x="751.947" y="1224.7"/>
      <point x="539.021" y="740.869"/>
      <point x="335.952" y="280.715" type="curve" smooth="yes"/>
      <point x="296.313" y="192.047"/>
      <point x="257" y="140.226"/>
      <point x="257" y="55" type="curve" smooth="yes"/>
      <point x="257" y="9.44385"/>
      <point x="276.644" y="2"/>
    </contour>
  </outline>
</glyph>
<glyph name="zero" format="1">
  <advance width="1203"/>
  <unicode hex="0030"/>
  <outline>
    <contour>
      <point x="515" y="76" type="curve" smooth="yes"/>
      <point x="340" y="76"/>
      <point x="322" y="383.972"/>
      <point x="322" y="505" type="curve" smooth="yes"/>
      <point x="322" y="737.003"/>
      <point x="438" y="1354"/>
      <point x="736" y="1354" type="curve" smooth="yes"/>
      <point x="926" y="1354"/>
      <point x="912" y="1059.7"/>
      <point x="912" y="939" type="curve" smooth="yes"/>
      <point x="912" y="712.773"/>
      <point x="813" y="76"/>
    </contour>
    <contour>
      <point x="492" y="-12" type="curve" smooth="yes"/>
      <point x="889" y="-12"/>
      <point x="1110" y="486.562"/>
      <point x="1110" y="902" type="curve" smooth="yes"/>
      <point x="1110" y="1187.68"/>
      <point x="1022" y="1452"/>
      <point x="742" y="1452" type="curve" smooth="yes"/>
      <point x="347" y="1452"/>
      <point x="104" y="964.124"/>
      <point x="104" y="552" type="curve" smooth="yes"/>
      <point x="104" y="251.032"/>
      <point x="222" y="-12"/>
    </contour>
  </outline>
</glyph>
<glyph name="one" format="1">
  <advance width="333"/>
  <unicode hex="0031"/>
  <outline>
    <contour>
      <point x="171" y="10" type="curve" smooth="yes"/>
      <point x="202" y="170"/>
      <point x="249" y="417"/>
      <point x="255" y="448" type="curve" smooth="yes"/>
      <point x="260" y="475"/>
      <point x="256" y="496"/>
      <point x="236" y="492" type="curve" smooth="yes"/>
      <point x="201" y="485"/>
      <point x="157" y="471"/>
      <point x="129" y="462" type="curve" smooth="yes"/>
      <point x="105" y="455"/>
      <point x="109" y="408"/>
      <point x="134" y="415" type="curve" smooth="yes"/>
      <point x="147" y="418"/>
      <point x="186" y="429"/>
      <point x="202" y="435" type="curve"/>
      <point x="171" y="274"/>
      <point x="167" y="242"/>
      <point x="121" y="22" type="curve" smooth="yes"/>
      <point x="114" y="-11"/>
      <point x="167" y="-8"/>
    </contour>
  </outline>
</glyph>
<glyph name="two" format="1">
  <advance width="417"/>
  <unicode hex="0032"/>
  <outline>
    <contour>
      <point x="127" y="-3" type="curve" smooth="yes"/>
      <point x="168" y="-3"/>
      <point x="203" y="25"/>
      <point x="231" y="50" type="curve"/>
      <point x="256" y="30"/>
      <point x="281" y="0"/>
      <point x="318" y="0" type="curve" smooth="yes"/>
      <point x="355" y="0"/>
      <point x="368" y="33"/>
      <point x="368" y="65" type="curve" smooth="yes"/>
      <point x="368" y="75"/>
      <point x="360" y="75"/>
      <point x="359" y="73" type="curve" smooth="yes"/>
      <point x="354" y="66"/>
      <point x="341" y="50"/>
      <point x="328" y="50" type="curve" smooth="yes"/>
      <point x="297" y="50"/>
      <point x="279" y="68"/>
      <point x="259" y="81" type="curve"/>
      <point x="307" y="133"/>
      <point x="368" y="232"/>
      <point x="364" y="356" type="curve" smooth="yes"/>
      <point x="361" y="445"/>
      <point x="295" y="495"/>
      <point x="222" y="495" type="curve" smooth="yes"/>
      <point x="151" y="495"/>
      <point x="77" y="462"/>
      <point x="77" y="392" type="curve" smooth="yes"/>
      <point x="77" y="352"/>
      <point x="104" y="320"/>
      <point x="128" y="329" type="curve" smooth="yes"/>
      <point x="159" y="340"/>
      <point x="124" y="368"/>
      <point x="124" y="396" type="curve" smooth="yes"/>
      <point x="124" y="436"/>
      <point x="169" y="449"/>
      <point x="220" y="449" type="curve" smooth="yes"/>
      <point x="278" y="449"/>
      <point x="308" y="401"/>
      <point x="312" y="351" type="curve" smooth="yes"/>
      <point x="319" y="248"/>
      <point x="270" y="153"/>
      <point x="229" y="109" type="curve"/>
      <point x="198" y="129"/>
      <point x="153" y="164"/>
      <point x="106" y="164" type="curve" smooth="yes"/>
      <point x="60" y="164"/>
      <point x="32" y="128"/>
      <point x="32" y="84" type="curve" smooth="yes"/>
      <point x="32" y="35"/>
      <point x="75" y="-3"/>
    </contour>
    <contour>
      <point x="125" y="36" type="curve" smooth="yes"/>
      <point x="89" y="36"/>
      <point x="77" y="66"/>
      <point x="77" y="85" type="curve" smooth="yes"/>
      <point x="77" y="102"/>
      <point x="88" y="120"/>
      <point x="111" y="120" type="curve" smooth="yes"/>
      <point x="148" y="120"/>
      <point x="179" y="92"/>
      <point x="201" y="78" type="curve"/>
      <point x="184" y="53"/>
      <point x="151" y="36"/>
    </contour>
  </outline>
</glyph>
<glyph name="three" format="1">
  <advance width="1129"/>
  <unicode hex="0033"/>
  <outline>
    <contour>
      <point x="480" y="-4" type="curve" smooth="yes"/>
      <point x="818" y="-4"/>
      <point x="1038" y="150"/>
      <point x="1038" y="436" type="curve" smooth="yes"/>
      <point x="1038" y="632"/>
      <point x="960" y="773"/>
      <point x="731.42" y="854.351" type="curve"/>
      <point x="912.463" y="888.542"/>
      <point x="1047" y="1008"/>
      <point x="1047" y="1197" type="curve" smooth="yes"/>
      <point x="1047" y="1389"/>
      <point x="849" y="1466"/>
      <point x="682" y="1466" type="curve" smooth="yes"/>
      <point x="465" y="1466"/>
      <point x="253" y="1378"/>
      <point x="253" y="1279" type="curve" smooth="yes"/>
      <point x="253" y="1250"/>
      <point x="279" y="1210"/>
      <point x="306" y="1210" type="curve" smooth="yes"/>
      <point x="340" y="1210"/>
      <point x="444" y="1321"/>
      <point x="585" y="1321" type="curve" smooth="yes"/>
      <point x="738" y="1321"/>
      <point x="804" y="1249"/>
      <point x="804" y="1173" type="curve" smooth="yes"/>
      <point x="804" y="1037"/>
      <point x="614.251" y="884"/>
      <point x="444" y="884" type="curve" smooth="yes"/>
      <point x="379.967" y="884"/>
      <point x="355" y="848.854"/>
      <point x="355" y="812" type="curve" smooth="yes"/>
      <point x="355" y="797.879"/>
      <point x="372.18" y="785"/>
      <point x="402" y="785" type="curve" smooth="yes"/>
      <point x="441.534" y="785"/>
      <point x="480.534" y="781"/>
      <point x="510" y="781" type="curve" smooth="yes"/>
      <point x="708.677" y="781"/>
      <point x="815" y="602"/>
      <point x="815" y="440" type="curve" smooth="yes"/>
      <point x="815" y="264"/>
      <point x="645" y="121"/>
      <point x="459" y="121" type="curve" smooth="yes"/>
      <point x="357" y="121"/>
      <point x="222" y="171"/>
      <point x="222" y="253" type="curve" smooth="yes"/>
      <point x="222" y="304"/>
      <point x="256" y="347"/>
      <point x="256" y="376" type="curve" smooth="yes"/>
      <point x="256" y="434"/>
      <point x="214" y="485"/>
      <point x="127" y="485" type="curve" smooth="yes"/>
      <point x="58" y="485"/>
      <point x="9" y="409"/>
      <point x="9" y="305" type="curve" smooth="yes"/>
      <point x="9" y="141"/>
      <point x="203" y="-4"/>
    </contour>
  </outline>
</glyph>
<glyph name="five" format="1">
  <advance width="395"/>
  <unicode hex="0035"/>
  <outline>
    <contour>
      <point x="165" y="-10" type="curve" smooth="yes"/>
      <point x="259" y="-15"/>
      <point x="338" y="39"/>
      <point x="340" y="152" type="curve" smooth="yes"/>
      <point x="342" y="246"/>
      <point x="263" y="294"/>
      <point x="135" y="279" type="curve"/>
      <point x="174" y="417" type="line"/>
      <point x="273" y="418"/>
      <point x="379" y="360"/>
      <point x="379" y="434" type="curve" smooth="yes"/>
      <point x="379" y="474"/>
      <point x="358" y="474"/>
      <point x="353" y="468" type="curve"/>
      <point x="295" y="418"/>
      <point x="271" y="461"/>
      <point x="155" y="461" type="curve" smooth="yes"/>
      <point x="91" y="461"/>
      <point x="149" y="452"/>
      <point x="95" y="278" type="curve" smooth="yes"/>
      <point x="86" y="250"/>
      <point x="104" y="241"/>
      <point x="120" y="242" type="curve" smooth="yes"/>
      <point x="209" y="247"/>
      <point x="296" y="235"/>
      <point x="285" y="136" type="curve" smooth="yes"/>
      <point x="276" y="55"/>
      <point x="229" y="23"/>
      <point x="167" y="27" type="curve" smooth="yes"/>
      <point x="112" y="31"/>
      <point x="77" y="61"/>
      <point x="80" y="96" type="curve" smooth="yes"/>
      <point x="83" y="128"/>
      <point x="104" y="139"/>
      <point x="104" y="149" type="curve" smooth="yes"/>
      <point x="104" y="158"/>
      <point x="97" y="164"/>
      <point x="68" y="164" type="curve" smooth="yes"/>
      <point x="42" y="164"/>
      <point x="34" y="147"/>
      <point x="30" y="116" type="curve" smooth="yes"/>
      <point x="23" y="46"/>
      <point x="82" y="-5"/>
    </contour>
  </outline>
</glyph>
<glyph name="seven" format="1">
  <advance width="926"/>
  <unicode hex="0037"/>
  <outline>
    <contour>
      <point x="220" y="-52" type="curve"/>
      <point x="293" y="-52"/>
      <point x="350" y="-29"/>
      <point x="371" y="34" type="curve"/>
      <point x="509" y="455"/>
      <point x="694" y="845"/>
      <point x="903" y="1177" type="curve"/>
      <point x="928" y="1221"/>
      <point x="995" y="1228"/>
      <point x="995" y="1282" type="curve"/>
      <point x="995" y="1324"/>
      <point x="985" y="1343"/>
      <point x="959" y="1343" type="curve"/>
      <point x="938" y="1343"/>
      <point x="846" y="1333"/>
      <point x="802" y="1333" type="curve"/>
      <point x="582" y="1333"/>
      <point x="473" y="1379"/>
      <point x="287" y="1379" type="curve"/>
      <point x="230" y="1379"/>
      <point x="191" y="1293"/>
      <point x="191" y="1185" type="curve"/>
      <point x="191" y="1126"/>
      <point x="212" y="1084"/>
      <point x="229" y="1084" type="curve"/>
      <point x="273" y="1084"/>
      <point x="236" y="1219"/>
      <point x="350" y="1219" type="curve"/>
      <point x="738" y="1219" type="line"/>
      <point x="561" y="950"/>
      <point x="126" y="247"/>
      <point x="126" y="23" type="curve"/>
      <point x="126" y="-23"/>
      <point x="170" y="-52"/>
    </contour>
  </outline>
</glyph>
<glyph name="eight" format="1">
  <advance width="967"/>
  <unicode hex="0038"/>
  <outline>
    <contour>
      <point x="447" y="-16" type="curve" smooth="yes"/>
      <point x="669" y="-16"/>
      <point x="844" y="112"/>
      <point x="844" y="318" type="curve" smooth="yes"/>
      <point x="844" y="526"/>
      <point x="686.092" y="643.34"/>
      <point x="570.084" y="741.528" type="curve"/>
      <point x="753.975" y="829.443"/>
      <point x="936" y="948"/>
      <point x="936" y="1208" type="curve" smooth="yes"/>
      <point x="936" y="1374"/>
      <point x="788" y="1448"/>
      <point x="637" y="1448" type="curve" smooth="yes"/>
      <point x="424" y="1448"/>
      <point x="222" y="1327"/>
      <point x="222" y="1099" type="curve" smooth="yes"/>
      <point x="222" y="951"/>
      <point x="293.665" y="834.003"/>
      <point x="404.296" y="776.761" type="curve"/>
      <point x="250.077" y="672.864"/>
      <point x="81" y="552"/>
      <point x="81" y="291" type="curve" smooth="yes"/>
      <point x="81" y="83"/>
      <point x="231" y="-16"/>
    </contour>
    <contour>
      <point x="400" y="131" type="curve" smooth="yes"/>
      <point x="312" y="131"/>
      <point x="260" y="229"/>
      <point x="260" y="314" type="curve" smooth="yes"/>
      <point x="260" y="501"/>
      <point x="393.323" y="590.773"/>
      <point x="496.729" y="643.849" type="curve"/>
      <point x="543.521" y="586.909"/>
      <point x="609" y="498"/>
      <point x="609" y="376" type="curve" smooth="yes"/>
      <point x="609" y="247"/>
      <point x="532" y="131"/>
    </contour>
    <contour>
      <point x="506.509" y="836.027" type="curve"/>
      <point x="448.35" y="882.674"/>
      <point x="403" y="994"/>
      <point x="403" y="1097" type="curve" smooth="yes"/>
      <point x="403" y="1229"/>
      <point x="482" y="1330"/>
      <point x="590" y="1330" type="curve" smooth="yes"/>
      <point x="675" y="1330"/>
      <point x="748" y="1257"/>
      <point x="748" y="1141" type="curve" smooth="yes"/>
      <point x="748" y="1015"/>
      <point x="589.135" y="874.321"/>
    </contour>
  </outline>
</glyph>
<glyph name="nine" format="1">
  <advance width="417"/>
  <unicode hex="0039"/>
  <outline>
    <contour>
      <point x="242" y="371" type="curve" smooth="yes"/>
      <point x="141" y="371"/>
      <point x="73" y="291"/>
      <point x="73" y="190" type="curve" smooth="yes"/>
      <point x="73" y="76"/>
      <point x="229" y="17"/>
      <point x="324" y="105" type="curve"/>
      <point x="295" y="34"/>
      <point x="216" y="-58"/>
      <point x="99" y="-110" type="curve"/>
      <point x="87" y="-117"/>
      <point x="80" y="-126"/>
      <point x="80" y="-139" type="curve" smooth="yes"/>
      <point x="80" y="-149"/>
      <point x="90" y="-157"/>
      <point x="106" y="-157" type="curve" smooth="yes"/>
      <point x="116" y="-157"/>
      <point x="123" y="-155"/>
      <point x="133" y="-150" type="curve" smooth="yes"/>
      <point x="251" y="-92"/>
      <point x="384" y="33"/>
      <point x="392" y="205" type="curve" smooth="yes"/>
      <point x="396" y="294"/>
      <point x="334" y="371"/>
    </contour>
    <contour>
      <point x="240" y="328" type="curve" smooth="yes"/>
      <point x="297" y="328"/>
      <point x="339" y="290"/>
      <point x="339" y="222" type="curve" smooth="yes"/>
      <point x="339" y="156"/>
      <point x="302" y="103"/>
      <point x="217" y="103" type="curve" smooth="yes"/>
      <point x="84" y="103"/>
      <point x="102" y="328"/>
    </contour>
  </outline>
</glyph>
<glyph name="semicolon" format="1">
  <advance width="768"/>
  <unicode hex="003B"/>
  <outline>
    <contour>
      <point x="368" y="-161" type="curve" smooth="yes"/>
      <point x="456.787" y="-161"/>
      <point x="641" y="152.913"/>
      <point x="641" y="205" type="curve" smooth="yes"/>
      <point x="641" y="259.358"/>
      <point x="581" y="291"/>
      <point x="514" y="291" type="curve" smooth="yes"/>
      <point x="457.914" y="291"/>
      <point x="421.737" y="267.297"/>
      <point x="404.692" y="225.462" type="curve" smooth="yes"/>
      <point x="374.839" y="153.814"/>
      <point x="317" y="4.39614"/>
      <point x="317" y="-109" type="curve" smooth="yes"/>
      <point x="317" y="-141"/>
      <point x="337.152" y="-161"/>
    </contour>
    <contour>
      <point x="544" y="702" type="curve" smooth="yes"/>
      <point x="645.719" y="702"/>
      <point x="702" y="763.585"/>
      <point x="702" y="863" type="curve" smooth="yes"/>
      <point x="702" y="951.817"/>
      <point x="655.319" y="995"/>
      <point x="563" y="995" type="curve" smooth="yes"/>
      <point x="463.679" y="995"/>
      <point x="410" y="933.793"/>
      <point x="410" y="834" type="curve" smooth="yes"/>
      <point x="410" y="743.894"/>
      <point x="453.961" y="702"/>
    </contour>
  </outline>
</glyph>
<glyph name="less" format="1">
  <advance width="404"/>
  <unicode hex="003C"/>
  <outline>
    <contour>
      <point x="320" y="53" type="curve" smooth="yes"/>
      <point x="335" y="53"/>
      <point x="345" y="60"/>
      <point x="345" y="70" type="curve" smooth="yes"/>
      <point x="345" y="81"/>
      <point x="337" y="98"/>
      <point x="309" y="104" type="curve" smooth="yes"/>
      <point x="230" y="121"/>
      <point x="116" y="167"/>
      <point x="78" y="213" type="curve"/>
      <point x="102" y="233"/>
      <point x="327" y="317"/>
      <point x="351" y="325" type="curve" smooth="yes"/>
      <point x="369" y="331"/>
      <point x="371" y="333"/>
      <point x="371" y="346" type="curve" smooth="yes"/>
      <point x="371" y="364"/>
      <point x="361" y="379"/>
      <point x="338" y="373" type="curve"/>
      <point x="241" y="333"/>
      <point x="165" y="300"/>
      <point x="112" y="275" type="curve" smooth="yes"/>
      <point x="60" y="250"/>
      <point x="32" y="229"/>
      <point x="30" y="213" type="curve" smooth="yes"/>
      <point x="28" y="184"/>
      <point x="62" y="153"/>
      <point x="107" y="127" type="curve" smooth="yes"/>
      <point x="181" y="85"/>
      <point x="285" y="53"/>
    </contour>
  </outline>
</glyph>
<glyph name="equal" format="1">
  <advance width="1707"/>
  <unicode hex="003D"/>
  <outline>
    <contour>
      <point x="518" y="317" type="curve" smooth="yes"/>
      <point x="1312" y="317" type="line" smooth="yes"/>
      <point x="1502.6" y="317"/>
      <point x="1591" y="346.32"/>
      <point x="1591" y="450" type="curve" smooth="yes"/>
      <point x="1591" y="473.703"/>
      <point x="1577.51" y="482"/>
      <point x="1539" y="482" type="curve" smooth="yes"/>
      <point x="1208" y="482" type="line" smooth="yes"/>
      <point x="1092.84" y="482"/>
      <point x="859.165" y="468.963"/>
      <point x="589.662" y="481.03" type="curve" smooth="yes"/>
      <point x="481.632" y="485.853"/>
      <point x="379" y="475.369"/>
      <point x="379" y="415" type="curve" smooth="yes"/>
      <point x="379" y="342.621"/>
      <point x="421.794" y="317"/>
    </contour>
    <contour>
      <point x="535" y="744" type="curve" smooth="yes"/>
      <point x="1427" y="758" type="line" smooth="yes"/>
      <point x="1555" y="760"/>
      <point x="1644" y="788"/>
      <point x="1644" y="861" type="curve" smooth="yes"/>
      <point x="1644" y="918"/>
      <point x="1628" y="931"/>
      <point x="1602" y="937" type="curve" smooth="yes"/>
      <point x="1436" y="975"/>
      <point x="1257" y="914"/>
      <point x="904" y="922" type="curve"/>
      <point x="643" y="929" type="line" smooth="yes"/>
      <point x="535" y="932"/>
      <point x="432" y="917"/>
      <point x="432" y="836" type="curve" smooth="yes"/>
      <point x="432" y="780"/>
      <point x="477" y="743"/>
    </contour>
  </outline>
</glyph>
<glyph name="question" format="1">
  <advance width="1292"/>
  <unicode hex="003F"/>
  <outline>
    <contour>
      <point x="602" y="472" type="curve" smooth="yes"/>
      <point x="638" y="472"/>
      <point x="659" y="507"/>
      <point x="677" y="551" type="curve" smooth="yes"/>
      <point x="776" y="799"/>
      <point x="1131" y="842"/>
      <point x="1131" y="1264" type="curve" smooth="yes"/>
      <point x="1131" y="1456.89"/>
      <point x="977" y="1602"/>
      <point x="783" y="1602" type="curve" smooth="yes"/>
      <point x="652" y="1602"/>
      <point x="449" y="1526"/>
      <point x="439" y="1370" type="curve"/>
      <point x="439" y="1318.2"/>
      <point x="469.111" y="1270"/>
      <point x="511" y="1270" type="curve" smooth="yes"/>
      <point x="599.236" y="1270"/>
      <point x="627" y="1457"/>
      <point x="782" y="1457" type="curve" smooth="yes"/>
      <point x="894" y="1457"/>
      <point x="972" y="1374"/>
      <point x="972" y="1257" type="curve" smooth="yes"/>
      <point x="972" y="983"/>
      <point x="544" y="899"/>
      <point x="544" y="506" type="curve" smooth="yes"/>
      <point x="544" y="484"/>
      <point x="566" y="472"/>
    </contour>
    <contour>
      <point x="558" y="0" type="curve" smooth="yes"/>
      <point x="660" y="0"/>
      <point x="716" y="62"/>
      <point x="716" y="161" type="curve" smooth="yes"/>
      <point x="716" y="250"/>
      <point x="669" y="293"/>
      <point x="577" y="293" type="curve" smooth="yes"/>
      <point x="478" y="293"/>
      <point x="424" y="232"/>
      <point x="424" y="132" type="curve" smooth="yes"/>
      <point x="424" y="42"/>
      <point x="468" y="0"/>
    </contour>
  </outline>
</glyph>
<glyph name="at" format="1">
  <advance width="2241"/>
  <unicode hex="0040"/>
  <outline>
    <contour>
      <point x="890" y="-360" type="curve" smooth="yes"/>
      <point x="1159" y="-360"/>
      <point x="1399" y="-327"/>
      <point x="1602" y="-252" type="curve"/>
      <point x="1692" y="-217"/>
      <point x="1831" y="-187"/>
      <point x="1831" y="-94" type="curve" smooth="yes"/>
      <point x="1831" y="-35"/>
      <point x="1806" y="-19"/>
      <point x="1765" y="-38" type="curve" smooth="yes"/>
      <point x="1559" y="-133"/>
      <point x="1231" y="-180"/>
      <point x="921" y="-180" type="curve" smooth="yes"/>
      <point x="580" y="-180"/>
      <point x="318" y="-95"/>
      <point x="318" y="252" type="curve" smooth="yes"/>
      <point x="318" y="684"/>
      <point x="701" y="1432"/>
      <point x="1351" y="1432" type="curve" smooth="yes"/>
      <point x="1730" y="1432"/>
      <point x="1942" y="1227"/>
      <point x="1942" y="840" type="curve" smooth="yes"/>
      <point x="1942" y="621"/>
      <point x="1832" y="250"/>
      <point x="1594" y="250" type="curve" smooth="yes"/>
      <point x="1543" y="250"/>
      <point x="1531" y="299"/>
      <point x="1531" y="334" type="curve" smooth="yes"/>
      <point x="1531" y="457"/>
      <point x="1693" y="768"/>
      <point x="1693" y="1031" type="curve" smooth="yes"/>
      <point x="1693" y="1227"/>
      <point x="1596" y="1148"/>
      <point x="1534" y="1173" type="curve"/>
      <point x="1541" y="1262" type="line"/>
      <point x="1540" y="1234"/>
      <point x="1540" y="1221"/>
      <point x="1540" y="1213" type="curve"/>
      <point x="1540" y="1222"/>
      <point x="1318" y="1231"/>
      <point x="1216" y="1193" type="curve" smooth="yes"/>
      <point x="922" y="1086"/>
      <point x="636" y="766"/>
      <point x="636" y="373" type="curve" smooth="yes"/>
      <point x="636" y="174"/>
      <point x="753" y="47"/>
      <point x="945" y="47" type="curve" smooth="yes"/>
      <point x="1145" y="47"/>
      <point x="1270" y="203"/>
      <point x="1343" y="352" type="curve"/>
      <point x="1401" y="333" type="line"/>
      <point x="1380" y="223"/>
      <point x="1371" y="69"/>
      <point x="1486" y="69" type="curve" smooth="yes"/>
      <point x="1770" y="69"/>
      <point x="2138" y="401"/>
      <point x="2138" y="880" type="curve" smooth="yes"/>
      <point x="2138" y="1337"/>
      <point x="1811" y="1567"/>
      <point x="1351" y="1567" type="curve" smooth="yes"/>
      <point x="748" y="1567"/>
      <point x="112" y="956"/>
      <point x="112" y="205" type="curve" smooth="yes"/>
      <point x="112" y="-207"/>
      <point x="452" y="-360"/>
    </contour>
    <contour>
      <point x="1024" y="186" type="curve" smooth="yes"/>
      <point x="829" y="186"/>
      <point x="849" y="395"/>
      <point x="880" y="518" type="curve" smooth="yes"/>
      <point x="984" y="919"/>
      <point x="1236" y="1161"/>
      <point x="1536" y="1064" type="curve"/>
      <point x="1392" y="570" type="line" smooth="yes"/>
      <point x="1348" y="419"/>
      <point x="1228" y="186"/>
    </contour>
  </outline>
</glyph>
<glyph name="A" format="1">
  <advance width="1895"/>
  <unicode hex="0041"/>
  <outline>
    <contour>
      <point x="1606" y="-133" type="move" name="ogonek"/>
    </contour>
    <contour>
      <point x="812" y="-135" type="curve" smooth="yes"/>
      <point x="1065" y="-135"/>
      <point x="1259" y="-23"/>
      <point x="1381" y="215" type="curve"/>
      <point x="1381" y="215"/>
      <point x="1375" y="113"/>
      <point x="1375" y="90" type="curve" smooth="yes"/>
      <point x="1375" y="-79"/>
      <point x="1487" y="-133"/>
      <point x="1606" y="-133" type="curve" smooth="yes"/>
      <point x="1739" y="-133"/>
      <point x="1876" y="-17"/>
      <point x="1937" y="60" type="curve" smooth="yes"/>
      <point x="1943" y="68"/>
      <point x="1946" y="77"/>
      <point x="1946" y="87" type="curve" smooth="yes"/>
      <point x="1946" y="118"/>
      <point x="1916" y="161"/>
      <point x="1893" y="161" type="curve" smooth="yes"/>
      <point x="1887" y="161"/>
      <point x="1881" y="159"/>
      <point x="1876" y="154" type="curve" smooth="yes"/>
      <point x="1814" y="87"/>
      <point x="1741" y="2"/>
      <point x="1644" y="2" type="curve" smooth="yes"/>
      <point x="1563" y="2"/>
      <point x="1536" y="38"/>
      <point x="1536" y="111" type="curve" smooth="yes"/>
      <point x="1536" y="190"/>
      <point x="1569" y="313"/>
      <point x="1606" y="481" type="curve" smooth="yes"/>
      <point x="1809" y="1406" type="line" smooth="yes"/>
      <point x="1810" y="1410"/>
      <point x="1810" y="1413"/>
      <point x="1810" y="1417" type="curve" smooth="yes"/>
      <point x="1810" y="1459"/>
      <point x="1756" y="1488"/>
      <point x="1712" y="1488" type="curve" smooth="yes"/>
      <point x="1684" y="1488"/>
      <point x="1660" y="1476"/>
      <point x="1654" y="1450" type="curve" smooth="yes"/>
      <point x="1467" y="625" type="line" smooth="yes"/>
      <point x="1394" y="303"/>
      <point x="1175" y="9"/>
      <point x="849" y="9" type="curve" smooth="yes"/>
      <point x="508" y="9"/>
      <point x="384" y="287"/>
      <point x="384" y="579" type="curve" smooth="yes"/>
      <point x="384" y="1323"/>
      <point x="987" y="1791"/>
      <point x="1527" y="1791" type="curve" smooth="yes"/>
      <point x="1839" y="1791"/>
      <point x="2056" y="1588"/>
      <point x="2072" y="1575" type="curve" smooth="yes"/>
      <point x="2094" y="1557"/>
      <point x="2114" y="1550"/>
      <point x="2133" y="1550" type="curve" smooth="yes"/>
      <point x="2166" y="1550"/>
      <point x="2190" y="1574"/>
      <point x="2190" y="1605" type="curve" smooth="yes"/>
      <point x="2190" y="1624"/>
      <point x="2182" y="1643"/>
      <point x="2161" y="1666" type="curve" smooth="yes"/>
      <point x="1972" y="1863"/>
      <point x="1699" y="1940"/>
      <point x="1517" y="1940" type="curve" smooth="yes"/>
      <point x="825" y="1940"/>
      <point x="190" y="1352"/>
      <point x="190" y="577" type="curve" smooth="yes"/>
      <point x="190" y="253"/>
      <point x="333" y="-135"/>
    </contour>
  </outline>
</glyph>
<glyph name="B" format="1">
  <advance width="1628"/>
  <unicode hex="0042"/>
  <outline>
    <contour>
      <point x="559" y="-176" type="curve"/>
      <point x="1030" y="-176"/>
      <point x="1544" y="162"/>
      <point x="1544" y="510" type="curve"/>
      <point x="1544" y="693"/>
      <point x="1430" y="843"/>
      <point x="1232" y="897" type="curve"/>
      <point x="1647" y="971"/>
      <point x="1740" y="1292"/>
      <point x="1740" y="1420" type="curve"/>
      <point x="1740" y="1705"/>
      <point x="1473" y="1979"/>
      <point x="945" y="1979" type="curve"/>
      <point x="519" y="1979"/>
      <point x="276" y="1822"/>
      <point x="105" y="1655" type="curve"/>
      <point x="49" y="1600"/>
      <point x="133" y="1478"/>
      <point x="240" y="1573" type="curve"/>
      <point x="411" y="1724"/>
      <point x="607" y="1835"/>
      <point x="955" y="1835" type="curve"/>
      <point x="1333" y="1835"/>
      <point x="1537" y="1643"/>
      <point x="1537" y="1440" type="curve"/>
      <point x="1537" y="1281"/>
      <point x="1377" y="992"/>
      <point x="937" y="997" type="curve"/>
      <point x="851" y="998" type="line"/>
      <point x="793" y="999"/>
      <point x="769" y="971"/>
      <point x="769" y="938" type="curve"/>
      <point x="768" y="777"/>
      <point x="1356" y="890"/>
      <point x="1356" y="495" type="curve"/>
      <point x="1356" y="232"/>
      <point x="979" y="-56"/>
      <point x="552" y="-56" type="curve"/>
      <point x="437" y="-56"/>
      <point x="437" y="2"/>
      <point x="437" y="62" type="curve"/>
      <point x="437" y="460"/>
      <point x="511" y="1210"/>
      <point x="683" y="1475" type="curve"/>
      <point x="660" y="1504"/>
      <point x="636" y="1516"/>
      <point x="609" y="1516" type="curve"/>
      <point x="296" y="1516"/>
      <point x="229" y="349"/>
      <point x="229" y="-36" type="curve"/>
      <point x="229" y="-120"/>
      <point x="347" y="-176"/>
    </contour>
    <contour>
      <point x="814" y="1940" type="move" name="top"/>
    </contour>
  </outline>
</glyph>
<glyph name="C" format="1">
  <advance width="1648"/>
  <unicode hex="0043"/>
  <outline>
    <contour>
      <point x="775" y="-272" type="curve"/>
      <point x="1188" y="-272"/>
      <point x="1539" y="-36"/>
      <point x="1690" y="268" type="curve" smooth="yes"/>
      <point x="1698" y="284"/>
      <point x="1697" y="307"/>
      <point x="1676" y="323" type="curve" smooth="yes"/>
      <point x="1669" y="328"/>
      <point x="1659" y="333"/>
      <point x="1649" y="333" type="curve"/>
      <point x="1641" y="333"/>
      <point x="1633" y="328"/>
      <point x="1630" y="325" type="curve"/>
      <point x="1428" y="79"/>
      <point x="1209" y="-128"/>
      <point x="838" y="-128" type="curve"/>
      <point x="493" y="-128"/>
      <point x="319" y="84"/>
      <point x="322" y="502" type="curve"/>
      <point x="322" y="1015"/>
      <point x="678" y="1704"/>
      <point x="1197" y="1704" type="curve"/>
      <point x="1364" y="1704"/>
      <point x="1451" y="1595"/>
      <point x="1451" y="1431" type="curve"/>
      <point x="1451" y="1200"/>
      <point x="1274" y="953"/>
      <point x="1045" y="953" type="curve" smooth="yes"/>
      <point x="969" y="953"/>
      <point x="903" y="950"/>
      <point x="903" y="888" type="curve"/>
      <point x="903" y="831"/>
      <point x="948" y="826"/>
      <point x="1049" y="826" type="curve" smooth="yes"/>
      <point x="1331.62" y="826"/>
      <point x="1595" y="1156"/>
      <point x="1595" y="1450" type="curve"/>
      <point x="1595" y="1682"/>
      <point x="1447" y="1839"/>
      <point x="1222" y="1839" type="curve"/>
      <point x="592" y="1839"/>
      <point x="145" y="1118"/>
      <point x="134" y="481" type="curve"/>
      <point x="125" y="-71"/>
      <point x="426" y="-272"/>
    </contour>
    <contour>
      <point x="824" y="0" type="move" name="bot"/>
    </contour>
    <contour>
      <point x="824" y="1940" type="move" name="top"/>
    </contour>
  </outline>
</glyph>
<glyph name="D" format="1">
  <advance width="1634"/>
  <unicode hex="0044"/>
  <outline>
    <contour>
      <point x="528" y="-113" type="curve" smooth="yes"/>
      <point x="1112" y="-92"/>
      <point x="1596" y="351"/>
      <point x="1576" y="1018" type="curve" smooth="yes"/>
      <point x="1561" y="1523"/>
      <point x="1121" y="1800"/>
      <point x="630" y="1800" type="curve" smooth="yes"/>
      <point x="369" y="1800"/>
      <point x="156" y="1715"/>
      <point x="15" y="1548" type="curve" smooth="yes"/>
      <point x="-32" y="1493"/>
      <point x="-80" y="1409"/>
      <point x="-80" y="1328" type="curve" smooth="yes"/>
      <point x="-80" y="1298"/>
      <point x="-59" y="1268"/>
      <point x="-36" y="1268" type="curve" smooth="yes"/>
      <point x="25" y="1268"/>
      <point x="14" y="1338"/>
      <point x="132" y="1462" type="curve" smooth="yes"/>
      <point x="272" y="1611"/>
      <point x="464" y="1651"/>
      <point x="601" y="1651" type="curve" smooth="yes"/>
      <point x="1096" y="1651"/>
      <point x="1387" y="1387"/>
      <point x="1412" y="999" type="curve" smooth="yes"/>
      <point x="1442" y="527"/>
      <point x="1083" y="-2"/>
      <point x="505" y="-2" type="curve" smooth="yes"/>
      <point x="382" y="-2"/>
      <point x="367" y="-2"/>
      <point x="369" y="49" type="curve"/>
      <point x="369" y="406"/>
      <point x="453" y="1189"/>
      <point x="615" y="1431" type="curve"/>
      <point x="593" y="1460"/>
      <point x="569" y="1472"/>
      <point x="542" y="1472" type="curve" smooth="yes"/>
      <point x="513" y="1472"/>
      <point x="480" y="1461"/>
      <point x="442" y="1435" type="curve"/>
      <point x="248" y="1145"/>
      <point x="199" y="456"/>
      <point x="199" y="-36" type="curve" smooth="yes"/>
      <point x="199" y="-63"/>
      <point x="198" y="-63"/>
      <point x="214" y="-69" type="curve" smooth="yes"/>
      <point x="275" y="-92"/>
      <point x="399" y="-118"/>
    </contour>
    <contour>
      <point x="817" y="0" type="move" name="bot"/>
    </contour>
    <contour>
      <point x="817" y="1940" type="move" name="top"/>
    </contour>
  </outline>
</glyph>
<glyph name="E" format="1">
  <advance width="1419"/>
  <unicode hex="0045"/>
  <outline>
    <contour>
      <point x="7" y="-130"/>
      <point x="286" y="-280"/>
      <point x="624" y="-280" type="curve" smooth="yes"/>
      <point x="1001" y="-280"/>
      <point x="1446" y="-94"/>
      <point x="1654" y="226" type="curve" smooth="yes"/>
      <point x="1666" y="245"/>
      <point x="1672" y="265"/>
      <point x="1672" y="282" type="curve" smooth="yes"/>
      <point x="1672" y="322"/>
      <point x="1645" y="345"/>
      <point x="1615" y="345" type="curve" smooth="yes"/>
      <point x="1598" y="345"/>
      <point x="1572" y="335"/>
      <point x="1552" y="304" type="curve" smooth="yes"/>
      <point x="1380" y="50"/>
      <point x="982" y="-120"/>
      <point x="666" y="-120" type="curve" smooth="yes"/>
      <point x="414" y="-120"/>
      <point x="211" y="-13"/>
      <point x="211" y="237" type="curve" smooth="yes"/>
      <point x="211" y="478"/>
      <point x="525" y="756"/>
      <point x="888" y="756" type="curve" smooth="yes"/>
      <point x="966" y="756"/>
      <point x="1004" y="803"/>
      <point x="1004" y="851" type="curve" smooth="yes"/>
      <point x="1004" y="886"/>
      <point x="984" y="916"/>
      <point x="947" y="924" type="curve" smooth="yes"/>
      <point x="621" y="998"/>
      <point x="459" y="1223"/>
      <point x="459" y="1430" type="curve" smooth="yes"/>
      <point x="459" y="1706"/>
      <point x="745" y="1858"/>
      <point x="1028" y="1858" type="curve" smooth="yes"/>
      <point x="1193" y="1858"/>
      <point x="1358" y="1807"/>
      <point x="1464" y="1702" type="curve"/>
      <point x="1424" y="1623"/>
      <point x="1374" y="1550"/>
      <point x="1374" y="1468" type="curve" smooth="yes"/>
      <point x="1374" y="1423"/>
      <point x="1400" y="1399"/>
      <point x="1483" y="1399" type="curve" smooth="yes"/>
      <point x="1546" y="1399"/>
      <point x="1645" y="1468"/>
      <point x="1636" y="1626" type="curve" smooth="yes"/>
      <point x="1616" y="1865"/>
      <point x="1319" y="1996"/>
      <point x="1004" y="1996" type="curve" smooth="yes"/>
      <point x="644" y="1996"/>
      <point x="266" y="1823"/>
      <point x="266" y="1431" type="curve" smooth="yes"/>
      <point x="266" y="1221"/>
      <point x="388" y="1004"/>
      <point x="659" y="874" type="curve"/>
      <point x="362" y="836"/>
      <point x="7" y="512"/>
      <point x="7" y="213" type="curve" smooth="yes"/>
    </contour>
    <contour>
      <point x="624" y="-280" type="move" name="bot"/>
    </contour>
    <contour>
      <point x="725" y="-255" type="move" name="ogonek"/>
    </contour>
    <contour>
      <point x="1049" y="1940" type="move" name="top"/>
    </contour>
  </outline>
</glyph>
<glyph name="F" format="1">
  <advance width="1288"/>
  <unicode hex="0046"/>
  <outline>
    <contour>
      <point x="414" y="-198" type="curve"/>
      <point x="773" y="-198"/>
      <point x="885" y="155"/>
      <point x="1012" y="790" type="curve"/>
      <point x="1155" y="790"/>
      <point x="1253" y="792"/>
      <point x="1319" y="812" type="curve" smooth="yes"/>
      <point x="1339" y="818"/>
      <point x="1361" y="839"/>
      <point x="1361" y="864" type="curve"/>
      <point x="1361" y="883"/>
      <point x="1357" y="906"/>
      <point x="1307" y="916" type="curve" smooth="yes"/>
      <point x="1259" y="926"/>
      <point x="1159" y="920"/>
      <point x="1032" y="920" type="curve"/>
      <point x="1043" y="982"/>
      <point x="1161" y="1657"/>
      <point x="1202" y="1859" type="curve"/>
      <point x="1348.49" y="1880.7"/>
      <point x="1665.18" y="1869.32"/>
      <point x="1909" y="1838" type="curve"/>
      <point x="1987" y="1832"/>
      <point x="2022" y="1858"/>
      <point x="2022" y="1918" type="curve"/>
      <point x="2018" y="2010"/>
      <point x="1472" y="2018"/>
      <point x="1310" y="2018" type="curve"/>
      <point x="614" y="2018"/>
      <point x="-298" y="1687"/>
      <point x="231" y="813" type="curve"/>
      <point x="278" y="757"/>
      <point x="435" y="726"/>
      <point x="360" y="843" type="curve" smooth="yes"/>
      <point x="-79" y="1527"/>
      <point x="517" y="1779"/>
      <point x="1050" y="1859" type="curve"/>
      <point x="1001" y="1609"/>
      <point x="949" y="1246"/>
      <point x="886" y="916" type="curve"/>
      <point x="698" y="911"/>
      <point x="632" y="887"/>
      <point x="632" y="844" type="curve"/>
      <point x="632" y="810.225"/>
      <point x="656.223" y="796.167"/>
      <point x="735.956" y="789.986" type="curve" smooth="yes"/>
      <point x="762.456" y="787.932"/>
      <point x="827" y="787"/>
      <point x="867" y="786" type="curve"/>
      <point x="830" y="611"/>
      <point x="772" y="-74"/>
      <point x="434" y="-74" type="curve"/>
      <point x="254" y="-74"/>
      <point x="309" y="17"/>
      <point x="210" y="17" type="curve"/>
      <point x="173" y="17"/>
      <point x="140" y="-20"/>
      <point x="140" y="-69" type="curve"/>
      <point x="140" y="-168"/>
      <point x="301" y="-198"/>
    </contour>
    <contour>
      <point x="644" y="0" type="move" name="bot"/>
    </contour>
    <contour>
      <point x="644" y="1940" type="move" name="top"/>
    </contour>
  </outline>
</glyph>
<glyph name="G" format="1">
  <advance width="2127"/>
  <unicode hex="0047"/>
  <outline>
    <contour>
      <point x="884" y="-909" type="curve" smooth="yes"/>
      <point x="1471" y="-1129"/>
      <point x="1795" y="-709"/>
      <point x="2012" y="356" type="curve" smooth="yes"/>
      <point x="2058" y="582"/>
      <point x="2041" y="602"/>
      <point x="1679" y="602" type="curve" smooth="yes"/>
      <point x="1601" y="602"/>
      <point x="1542" y="577"/>
      <point x="1542" y="522" type="curve" smooth="yes"/>
      <point x="1542" y="470"/>
      <point x="1575" y="456"/>
      <point x="1672" y="456" type="curve" smooth="yes"/>
      <point x="1872" y="456"/>
      <point x="1886" y="437"/>
      <point x="1873" y="380" type="curve" smooth="yes"/>
      <point x="1855" y="300" type="line"/>
      <point x="1460" y="-72"/>
      <point x="414" y="-300"/>
      <point x="433" y="588" type="curve" smooth="yes"/>
      <point x="459" y="1782"/>
      <point x="1828" y="2127"/>
      <point x="1828" y="1511" type="curve" smooth="yes"/>
      <point x="1828" y="1405"/>
      <point x="1866" y="1386"/>
      <point x="1923" y="1386" type="curve" smooth="yes"/>
      <point x="1987" y="1386"/>
      <point x="2023" y="1412"/>
      <point x="2023" y="1502" type="curve" smooth="yes"/>
      <point x="2023" y="2402"/>
      <point x="244" y="1985"/>
      <point x="244" y="558" type="curve" smooth="yes"/>
      <point x="244" y="-540"/>
      <point x="1571" y="-141"/>
      <point x="1815" y="115" type="curve"/>
      <point x="1573" y="-910"/>
      <point x="1258" y="-904"/>
      <point x="917" y="-751" type="curve"/>
      <point x="831" y="-720"/>
      <point x="725" y="-850"/>
    </contour>
    <contour>
      <point x="1063.5" y="0" type="move" name="bot"/>
    </contour>
    <contour>
      <point x="1063.5" y="1940" type="move" name="top"/>
    </contour>
  </outline>
</glyph>
<glyph name="H" format="1">
  <advance width="1983"/>
  <unicode hex="0048"/>
  <outline>
    <contour>
      <point x="2003" y="-211" type="curve"/>
      <point x="2043" y="-184"/>
      <point x="1994" y="-89"/>
      <point x="1962" y="-102" type="curve"/>
      <point x="1655" y="-264"/>
      <point x="1114" y="-535"/>
      <point x="1327" y="353" type="curve"/>
      <point x="1535" y="1149" type="line" smooth="yes"/>
      <point x="1645" y="1570"/>
      <point x="1724" y="1665"/>
      <point x="1896" y="1727" type="curve" smooth="yes"/>
      <point x="2459" y="1930"/>
      <point x="2371" y="654"/>
      <point x="644" y="916" type="curve"/>
      <point x="569" y="928"/>
      <point x="523" y="786"/>
      <point x="608" y="774" type="curve"/>
      <point x="2631" y="525"/>
      <point x="2695" y="2073"/>
      <point x="1868" y="1867" type="curve" smooth="yes"/>
      <point x="1679" y="1820"/>
      <point x="1487" y="1644"/>
      <point x="1373" y="1167" type="curve" smooth="yes"/>
      <point x="1172" y="330" type="line"/>
      <point x="962" y="-470"/>
      <point x="1531" y="-539"/>
    </contour>
    <contour>
      <point x="85" y="-303" type="curve"/>
      <point x="171" y="-318"/>
      <point x="196" y="-265"/>
      <point x="234" y="-148" type="curve"/>
      <point x="682" y="1134" type="line"/>
      <point x="815" y="1556"/>
      <point x="784" y="1871"/>
      <point x="495" y="1898" type="curve"/>
      <point x="227" y="1933"/>
      <point x="67" y="1767"/>
      <point x="-12" y="1654" type="curve"/>
      <point x="-74" y="1564"/>
      <point x="30" y="1465"/>
      <point x="127" y="1579" type="curve"/>
      <point x="171" y="1629"/>
      <point x="300" y="1755"/>
      <point x="395" y="1755" type="curve"/>
      <point x="623" y="1755"/>
      <point x="667" y="1540"/>
      <point x="484" y="1046" type="curve"/>
      <point x="75" y="-97" type="line"/>
      <point x="12" y="-268"/>
      <point x="38" y="-295"/>
    </contour>
    <contour>
      <point x="991.5" y="0" type="move" name="bot"/>
    </contour>
    <contour>
      <point x="991.5" y="1940" type="move" name="top"/>
    </contour>
  </outline>
</glyph>
<glyph name="I" format="1">
  <advance width="982"/>
  <unicode hex="0049"/>
  <outline>
    <contour>
      <point x="74" y="-68" type="curve"/>
      <point x="107" y="-79"/>
      <point x="635" y="-24"/>
      <point x="931" y="-12" type="curve"/>
      <point x="1032" y="-8"/>
      <point x="1037" y="96"/>
      <point x="1005" y="108" type="curve"/>
      <point x="945" y="131"/>
      <point x="778" y="106"/>
      <point x="570" y="107" type="curve"/>
      <point x="650" y="491"/>
      <point x="925" y="1384"/>
      <point x="1018" y="1713" type="curve"/>
      <point x="1120" y="1725"/>
      <point x="1415" y="1738"/>
      <point x="1508" y="1754" type="curve" smooth="yes"/>
      <point x="1557" y="1762"/>
      <point x="1544" y="1872"/>
      <point x="1502" y="1871" type="curve"/>
      <point x="792" y="1959"/>
      <point x="515" y="1842"/>
      <point x="442" y="1805" type="curve" smooth="yes"/>
      <point x="401" y="1784"/>
      <point x="422" y="1664"/>
      <point x="456" y="1670" type="curve" smooth="yes"/>
      <point x="601" y="1696"/>
      <point x="814" y="1697"/>
      <point x="864" y="1704" type="curve"/>
      <point x="680" y="1219"/>
      <point x="518" y="624"/>
      <point x="403" y="102" type="curve"/>
      <point x="351" y="99"/>
      <point x="54" y="93"/>
      <point x="39" y="38" type="curve"/>
      <point x="23" y="-18"/>
      <point x="45" y="-58"/>
    </contour>
    <contour>
      <point x="491" y="0" type="move" name="bot"/>
    </contour>
    <contour>
      <point x="0" y="0" type="move" name="ogonek"/>
    </contour>
    <contour>
      <point x="491" y="1940" type="move" name="top"/>
    </contour>
  </outline>
</glyph>
<glyph name="J" format="1">
  <advance width="1407"/>
  <unicode hex="004A"/>
  <outline>
    <contour>
      <point x="534" y="-432" type="curve" smooth="yes"/>
      <point x="959" y="-382"/>
      <point x="1365" y="931"/>
      <point x="1465" y="1816" type="curve" smooth="yes"/>
      <point x="1466" y="1820"/>
      <point x="1466" y="1824"/>
      <point x="1466" y="1831" type="curve" smooth="yes"/>
      <point x="1466" y="1871"/>
      <point x="1453" y="1883"/>
      <point x="1420" y="1883" type="curve" smooth="yes"/>
      <point x="1362" y="1883"/>
      <point x="1352" y="1876"/>
      <point x="1334" y="1781" type="curve" smooth="yes"/>
      <point x="1262" y="1379"/>
      <point x="882" y="-291"/>
      <point x="473" y="-291" type="curve" smooth="yes"/>
      <point x="323" y="-291"/>
      <point x="321" y="-61"/>
      <point x="301" y="89" type="curve" smooth="yes"/>
      <point x="291" y="165"/>
      <point x="176" y="171"/>
      <point x="183" y="75" type="curve" smooth="yes"/>
      <point x="203" y="-210"/>
      <point x="275" y="-462"/>
    </contour>
    <contour>
      <point x="1971" y="1754" type="curve" smooth="yes"/>
      <point x="1972" y="1801"/>
      <point x="1937" y="1839"/>
      <point x="1901" y="1834" type="curve"/>
      <point x="1497" y="1834"/>
      <point x="1054" y="1882"/>
      <point x="699" y="1882" type="curve" smooth="yes"/>
      <point x="89" y="1882"/>
      <point x="-166" y="1595"/>
      <point x="-166" y="1274" type="curve" smooth="yes"/>
      <point x="-166" y="1215"/>
      <point x="-70" y="1195"/>
      <point x="-56" y="1246" type="curve" smooth="yes"/>
      <point x="20" y="1531"/>
      <point x="114" y="1734"/>
      <point x="691" y="1734" type="curve" smooth="yes"/>
      <point x="897" y="1734"/>
      <point x="1256" y="1684"/>
      <point x="1757" y="1684" type="curve" smooth="yes"/>
      <point x="1957" y="1684"/>
      <point x="1971" y="1712"/>
    </contour>
  </outline>
</glyph>
<glyph name="K" format="1">
  <advance width="1642"/>
  <unicode hex="004B"/>
  <outline>
    <contour>
      <point x="1790" y="-401" type="curve" smooth="yes"/>
      <point x="1882" y="-401"/>
      <point x="2063" y="-365"/>
      <point x="2091" y="-305" type="curve"/>
      <point x="2110" y="-258"/>
      <point x="2080" y="-229"/>
      <point x="2062" y="-229" type="curve" smooth="yes"/>
      <point x="2013" y="-229"/>
      <point x="1942" y="-265"/>
      <point x="1873" y="-265" type="curve"/>
      <point x="1485" y="-283"/>
      <point x="1433" y="-61"/>
      <point x="1012" y="916" type="curve"/>
      <point x="1536" y="1182"/>
      <point x="1889" y="1553"/>
      <point x="1969" y="1730" type="curve" smooth="yes"/>
      <point x="2003" y="1809"/>
      <point x="2004" y="1870"/>
      <point x="1941" y="1870" type="curve" smooth="yes"/>
      <point x="1894" y="1870"/>
      <point x="1869" y="1806"/>
      <point x="1794" y="1705" type="curve" smooth="yes"/>
      <point x="1620" y="1472"/>
      <point x="1332" y="1226"/>
      <point x="923" y="998" type="curve"/>
      <point x="971" y="1302"/>
      <point x="972" y="1579"/>
      <point x="972" y="1840" type="curve" smooth="yes"/>
      <point x="972" y="1881"/>
      <point x="946" y="1896"/>
      <point x="886" y="1896" type="curve" smooth="yes"/>
      <point x="455" y="1896"/>
      <point x="-105" y="1699"/>
      <point x="-105" y="1088" type="curve" smooth="yes"/>
      <point x="-105" y="1034"/>
      <point x="-67" y="1005"/>
      <point x="-19" y="1012" type="curve" smooth="yes"/>
      <point x="41" y="1021"/>
      <point x="60" y="1042"/>
      <point x="60" y="1075" type="curve" smooth="yes"/>
      <point x="60" y="1635"/>
      <point x="501" y="1795"/>
      <point x="833" y="1774" type="curve"/>
      <point x="763" y="270"/>
      <point x="509" y="-170"/>
      <point x="185" y="-170" type="curve" smooth="yes"/>
      <point x="114" y="-170"/>
      <point x="34" y="-137"/>
      <point x="-3" y="-137" type="curve" smooth="yes"/>
      <point x="-38" y="-137"/>
      <point x="-80" y="-183"/>
      <point x="-80" y="-226" type="curve" smooth="yes"/>
      <point x="-80" y="-283"/>
      <point x="106" y="-303"/>
      <point x="190" y="-303" type="curve" smooth="yes"/>
      <point x="630" y="-303"/>
      <point x="791" y="271"/>
      <point x="905" y="885" type="curve"/>
      <point x="1315" y="-58"/>
      <point x="1358" y="-401"/>
    </contour>
  </outline>
</glyph>
<glyph name="L" format="1">
  <advance width="1820"/>
  <unicode hex="004C"/>
  <outline>
    <contour>
      <point x="589" y="-219" type="curve" smooth="yes"/>
      <point x="1307" y="-219"/>
      <point x="1377" y="464"/>
      <point x="1377" y="1145" type="curve" smooth="yes"/>
      <point x="1377" y="1725"/>
      <point x="1598" y="1986"/>
      <point x="1926" y="1984" type="curve" smooth="yes"/>
      <point x="2618" y="1981"/>
      <point x="2443" y="847"/>
      <point x="827" y="1375" type="curve" smooth="yes"/>
      <point x="762" y="1396"/>
      <point x="725" y="1274"/>
      <point x="772" y="1259" type="curve" smooth="yes"/>
      <point x="2665" y="648"/>
      <point x="2872" y="2119"/>
      <point x="1937" y="2122" type="curve" smooth="yes"/>
      <point x="1424" y="2124"/>
      <point x="1208" y="1680"/>
      <point x="1219" y="1206" type="curve" smooth="yes"/>
      <point x="1233" y="601"/>
      <point x="1239" y="-98"/>
      <point x="599" y="-98" type="curve" smooth="yes"/>
      <point x="286" y="-98"/>
      <point x="241" y="237"/>
      <point x="484" y="238" type="curve" smooth="yes"/>
      <point x="1215" y="238"/>
      <point x="2180" y="-1074"/>
      <point x="2631" y="-221" type="curve" smooth="yes"/>
      <point x="2672" y="-143"/>
      <point x="2599" y="-76"/>
      <point x="2539" y="-168" type="curve" smooth="yes"/>
      <point x="2155" y="-758"/>
      <point x="1197" y="387"/>
      <point x="481" y="387" type="curve" smooth="yes"/>
      <point x="60" y="387"/>
      <point x="72" y="-219"/>
    </contour>
  </outline>
</glyph>
<glyph name="M" format="1">
  <advance width="2282"/>
  <unicode hex="004D"/>
  <outline>
    <contour>
      <point x="363" y="11" type="curve" smooth="yes"/>
      <point x="679" y="889"/>
      <point x="983" y="1656"/>
      <point x="1215" y="1670" type="curve" smooth="yes"/>
      <point x="1420" y="1682"/>
      <point x="1364" y="1253"/>
      <point x="1238" y="816" type="curve" smooth="yes"/>
      <point x="988" y="-53" type="line"/>
      <point x="988" y="-53"/>
      <point x="1044" y="-92"/>
      <point x="1087" y="-92" type="curve" smooth="yes"/>
      <point x="1119" y="-92"/>
      <point x="1155" y="-70"/>
      <point x="1164" y="-18" type="curve"/>
      <point x="1424" y="857"/>
      <point x="1662" y="1560"/>
      <point x="1933" y="1598" type="curve" smooth="yes"/>
      <point x="2054" y="1615"/>
      <point x="2084" y="1519"/>
      <point x="2070" y="1430" type="curve" smooth="yes"/>
      <point x="2010" y="1063"/>
      <point x="1794" y="695"/>
      <point x="1764" y="229" type="curve" smooth="yes"/>
      <point x="1754" y="75"/>
      <point x="1839" y="-77"/>
      <point x="2038" y="-97" type="curve" smooth="yes"/>
      <point x="2273" y="-121"/>
      <point x="2453" y="12"/>
      <point x="2521" y="131" type="curve" smooth="yes"/>
      <point x="2549" y="180"/>
      <point x="2481" y="285"/>
      <point x="2427" y="220" type="curve" smooth="yes"/>
      <point x="2354" y="133"/>
      <point x="2221" y="26"/>
      <point x="2064" y="47" type="curve" smooth="yes"/>
      <point x="1951" y="62"/>
      <point x="1919" y="156"/>
      <point x="1931" y="259" type="curve" smooth="yes"/>
      <point x="1993" y="775"/>
      <point x="2215" y="1077"/>
      <point x="2245" y="1462" type="curve" smooth="yes"/>
      <point x="2262" y="1675"/>
      <point x="2115" y="1772"/>
      <point x="2000" y="1774" type="curve" smooth="yes"/>
      <point x="1802" y="1778"/>
      <point x="1634" y="1590"/>
      <point x="1476" y="1188" type="curve"/>
      <point x="1563" y="1561"/>
      <point x="1504" y="1840"/>
      <point x="1269" y="1840" type="curve"/>
      <point x="933" y="1833"/>
      <point x="763" y="1382"/>
      <point x="635" y="1030" type="curve"/>
      <point x="713" y="1304"/>
      <point x="782" y="1813"/>
      <point x="498" y="1813" type="curve" smooth="yes"/>
      <point x="268" y="1813"/>
      <point x="49" y="1589"/>
      <point x="49" y="1329" type="curve" smooth="yes"/>
      <point x="49" y="1260"/>
      <point x="189" y="1265"/>
      <point x="189" y="1267" type="curve" smooth="yes"/>
      <point x="189" y="1490"/>
      <point x="329" y="1702"/>
      <point x="445" y="1702" type="curve" smooth="yes"/>
      <point x="622" y="1702"/>
      <point x="618" y="1197"/>
      <point x="484" y="808" type="curve" smooth="yes"/>
      <point x="180" y="-71" type="line"/>
      <point x="180" y="-71"/>
      <point x="191" y="-118"/>
      <point x="252" y="-118" type="curve" smooth="yes"/>
      <point x="317" y="-118"/>
      <point x="328" y="-85"/>
    </contour>
  </outline>
</glyph>
<glyph name="N" format="1">
  <advance width="572"/>
  <unicode hex="004E"/>
  <outline>
    <contour>
      <point x="102" y="-16" type="curve" smooth="yes"/>
      <point x="116" y="-16"/>
      <point x="128" y="-7"/>
      <point x="133" y="9" type="curve" smooth="yes"/>
      <point x="199" y="248"/>
      <point x="374" y="543"/>
      <point x="454" y="540" type="curve" smooth="yes"/>
      <point x="491" y="538"/>
      <point x="492" y="510"/>
      <point x="492" y="482" type="curve" smooth="yes"/>
      <point x="492" y="409"/>
      <point x="385" y="190"/>
      <point x="385" y="71" type="curve" smooth="yes"/>
      <point x="385" y="9"/>
      <point x="417" y="-31"/>
      <point x="499" y="-31" type="curve" smooth="yes"/>
      <point x="537" y="-31"/>
      <point x="592" y="-6"/>
      <point x="624" y="25" type="curve" smooth="yes"/>
      <point x="663" y="63"/>
      <point x="633" y="86"/>
      <point x="609" y="60" type="curve" smooth="yes"/>
      <point x="547" y="-8"/>
      <point x="435" y="-15"/>
      <point x="444" y="89" type="curve" smooth="yes"/>
      <point x="455" y="209"/>
      <point x="554" y="404"/>
      <point x="554" y="502" type="curve" smooth="yes"/>
      <point x="554" y="547"/>
      <point x="524" y="583"/>
      <point x="471" y="591" type="curve" smooth="yes"/>
      <point x="352" y="607"/>
      <point x="255" y="440"/>
      <point x="183" y="265" type="curve"/>
      <point x="195" y="337"/>
      <point x="210" y="424"/>
      <point x="207" y="482" type="curve" smooth="yes"/>
      <point x="202" y="541"/>
      <point x="186" y="578"/>
      <point x="138" y="583" type="curve" smooth="yes"/>
      <point x="89" y="588"/>
      <point x="50" y="549"/>
      <point x="25" y="507" type="curve" smooth="yes"/>
      <point x="6" y="475"/>
      <point x="35" y="457"/>
      <point x="54" y="481" type="curve" smooth="yes"/>
      <point x="86" y="522"/>
      <point x="105" y="540"/>
      <point x="126" y="541" type="curve" smooth="yes"/>
      <point x="147" y="541"/>
      <point x="156" y="519"/>
      <point x="158" y="493" type="curve" smooth="yes"/>
      <point x="166" y="384"/>
      <point x="128" y="169"/>
      <point x="76" y="23" type="curve" smooth="yes"/>
      <point x="70" y="9"/>
      <point x="78" y="-16"/>
    </contour>
  </outline>
</glyph>
<glyph name="O" format="1">
  <advance width="1853"/>
  <unicode hex="004F"/>
  <outline>
    <contour>
      <point x="889" y="-115" type="curve"/>
      <point x="512" y="-115"/>
      <point x="371" y="144"/>
      <point x="379" y="604" type="curve"/>
      <point x="390" y="1317"/>
      <point x="838" y="1834"/>
      <point x="1212" y="1834" type="curve"/>
      <point x="1561" y="1834"/>
      <point x="1692" y="1570"/>
      <point x="1684" y="1100" type="curve"/>
      <point x="1671" y="396"/>
      <point x="1244" y="-115"/>
    </contour>
    <contour>
      <point x="901" y="-272" type="curve"/>
      <point x="1464" y="-272"/>
      <point x="1871" y="468"/>
      <point x="1871" y="1100" type="curve"/>
      <point x="1871" y="1738"/>
      <point x="1625" y="1987"/>
      <point x="1189" y="1987" type="curve"/>
      <point x="610" y="1987"/>
      <point x="191" y="1240"/>
      <point x="191" y="605" type="curve"/>
      <point x="191" y="-27"/>
      <point x="447" y="-272"/>
    </contour>
    <contour>
      <point x="927" y="1" type="move" name="bot"/>
    </contour>
    <contour>
      <point x="0" y="1" type="move" name="ogonek"/>
    </contour>
    <contour>
      <point x="927" y="1941" type="move" name="top"/>
    </contour>
  </outline>
</glyph>
<glyph name="P" format="1">
  <advance width="1374"/>
  <unicode hex="0050"/>
  <outline>
    <contour>
      <point x="352" y="-196" type="curve" smooth="yes"/>
      <point x="133" y="-196"/>
      <point x="67" y="291"/>
      <point x="67" y="647" type="curve" smooth="yes"/>
      <point x="67" y="1148"/>
      <point x="313" y="1829"/>
      <point x="836" y="1859" type="curve" smooth="yes"/>
      <point x="1272" y="1884"/>
      <point x="1532" y="1706"/>
      <point x="1532" y="1418" type="curve" smooth="yes"/>
      <point x="1532" y="1123"/>
      <point x="1227" y="927"/>
      <point x="786" y="913" type="curve"/>
      <point x="799" y="1011"/>
      <point x="849" y="1227"/>
      <point x="950" y="1399" type="curve" smooth="yes"/>
      <point x="963" y="1421"/>
      <point x="929" y="1452"/>
      <point x="865" y="1452" type="curve" smooth="yes"/>
      <point x="700" y="1452"/>
      <point x="672" y="1224"/>
      <point x="616" y="920" type="curve"/>
      <point x="535" y="920"/>
      <point x="402" y="991"/>
      <point x="372" y="1005" type="curve" smooth="yes"/>
      <point x="354" y="1013"/>
      <point x="355" y="973"/>
      <point x="355" y="954" type="curve" smooth="yes"/>
      <point x="355" y="836"/>
      <point x="527" y="796"/>
      <point x="602" y="788" type="curve"/>
      <point x="549" y="382"/>
      <point x="564" y="-196"/>
    </contour>
    <contour>
      <point x="318" y="-349" type="curve" smooth="yes"/>
      <point x="594" y="-349"/>
      <point x="672" y="-101"/>
      <point x="712" y="290" type="curve"/>
      <point x="747" y="591"/>
      <point x="770" y="779"/>
      <point x="775" y="779" type="curve" smooth="yes"/>
      <point x="1342" y="796"/>
      <point x="1694" y="1050"/>
      <point x="1694" y="1437" type="curve" smooth="yes"/>
      <point x="1694" y="1801"/>
      <point x="1386" y="2055"/>
      <point x="846" y="2036" type="curve" smooth="yes"/>
      <point x="257" y="2015"/>
      <point x="-95" y="1419"/>
      <point x="-95" y="679" type="curve" smooth="yes"/>
      <point x="-95" y="134"/>
      <point x="34" y="-349"/>
    </contour>
  </outline>
</glyph>
<glyph name="Q" format="1">
  <advance width="1853"/>
  <unicode hex="0051"/>
  <outline>
    <contour>
      <point x="1950" y="-577"/>
      <point x="2314" y="-907"/>
      <point x="2627" y="-626" type="curve"/>
      <point x="2744" y="-520"/>
      <point x="2775" y="-433"/>
      <point x="2787" y="-398" type="curve"/>
      <point x="2796" y="-367"/>
      <point x="2797" y="-354"/>
      <point x="2786" y="-343" type="curve"/>
      <point x="2775" y="-328"/>
      <point x="2741" y="-321"/>
      <point x="2727" y="-330" type="curve"/>
      <point x="2719" y="-335"/>
      <point x="2714" y="-343"/>
      <point x="2707" y="-354" type="curve"/>
      <point x="2670" y="-404"/>
      <point x="2639" y="-436"/>
      <point x="2595" y="-478" type="curve"/>
      <point x="2408" y="-646"/>
      <point x="2104" y="-560"/>
      <point x="1200" y="33" type="curve"/>
      <point x="1184" y="52"/>
      <point x="1109" y="-35"/>
      <point x="1134" y="-58" type="curve"/>
    </contour>
    <component base="O"/>
  </outline>
</glyph>
<glyph name="R" format="1">
  <advance width="2002"/>
  <unicode hex="0052"/>
  <outline>
    <contour>
      <point x="604" y="-348" type="curve" smooth="yes"/>
      <point x="904" y="-346"/>
      <point x="961" y="-55"/>
      <point x="1068" y="1003" type="curve" smooth="yes"/>
      <point x="1093" y="1255"/>
      <point x="1216" y="1358"/>
      <point x="1216" y="1409" type="curve" smooth="yes"/>
      <point x="1216" y="1431"/>
      <point x="1176" y="1453"/>
      <point x="1128" y="1452" type="curve" smooth="yes"/>
      <point x="993" y="1448"/>
      <point x="948" y="1291"/>
      <point x="902" y="1039" type="curve" smooth="yes"/>
      <point x="794" y="445"/>
      <point x="835" y="-194"/>
      <point x="611" y="-194" type="curve" smooth="yes"/>
      <point x="447" y="-194"/>
      <point x="333" y="31"/>
      <point x="333" y="658" type="curve" smooth="yes"/>
      <point x="333" y="1303"/>
      <point x="638" y="1870"/>
      <point x="1179" y="1870" type="curve" smooth="yes"/>
      <point x="1622" y="1870"/>
      <point x="1772" y="1686"/>
      <point x="1765" y="1453" type="curve"/>
      <point x="1765" y="1271"/>
      <point x="1617" y="1105"/>
      <point x="1044" y="1121" type="curve" smooth="yes"/>
      <point x="922" y="1121"/>
      <point x="832" y="1137"/>
      <point x="775" y="1139" type="curve" smooth="yes"/>
      <point x="730" y="1142"/>
      <point x="705" y="1136"/>
      <point x="698" y="1110" type="curve" smooth="yes"/>
      <point x="676" y="1028"/>
      <point x="793" y="946"/>
      <point x="1228" y="968" type="curve"/>
      <point x="1410" y="-26"/>
      <point x="1729" y="-330"/>
      <point x="2023" y="-364" type="curve" smooth="yes"/>
      <point x="2130" y="-379"/>
      <point x="2253" y="-367"/>
      <point x="2391" y="-211" type="curve" smooth="yes"/>
      <point x="2427" y="-171"/>
      <point x="2419" y="-145"/>
      <point x="2390" y="-118" type="curve" smooth="yes"/>
      <point x="2357" y="-88"/>
      <point x="2327" y="-109"/>
      <point x="2304" y="-132" type="curve" smooth="yes"/>
      <point x="2246" y="-192"/>
      <point x="2160" y="-222"/>
      <point x="2087" y="-212" type="curve" smooth="yes"/>
      <point x="1973" y="-196"/>
      <point x="1613" y="-125"/>
      <point x="1370" y="990" type="curve"/>
      <point x="1576" y="987"/>
      <point x="1929" y="1142"/>
      <point x="1934" y="1475" type="curve"/>
      <point x="1946" y="1809"/>
      <point x="1634" y="2035"/>
      <point x="1176" y="2038" type="curve" smooth="yes"/>
      <point x="652" y="2040"/>
      <point x="168" y="1562"/>
      <point x="168" y="658" type="curve" smooth="yes"/>
      <point x="168" y="-7"/>
      <point x="323" y="-349"/>
    </contour>
  </outline>
</glyph>
<glyph name="S" format="1">
  <advance width="1641"/>
  <unicode hex="0053"/>
  <outline>
    <contour>
      <point x="787" y="-333" type="curve"/>
      <point x="1227" y="-333"/>
      <point x="1543" y="-105"/>
      <point x="1543" y="235" type="curve"/>
      <point x="1543" y="547"/>
      <point x="1305" y="657"/>
      <point x="981" y="849" type="curve"/>
      <point x="599" y="1099"/>
      <point x="476" y="1139"/>
      <point x="476" y="1368" type="curve"/>
      <point x="476" y="1568"/>
      <point x="790" y="1725"/>
      <point x="1025" y="1725" type="curve"/>
      <point x="1246" y="1725"/>
      <point x="1454" y="1611"/>
      <point x="1454" y="1426" type="curve"/>
      <point x="1454" y="1318"/>
      <point x="1406" y="1240"/>
      <point x="1358" y="1180" type="curve"/>
      <point x="1293" y="1103"/>
      <point x="1392" y="1008"/>
      <point x="1502" y="1133" type="curve"/>
      <point x="1558" y="1195"/>
      <point x="1609" y="1297"/>
      <point x="1607" y="1424" type="curve"/>
      <point x="1603" y="1697"/>
      <point x="1345" y="1860"/>
      <point x="999" y="1850" type="curve"/>
      <point x="659" y="1841"/>
      <point x="303" y="1647"/>
      <point x="303" y="1344" type="curve"/>
      <point x="303" y="1060"/>
      <point x="575" y="914"/>
      <point x="835" y="751" type="curve"/>
      <point x="1087" y="594"/>
      <point x="1388" y="497"/>
      <point x="1388" y="213" type="curve"/>
      <point x="1388" y="-10"/>
      <point x="1184" y="-213"/>
      <point x="802" y="-213" type="curve"/>
      <point x="474" y="-213"/>
      <point x="262" y="-40"/>
      <point x="262" y="224" type="curve"/>
      <point x="262" y="315"/>
      <point x="301" y="365"/>
      <point x="301" y="423" type="curve"/>
      <point x="301" y="449"/>
      <point x="288" y="460"/>
      <point x="262" y="460" type="curve"/>
      <point x="157" y="460"/>
      <point x="83" y="347"/>
      <point x="83" y="223" type="curve"/>
      <point x="83" y="-142"/>
      <point x="424" y="-333"/>
    </contour>
    <contour>
      <point x="820.5" y="0" type="move" name="bot"/>
    </contour>
    <contour>
      <point x="820.5" y="1940" type="move" name="top"/>
    </contour>
  </outline>
</glyph>
<glyph name="T" format="1">
  <advance width="1311.090"/>
  <unicode hex="0054"/>
  <outline>
    <contour>
      <point x="800" y="-264" type="curve"/>
      <point x="870" y="-264"/>
      <point x="894" y="-228"/>
      <point x="907" y="-149" type="curve"/>
      <point x="934" y="30"/>
      <point x="989" y="750"/>
      <point x="1265" y="1659" type="curve"/>
      <point x="1855" y="1649"/>
      <point x="2128" y="1643"/>
      <point x="2321" y="1637" type="curve" smooth="yes"/>
      <point x="2368" y="1636"/>
      <point x="2347" y="1815"/>
      <point x="2286" y="1820" type="curve" smooth="yes"/>
      <point x="813" y="1950"/>
      <point x="118" y="1917"/>
      <point x="-123" y="1131" type="curve"/>
      <point x="-167" y="968"/>
      <point x="-63" y="969"/>
      <point x="-36" y="1052" type="curve"/>
      <point x="321" y="1661"/>
      <point x="653" y="1690"/>
      <point x="1146" y="1659" type="curve"/>
      <point x="781" y="784"/>
      <point x="712" y="-69"/>
      <point x="715" y="-169" type="curve"/>
      <point x="716" y="-225"/>
      <point x="733" y="-264"/>
    </contour>
    <contour>
      <point x="655.545" y="0" type="move" name="bot"/>
    </contour>
    <contour>
      <point x="655.545" y="1940" type="move" name="top"/>
    </contour>
  </outline>
</glyph>
<glyph name="U" format="1">
  <advance width="1722"/>
  <unicode hex="0055"/>
  <outline>
    <contour>
      <point x="700" y="-160" type="curve" smooth="yes"/>
      <point x="1432.42" y="-128.667"/>
      <point x="1426.43" y="770.515"/>
      <point x="1695" y="1638" type="curve"/>
      <point x="1695" y="1710"/>
      <point x="1679" y="1733"/>
      <point x="1622" y="1733" type="curve"/>
      <point x="1530" y="1733"/>
      <point x="1492" y="1698"/>
      <point x="1487" y="1611" type="curve"/>
      <point x="1343" y="1163"/>
      <point x="1251" y="13"/>
      <point x="709" y="-17" type="curve" smooth="yes"/>
      <point x="398.5" y="-34"/>
      <point x="284.5" y="172"/>
      <point x="298.625" y="489.875" type="curve" smooth="yes"/>
      <point x="312.75" y="807.75"/>
      <point x="455" y="1237.5"/>
      <point x="657" y="1668" type="curve"/>
      <point x="657" y="1722"/>
      <point x="624" y="1727"/>
      <point x="540" y="1727" type="curve"/>
      <point x="468" y="1727"/>
      <point x="453" y="1679"/>
      <point x="424" y="1594" type="curve"/>
      <point x="236.007" y="1172.47"/>
      <point x="123.586" y="771.671"/>
      <point x="122.529" y="459.816" type="curve" smooth="yes"/>
      <point x="121.22" y="73.2897"/>
      <point x="290.993" y="-176.604"/>
    </contour>
    <contour>
      <point x="1527.37" y="-95.2218" type="curve" smooth="yes"/>
      <point x="1628.07" y="-95.2951"/>
      <point x="1743.51" y="-47.4197"/>
      <point x="1846" y="32" type="curve"/>
      <point x="1888" y="85"/>
      <point x="1825" y="142"/>
      <point x="1799" y="122" type="curve"/>
      <point x="1689.38" y="68.7504"/>
      <point x="1605.77" y="45.7816"/>
      <point x="1544.17" y="50.8815" type="curve" smooth="yes"/>
      <point x="1329.25" y="68.6713"/>
      <point x="1382" y="428.008"/>
      <point x="1532" y="1035" type="curve"/>
      <point x="1450" y="985" type="line"/>
      <point x="1125.73" y="187.066"/>
      <point x="1283.19" y="-95.044"/>
    </contour>
    <contour>
      <point x="861" y="0" type="move" name="bot"/>
    </contour>
    <contour>
      <point x="0" y="0" type="move" name="ogonek"/>
    </contour>
    <contour>
      <point x="861" y="1940" type="move" name="top"/>
    </contour>
  </outline>
</glyph>
<glyph name="V" format="1">
  <advance width="1536"/>
  <unicode hex="0056"/>
  <outline>
    <contour>
      <point x="1506" y="1778"/>
      <point x="1670" y="1508"/>
      <point x="1321" y="831" type="curve" smooth="yes"/>
      <point x="1175" y="548"/>
      <point x="931" y="134"/>
      <point x="663" y="103" type="curve" smooth="yes"/>
      <point x="524" y="87"/>
      <point x="433" y="191"/>
      <point x="433" y="478" type="curve" smooth="yes"/>
      <point x="433" y="1014"/>
      <point x="731" y="1406"/>
      <point x="759" y="1444" type="curve" smooth="yes"/>
      <point x="779" y="1471"/>
      <point x="679" y="1575"/>
      <point x="573" y="1422" type="curve" smooth="yes"/>
      <point x="518" y="1343"/>
      <point x="274" y="983"/>
      <point x="274" y="498" type="curve" smooth="yes"/>
      <point x="274" y="129"/>
      <point x="388" y="-57"/>
      <point x="621" y="-57" type="curve"/>
      <point x="940" y="-41"/>
      <point x="1187" y="317"/>
      <point x="1435" y="761" type="curve" smooth="yes"/>
      <point x="1827" y="1463"/>
      <point x="1699" y="1932"/>
      <point x="1438" y="1942" type="curve"/>
      <point x="739" y="1942"/>
      <point x="1104" y="577"/>
      <point x="2113" y="1360" type="curve" smooth="yes"/>
      <point x="2171" y="1405"/>
      <point x="2125" y="1491"/>
      <point x="2072" y="1453" type="curve" smooth="yes"/>
      <point x="1223" y="842"/>
      <point x="1016" y="1778"/>
      <point x="1392" y="1778" type="curve" smooth="yes"/>
    </contour>
    <contour>
      <point x="-114" y="1034"/>
      <point x="-81" y="918"/>
      <point x="-20" y="956" type="curve" smooth="yes"/>
      <point x="650" y="1372" type="line" smooth="yes"/>
      <point x="689" y="1396"/>
      <point x="652" y="1497"/>
      <point x="612" y="1473" type="curve" smooth="yes"/>
      <point x="-53" y="1071" type="line" smooth="yes"/>
    </contour>
  </outline>
</glyph>
<glyph name="W" format="1">
  <advance width="2526.930"/>
  <unicode hex="0057"/>
  <outline>
    <contour>
      <point x="2496" y="1778"/>
      <point x="2660" y="1508"/>
      <point x="2311" y="831" type="curve" smooth="yes"/>
      <point x="2165" y="548"/>
      <point x="1921" y="134"/>
      <point x="1653" y="103" type="curve" smooth="yes"/>
      <point x="1514" y="87"/>
      <point x="1403" y="211"/>
      <point x="1403" y="538" type="curve" smooth="yes"/>
      <point x="1403" y="604"/>
      <point x="1410" y="775"/>
      <point x="1424" y="803" type="curve" smooth="yes"/>
      <point x="1439" y="833"/>
      <point x="1809" y="1424"/>
      <point x="1563" y="1422" type="curve" smooth="yes"/>
      <point x="1447" y="1421"/>
      <point x="1285" y="983"/>
      <point x="1285" y="498" type="curve" smooth="yes"/>
      <point x="1285" y="129"/>
      <point x="1378" y="-57"/>
      <point x="1611" y="-57" type="curve"/>
      <point x="1930" y="-41"/>
      <point x="2177" y="317"/>
      <point x="2425" y="761" type="curve" smooth="yes"/>
      <point x="2817" y="1463"/>
      <point x="2689" y="1932"/>
      <point x="2428" y="1942" type="curve"/>
      <point x="1729" y="1942"/>
      <point x="2094" y="577"/>
      <point x="3103" y="1360" type="curve" smooth="yes"/>
      <point x="3161" y="1405"/>
      <point x="3115" y="1491"/>
      <point x="3062" y="1453" type="curve" smooth="yes"/>
      <point x="2213" y="842"/>
      <point x="2006" y="1778"/>
      <point x="2382" y="1778" type="curve" smooth="yes"/>
    </contour>
    <contour>
      <point x="1359" y="1028" type="line"/>
      <point x="1289" y="831" type="line"/>
      <point x="1143" y="548"/>
      <point x="899" y="134"/>
      <point x="631" y="103" type="curve" smooth="yes"/>
      <point x="492" y="87"/>
      <point x="401" y="191"/>
      <point x="401" y="478" type="curve" smooth="yes"/>
      <point x="401" y="1014"/>
      <point x="699" y="1406"/>
      <point x="727" y="1444" type="curve" smooth="yes"/>
      <point x="747" y="1471"/>
      <point x="647" y="1575"/>
      <point x="541" y="1422" type="curve" smooth="yes"/>
      <point x="486" y="1343"/>
      <point x="242" y="983"/>
      <point x="242" y="498" type="curve" smooth="yes"/>
      <point x="242" y="129"/>
      <point x="356" y="-57"/>
      <point x="589" y="-57" type="curve"/>
      <point x="908" y="-41"/>
      <point x="1155" y="317"/>
      <point x="1403" y="761" type="curve"/>
    </contour>
    <contour>
      <point x="-146" y="1034"/>
      <point x="-113" y="918"/>
      <point x="-52" y="956" type="curve" smooth="yes"/>
      <point x="618" y="1372" type="line" smooth="yes"/>
      <point x="657" y="1396"/>
      <point x="620" y="1497"/>
      <point x="580" y="1473" type="curve" smooth="yes"/>
      <point x="-85" y="1071" type="line" smooth="yes"/>
    </contour>
    <contour>
      <point x="1163" y="0" type="move" name="bot"/>
    </contour>
    <contour>
      <point x="1653" y="1656" type="move" name="top"/>
    </contour>
  </outline>
</glyph>
<glyph name="X" format="1">
  <advance width="1786"/>
  <unicode hex="0058"/>
  <outline>
    <contour>
      <point x="-214" y="-102"/>
      <point x="-220" y="-279"/>
      <point x="-102" y="-279" type="curve" smooth="yes"/>
      <point x="105.896" y="-279"/>
      <point x="270.988" y="-205"/>
      <point x="608.255" y="178.697" type="curve" smooth="yes"/>
      <point x="935.068" y="550.621"/>
      <point x="1459.97" y="1263.49"/>
      <point x="1789.99" y="1598.49" type="curve" smooth="yes"/>
      <point x="1922.27" y="1731.83"/>
      <point x="1735.94" y="1815.96"/>
      <point x="1676.04" y="1718.62" type="curve"/>
      <point x="1344.86" y="1238.29"/>
      <point x="857.014" y="668.471"/>
      <point x="527.617" y="272.196" type="curve" smooth="yes"/>
      <point x="284.82" y="-20"/>
      <point x="121.904" y="-102"/>
      <point x="-124" y="-102" type="curve" smooth="yes"/>
    </contour>
    <contour>
      <point x="-137" y="1360.22"/>
      <point x="-50" y="1288.99"/>
      <point x="-17" y="1318.26" type="curve" smooth="yes"/>
      <point x="383.29" y="1674.5"/>
      <point x="455.557" y="1592.04"/>
      <point x="538.549" y="1395.06" type="curve" smooth="yes"/>
      <point x="1121.54" y="3.06846" type="line" smooth="yes"/>
      <point x="1246.58" y="-296"/>
      <point x="1446" y="-320"/>
      <point x="1668.89" y="-103" type="curve" smooth="yes"/>
      <point x="1988.89" y="210.426" type="line"/>
      <point x="2002.53" y="221.863"/>
      <point x="1912.53" y="292.012"/>
      <point x="1904.05" y="283.536" type="curve" smooth="yes"/>
      <point x="1582.19" y="-20" type="line" smooth="yes"/>
      <point x="1427.17" y="-167"/>
      <point x="1328.21" y="-99"/>
      <point x="1246.51" y="106.841" type="curve" smooth="yes"/>
      <point x="713.511" y="1456.84" type="line" smooth="yes"/>
      <point x="604.156" y="1743.41"/>
      <point x="324.043" y="1835.68"/>
      <point x="-98" y="1400.48" type="curve" smooth="yes"/>
    </contour>
  </outline>
</glyph>
<glyph name="Y" format="1">
  <advance width="1461"/>
  <unicode hex="0059"/>
  <outline>
    <contour>
      <point x="496" y="-705" type="curve" smooth="yes"/>
      <point x="496" y="-468"/>
      <point x="1119.74" y="204.381"/>
      <point x="1703.98" y="614.548" type="curve" smooth="yes"/>
      <point x="1734.31" y="635.863"/>
      <point x="1695.19" y="731.478"/>
      <point x="1663.92" y="710.369" type="curve" smooth="yes"/>
      <point x="1279.88" y="451.346"/>
      <point x="355" y="-350"/>
      <point x="355" y="-802" type="curve" smooth="yes"/>
      <point x="355" y="-898"/>
      <point x="412.177" y="-972"/>
      <point x="515" y="-972" type="curve" smooth="yes"/>
      <point x="866.461" y="-972"/>
      <point x="1029.41" y="-553"/>
      <point x="1256.22" y="321.009" type="curve"/>
      <point x="1533" y="1501" type="line" smooth="yes"/>
      <point x="1560" y="1616"/>
      <point x="1558" y="1670"/>
      <point x="1454" y="1670" type="curve" smooth="yes"/>
      <point x="1419" y="1670"/>
      <point x="1384" y="1636"/>
      <point x="1365" y="1551" type="curve" smooth="yes"/>
      <point x="1153.41" y="606.245" type="line"/>
      <point x="712.951" y="31.1618"/>
      <point x="-174" y="-123"/>
      <point x="524" y="1655" type="curve" smooth="yes"/>
      <point x="538" y="1691"/>
      <point x="502" y="1702"/>
      <point x="464" y="1702" type="curve" smooth="yes"/>
      <point x="405" y="1702"/>
      <point x="381" y="1666"/>
      <point x="361" y="1626" type="curve" smooth="yes"/>
      <point x="-273" y="390"/>
      <point x="297.464" y="-529"/>
      <point x="1133.42" y="469.231" type="curve"/>
      <point x="948.458" y="-347"/>
      <point x="697.219" y="-808"/>
      <point x="583" y="-808" type="curve" smooth="yes"/>
      <point x="536.018" y="-808"/>
      <point x="496" y="-779"/>
    </contour>
  </outline>
</glyph>
<glyph name="Z" format="1">
  <advance width="1265"/>
  <unicode hex="005A"/>
  <outline>
    <contour>
      <point x="1575" y="1728" type="line"/>
      <point x="575" y="834"/>
      <point x="-161" y="185"/>
      <point x="-146" y="68" type="curve" smooth="yes"/>
      <point x="-138" y="5"/>
      <point x="-52" y="-9"/>
      <point x="52" y="116" type="curve"/>
      <point x="486" y="-125"/>
      <point x="932" y="-306"/>
      <point x="1543" y="64" type="curve"/>
      <point x="1594" y="80"/>
      <point x="1532" y="195"/>
      <point x="1490" y="173" type="curve" smooth="yes"/>
      <point x="1125" y="-20"/>
      <point x="827" y="-139"/>
      <point x="138" y="233" type="curve"/>
      <point x="507" y="622"/>
      <point x="1232" y="1239"/>
      <point x="1748" y="1726" type="curve"/>
    </contour>
    <contour>
      <point x="1941" y="1754" type="curve" smooth="yes"/>
      <point x="1942" y="1801"/>
      <point x="1907" y="1839"/>
      <point x="1871" y="1834" type="curve"/>
      <point x="1467" y="1834"/>
      <point x="1024" y="1882"/>
      <point x="669" y="1882" type="curve" smooth="yes"/>
      <point x="59" y="1882"/>
      <point x="-196" y="1595"/>
      <point x="-196" y="1274" type="curve" smooth="yes"/>
      <point x="-196" y="1215"/>
      <point x="-100" y="1195"/>
      <point x="-86" y="1246" type="curve" smooth="yes"/>
      <point x="-10" y="1531"/>
      <point x="84" y="1734"/>
      <point x="661" y="1734" type="curve" smooth="yes"/>
      <point x="867" y="1734"/>
      <point x="1226" y="1684"/>
      <point x="1727" y="1684" type="curve" smooth="yes"/>
      <point x="1927" y="1684"/>
      <point x="1941" y="1712"/>
    </contour>
  </outline>
</glyph>
<glyph name="bracketleft" format="1">
  <advance width="927"/>
  <unicode hex="005B"/>
  <outline>
    <contour>
      <point x="353" y="-162" type="curve" smooth="yes"/>
      <point x="671" y="-162" type="line" smooth="yes"/>
      <point x="728.906" y="-162"/>
      <point x="798" y="-102"/>
      <point x="798" y="-51" type="curve" smooth="yes"/>
      <point x="798" y="-21"/>
      <point x="774.587" y="2"/>
      <point x="745" y="2" type="curve" smooth="yes"/>
      <point x="423.828" y="2" type="line"/>
      <point x="461.655" y="238.151"/>
      <point x="499.536" y="488.441"/>
      <point x="536.331" y="734.444" type="curve" smooth="yes"/>
      <point x="572.163" y="973.673"/>
      <point x="648.593" y="1245.74"/>
      <point x="641.544" y="1473" type="curve"/>
      <point x="958" y="1473" type="line" smooth="yes"/>
      <point x="1005.24" y="1473"/>
      <point x="1058" y="1517.15"/>
      <point x="1058" y="1561" type="curve" smooth="yes"/>
      <point x="1058" y="1603.53"/>
      <point x="1030.54" y="1637"/>
      <point x="989.999" y="1637" type="curve" smooth="yes"/>
      <point x="672" y="1637" type="line" smooth="yes"/>
      <point x="506.843" y="1637"/>
      <point x="443.904" y="1547.66"/>
      <point x="421.616" y="1410.22" type="curve" smooth="yes"/>
      <point x="358.772" y="1021.18"/>
      <point x="321.762" y="632.07"/>
      <point x="257.57" y="252.938" type="curve" smooth="yes"/>
      <point x="238.09" y="139.132"/>
      <point x="206" y="53.56"/>
      <point x="206" y="-53" type="curve" smooth="yes"/>
      <point x="206" y="-134"/>
      <point x="257.261" y="-162"/>
    </contour>
  </outline>
</glyph>
<glyph name="bracketright" format="1">
  <advance width="927"/>
  <unicode hex="005D"/>
  <outline>
    <contour>
      <point x="108" y="-162" type="curve" smooth="yes"/>
      <point x="416" y="-162" type="line" smooth="yes"/>
      <point x="581.157" y="-162"/>
      <point x="644.096" y="-73"/>
      <point x="666.384" y="64.7841" type="curve" smooth="yes"/>
      <point x="729.215" y="453.737"/>
      <point x="764.232" y="843.928"/>
      <point x="830.43" y="1223.06" type="curve" smooth="yes"/>
      <point x="849.92" y="1336.92"/>
      <point x="882" y="1421.5"/>
      <point x="882" y="1528" type="curve" smooth="yes"/>
      <point x="882" y="1608.7"/>
      <point x="830.739" y="1637"/>
      <point x="735" y="1637" type="curve" smooth="yes"/>
      <point x="389" y="1637" type="line" smooth="yes"/>
      <point x="339.569" y="1637"/>
      <point x="294" y="1590.73"/>
      <point x="294" y="1544" type="curve" smooth="yes"/>
      <point x="294" y="1507.14"/>
      <point x="330.707" y="1473"/>
      <point x="369" y="1473" type="curve" smooth="yes"/>
      <point x="663.949" y="1473" type="line"/>
      <point x="551.669" y="740.556" type="line" smooth="yes"/>
      <point x="515.837" y="501.327"/>
      <point x="439.407" y="229.256"/>
      <point x="446.456" y="2" type="curve"/>
      <point x="119" y="2" type="line" smooth="yes"/>
      <point x="76.3638" y="2"/>
      <point x="30" y="-40"/>
      <point x="30" y="-80" type="curve" smooth="yes"/>
      <point x="30" y="-124"/>
      <point x="64.4862" y="-162"/>
    </contour>
  </outline>
</glyph>
<glyph name="a" format="1">
  <advance width="974.004"/>
  <unicode hex="0061"/>
  <outline>
    <contour>
      <point x="275" y="-13" type="curve" smooth="yes"/>
      <point x="438" y="-19"/>
      <point x="623" y="85"/>
      <point x="654" y="267" type="curve"/>
      <point x="628" y="106"/>
      <point x="703" y="0"/>
      <point x="826" y="0" type="curve" smooth="yes"/>
      <point x="974" y="0"/>
      <point x="1125" y="139"/>
      <point x="1194" y="235" type="curve"/>
      <point x="1198" y="242"/>
      <point x="1199" y="246"/>
      <point x="1196" y="279" type="curve"/>
      <point x="1193" y="302"/>
      <point x="1173" y="364"/>
      <point x="1158" y="364" type="curve" smooth="yes"/>
      <point x="1158" y="364"/>
      <point x="1150" y="365"/>
      <point x="1139" y="350" type="curve" smooth="yes"/>
      <point x="1089" y="284"/>
      <point x="961" y="143"/>
      <point x="851" y="143" type="curve" smooth="yes"/>
      <point x="777" y="143"/>
      <point x="748" y="211"/>
      <point x="764" y="290" type="curve" smooth="yes"/>
      <point x="870" y="825" type="line" smooth="yes"/>
      <point x="878" y="865"/>
      <point x="863" y="888"/>
      <point x="821" y="888" type="curve" smooth="yes"/>
      <point x="756" y="888" type="line"/>
      <point x="763" y="923"/>
      <point x="768" y="966"/>
      <point x="648" y="966" type="curve" smooth="yes"/>
      <point x="330" y="966"/>
      <point x="78" y="603"/>
      <point x="59" y="251" type="curve" smooth="yes"/>
      <point x="51" y="99"/>
      <point x="132" y="-8"/>
    </contour>
    <contour>
      <point x="338" y="100" type="curve" smooth="yes"/>
      <point x="234" y="100"/>
      <point x="202" y="202"/>
      <point x="205" y="270" type="curve" smooth="yes"/>
      <point x="224" y="616"/>
      <point x="471" y="874"/>
      <point x="735" y="844" type="curve"/>
      <point x="623" y="437" type="line" smooth="yes"/>
      <point x="597" y="342"/>
      <point x="499" y="100"/>
    </contour>
    <contour>
      <point x="494" y="0" type="move" name="bot"/>
    </contour>
    <contour>
      <point x="-19" y="0" type="move" name="ogonek"/>
    </contour>
    <contour>
      <point x="714" y="953" type="move" name="top"/>
    </contour>
  </outline>
</glyph>
<glyph name="b" format="1">
  <advance width="1086"/>
  <unicode hex="0062"/>
  <outline>
    <contour>
      <point x="502" y="-16" type="curve" smooth="yes"/>
      <point x="810.952" y="-16"/>
      <point x="953.632" y="283.144"/>
      <point x="956.115" y="551.14" type="curve" smooth="yes"/>
      <point x="958.153" y="771.003"/>
      <point x="865.831" y="969.901"/>
      <point x="693.547" y="965.454" type="curve" smooth="yes"/>
      <point x="648.969" y="964.304"/>
      <point x="599.036" y="949.539"/>
      <point x="544" y="918" type="curve"/>
      <point x="716" y="1045"/>
      <point x="1021" y="1393"/>
      <point x="1021" y="1706" type="curve" smooth="yes"/>
      <point x="1021" y="1843"/>
      <point x="951" y="1920"/>
      <point x="849" y="1920" type="curve" smooth="yes"/>
      <point x="449" y="1920"/>
      <point x="159" y="1070"/>
      <point x="130" y="375" type="curve" smooth="yes"/>
      <point x="121" y="167"/>
      <point x="226" y="-16"/>
    </contour>
    <contour>
      <point x="893" y="373" type="curve" smooth="yes"/>
      <point x="1034" y="373"/>
      <point x="1200" y="460"/>
      <point x="1295" y="548" type="curve" smooth="yes"/>
      <point x="1316" y="568"/>
      <point x="1319" y="576"/>
      <point x="1319" y="606" type="curve" smooth="yes"/>
      <point x="1319" y="640"/>
      <point x="1302" y="656"/>
      <point x="1285" y="656" type="curve" smooth="yes"/>
      <point x="1267" y="656"/>
      <point x="1118" y="503"/>
      <point x="957" y="503" type="curve" smooth="yes"/>
      <point x="812" y="505"/>
      <point x="891" y="627"/>
      <point x="796" y="620" type="curve" smooth="yes"/>
      <point x="713" y="614"/>
      <point x="692" y="559"/>
      <point x="692" y="507" type="curve" smooth="yes"/>
      <point x="692" y="426"/>
      <point x="759" y="373"/>
    </contour>
    <contour>
      <point x="500" y="115" type="curve" smooth="yes"/>
      <point x="343" y="115"/>
      <point x="271" y="223"/>
      <point x="271" y="395" type="curve" smooth="yes"/>
      <point x="271" y="594"/>
      <point x="425" y="837"/>
      <point x="630" y="837" type="curve" smooth="yes"/>
      <point x="808" y="837"/>
      <point x="817" y="656"/>
      <point x="817" y="527" type="curve" smooth="yes"/>
      <point x="817" y="345"/>
      <point x="679" y="115"/>
    </contour>
    <contour>
      <point x="313" y="792" type="curve"/>
      <point x="429" y="1325"/>
      <point x="626" y="1756"/>
      <point x="806" y="1756" type="curve" smooth="yes"/>
      <point x="856" y="1756"/>
      <point x="876" y="1720"/>
      <point x="876" y="1678" type="curve" smooth="yes"/>
      <point x="876" y="1339"/>
      <point x="349" y="833"/>
    </contour>
    <contour>
      <point x="543" y="953" type="move" name="top"/>
    </contour>
  </outline>
</glyph>
<glyph name="c" format="1">
  <advance width="877.997"/>
  <unicode hex="0063"/>
  <outline>
    <contour>
      <point x="445" y="-16" type="curve" smooth="yes"/>
      <point x="757" y="-32"/>
      <point x="1004" y="172"/>
      <point x="1111" y="358" type="curve" smooth="yes"/>
      <point x="1132" y="395"/>
      <point x="1098" y="453"/>
      <point x="1072" y="425" type="curve" smooth="yes"/>
      <point x="916" y="258"/>
      <point x="704" y="93"/>
      <point x="480" y="109" type="curve" smooth="yes"/>
      <point x="345" y="119"/>
      <point x="272" y="236"/>
      <point x="274" y="395" type="curve" smooth="yes"/>
      <point x="278" y="696"/>
      <point x="494" y="833"/>
      <point x="599" y="831" type="curve" smooth="yes"/>
      <point x="668" y="829"/>
      <point x="704" y="784"/>
      <point x="705" y="725" type="curve" smooth="yes"/>
      <point x="705" y="682"/>
      <point x="686" y="631"/>
      <point x="647" y="584" type="curve" smooth="yes"/>
      <point x="620" y="551"/>
      <point x="676" y="477"/>
      <point x="739" y="532" type="curve" smooth="yes"/>
      <point x="781" y="568"/>
      <point x="827" y="624"/>
      <point x="832" y="742" type="curve" smooth="yes"/>
      <point x="839" y="876"/>
      <point x="738" y="966"/>
      <point x="594" y="966" type="curve" smooth="yes"/>
      <point x="348" y="966"/>
      <point x="131" y="688"/>
      <point x="106" y="410" type="curve" smooth="yes"/>
      <point x="85" y="184"/>
      <point x="224" y="-5"/>
    </contour>
    <contour>
      <point x="434" y="0" type="move" name="bot"/>
    </contour>
    <contour>
      <point x="434" y="953" type="move" name="top"/>
    </contour>
  </outline>
</glyph>
<glyph name="d" format="1">
  <advance width="1156"/>
  <unicode hex="0064"/>
  <outline>
    <contour>
      <point x="336" y="-16" type="curve"/>
      <point x="502" y="-16"/>
      <point x="628" y="94"/>
      <point x="675" y="212" type="curve"/>
      <point x="713" y="35"/>
      <point x="819" y="-8"/>
      <point x="949" y="-8" type="curve"/>
      <point x="1155" y="-8"/>
      <point x="1279" y="123"/>
      <point x="1372" y="239" type="curve"/>
      <point x="1380" y="250"/>
      <point x="1392" y="271"/>
      <point x="1390" y="290" type="curve"/>
      <point x="1388" y="324"/>
      <point x="1360" y="346"/>
      <point x="1332" y="345" type="curve"/>
      <point x="1314" y="345"/>
      <point x="1308" y="337"/>
      <point x="1293" y="321" type="curve"/>
      <point x="1242" y="257"/>
      <point x="1119" y="135"/>
      <point x="978" y="135" type="curve"/>
      <point x="873" y="135"/>
      <point x="808" y="220"/>
      <point x="819" y="436" type="curve"/>
      <point x="1046" y="771"/>
      <point x="1450" y="1312"/>
      <point x="1419" y="1757" type="curve"/>
      <point x="1413" y="1843"/>
      <point x="1342" y="1921"/>
      <point x="1244" y="1921" type="curve"/>
      <point x="972" y="1921"/>
      <point x="788" y="1509"/>
      <point x="704" y="930" type="curve"/>
      <point x="408" y="1063"/>
      <point x="55" y="628"/>
      <point x="80" y="267" type="curve"/>
      <point x="91" y="102"/>
      <point x="194" y="-2"/>
    </contour>
    <contour>
      <point x="386" y="118" type="curve"/>
      <point x="341" y="118"/>
      <point x="239" y="155"/>
      <point x="229" y="297" type="curve"/>
      <point x="212" y="542"/>
      <point x="437" y="894"/>
      <point x="700" y="820" type="curve"/>
      <point x="662" y="533" type="line"/>
      <point x="631" y="334"/>
      <point x="500" y="118"/>
    </contour>
    <contour>
      <point x="812" y="619" type="curve"/>
      <point x="871" y="1027"/>
      <point x="978" y="1740"/>
      <point x="1193" y="1740" type="curve"/>
      <point x="1231" y="1740"/>
      <point x="1270" y="1717"/>
      <point x="1274" y="1649" type="curve"/>
      <point x="1294" y="1364"/>
      <point x="1080" y="1013"/>
    </contour>
    <contour>
      <point x="562" y="953" type="move" name="top"/>
    </contour>
  </outline>
</glyph>
<glyph name="e" format="1">
  <advance width="815.048"/>
  <unicode hex="0065"/>
  <outline>
    <contour>
      <point x="430" y="-17" type="curve" smooth="yes"/>
      <point x="689" y="-26"/>
      <point x="873" y="125"/>
      <point x="961" y="245" type="curve"/>
      <point x="1002" y="300"/>
      <point x="941" y="344"/>
      <point x="921" y="324" type="curve"/>
      <point x="610" y="16"/>
      <point x="270" y="34"/>
      <point x="210" y="315" type="curve"/>
      <point x="557" y="364"/>
      <point x="775" y="537"/>
      <point x="775" y="746" type="curve"/>
      <point x="775" y="883"/>
      <point x="657" y="967"/>
      <point x="518" y="967" type="curve"/>
      <point x="257" y="967"/>
      <point x="61" y="699"/>
      <point x="61" y="385" type="curve"/>
      <point x="60" y="148"/>
      <point x="222" y="-10"/>
    </contour>
    <contour>
      <point x="206" y="412" type="curve"/>
      <point x="206" y="595"/>
      <point x="353" y="846"/>
      <point x="530" y="846" type="curve"/>
      <point x="589" y="846"/>
      <point x="654" y="802"/>
      <point x="644" y="709" type="curve"/>
      <point x="630" y="563"/>
      <point x="363" y="423"/>
    </contour>
    <contour>
      <point x="370" y="0" type="move" name="bot"/>
    </contour>
    <contour>
      <point x="597" y="0" type="move" name="ogonek"/>
    </contour>
    <contour>
      <point x="480" y="953" type="move" name="top"/>
    </contour>
  </outline>
</glyph>
<glyph name="f" format="1">
  <advance width="706"/>
  <unicode hex="0066"/>
  <outline>
    <contour>
      <point x="289" y="-607" type="curve" smooth="yes"/>
      <point x="523" y="-607"/>
      <point x="622" y="-259"/>
      <point x="622" y="-29" type="curve" smooth="yes"/>
      <point x="622" y="168"/>
      <point x="547" y="326"/>
      <point x="487" y="456" type="curve"/>
      <point x="667" y="425"/>
      <point x="960" y="464"/>
      <point x="979" y="652" type="curve" smooth="yes"/>
      <point x="981" y="673"/>
      <point x="980" y="691"/>
      <point x="966" y="691" type="curve" smooth="yes"/>
      <point x="955" y="691"/>
      <point x="927" y="677"/>
      <point x="877" y="648" type="curve" smooth="yes"/>
      <point x="812" y="612"/>
      <point x="724" y="557"/>
      <point x="578" y="557" type="curve" smooth="yes"/>
      <point x="530" y="557"/>
      <point x="426" y="570"/>
      <point x="391" y="603" type="curve"/>
      <point x="702" y="976"/>
      <point x="1020" y="1376"/>
      <point x="1020" y="1722" type="curve" smooth="yes"/>
      <point x="1020" y="1846"/>
      <point x="956" y="1924"/>
      <point x="850" y="1924" type="curve" smooth="yes"/>
      <point x="324" y="1924"/>
      <point x="83" y="515"/>
      <point x="83" y="-38" type="curve" smooth="yes"/>
      <point x="83" y="-273"/>
      <point x="111" y="-607"/>
    </contour>
    <contour>
      <point x="321" y="-442" type="curve" smooth="yes"/>
      <point x="244" y="-442"/>
      <point x="242" y="-195"/>
      <point x="242" y="-47" type="curve" smooth="yes"/>
      <point x="242" y="179"/>
      <point x="254" y="321"/>
      <point x="279" y="548" type="curve"/>
      <point x="369" y="413"/>
      <point x="471" y="251"/>
      <point x="471" y="-57" type="curve" smooth="yes"/>
      <point x="471" y="-62" type="line" smooth="yes"/>
      <point x="471" y="-173"/>
      <point x="470" y="-442"/>
    </contour>
    <contour>
      <point x="294" y="664" type="curve"/>
      <point x="321" y="757"/>
      <point x="553" y="1759"/>
      <point x="813" y="1759" type="curve" smooth="yes"/>
      <point x="880" y="1759"/>
      <point x="893" y="1686"/>
      <point x="893" y="1627" type="curve" smooth="yes"/>
      <point x="893" y="1348"/>
      <point x="532" y="953"/>
    </contour>
    <contour>
      <point x="353" y="953" type="move" name="top"/>
    </contour>
  </outline>
</glyph>
<glyph name="g" format="1">
  <advance width="1001"/>
  <unicode hex="0067"/>
  <outline>
    <contour>
      <point x="125" y="-940" type="curve" smooth="yes"/>
      <point x="301" y="-940"/>
      <point x="426" y="-847"/>
      <point x="520" y="-691" type="curve" smooth="yes"/>
      <point x="614" y="-534"/>
      <point x="676" y="-313"/>
      <point x="725" y="-57" type="curve"/>
      <point x="936" y="88"/>
      <point x="1033" y="166"/>
      <point x="1172" y="236" type="curve"/>
      <point x="1261" y="299"/>
      <point x="1206" y="374"/>
      <point x="1139" y="360" type="curve"/>
      <point x="993" y="289"/>
      <point x="890" y="192"/>
      <point x="733" y="74" type="curve"/>
      <point x="903" y="826" type="line" smooth="yes"/>
      <point x="913" y="875"/>
      <point x="839" y="903"/>
      <point x="787" y="880" type="curve"/>
      <point x="787" y="880"/>
      <point x="819" y="948"/>
      <point x="664" y="951" type="curve" smooth="yes"/>
      <point x="362" y="959"/>
      <point x="87" y="628"/>
      <point x="87" y="277" type="curve" smooth="yes"/>
      <point x="87" y="134"/>
      <point x="200" y="35"/>
      <point x="322" y="26" type="curve" smooth="yes"/>
      <point x="441" y="17"/>
      <point x="564" y="82"/>
      <point x="629" y="212" type="curve"/>
      <point x="575" y="-7" type="line"/>
      <point x="457" y="-97"/>
      <point x="297" y="-218"/>
      <point x="167" y="-346" type="curve" smooth="yes"/>
      <point x="37" y="-475"/>
      <point x="-63" y="-612"/>
      <point x="-63" y="-735" type="curve" smooth="yes"/>
      <point x="-63" y="-855"/>
      <point x="-10" y="-940"/>
    </contour>
    <contour>
      <point x="376" y="158" type="curve" smooth="yes"/>
      <point x="269" y="158"/>
      <point x="243" y="252"/>
      <point x="243" y="320" type="curve" smooth="yes"/>
      <point x="243" y="576"/>
      <point x="441" y="855"/>
      <point x="731" y="826" type="curve"/>
      <point x="631" y="462" type="line" smooth="yes"/>
      <point x="605" y="368"/>
      <point x="540" y="158"/>
    </contour>
    <contour>
      <point x="136" y="-812" type="curve" smooth="yes"/>
      <point x="83" y="-812"/>
      <point x="64" y="-762"/>
      <point x="64" y="-727" type="curve" smooth="yes"/>
      <point x="64" y="-563"/>
      <point x="347" y="-321"/>
      <point x="552" y="-151" type="curve"/>
      <point x="493" y="-402"/>
      <point x="399" y="-812"/>
    </contour>
  </outline>
</glyph>
<glyph name="h" format="1">
  <advance width="1117.960"/>
  <unicode hex="0068"/>
  <outline>
    <contour>
      <point x="174" y="2" type="curve" smooth="yes"/>
      <point x="260" y="-35"/>
      <point x="309" y="26"/>
      <point x="341" y="95" type="curve" smooth="yes"/>
      <point x="449" y="330"/>
      <point x="592" y="514"/>
      <point x="697" y="613" type="curve" smooth="yes"/>
      <point x="1074" y="968"/>
      <point x="736" y="575"/>
      <point x="714" y="203" type="curve" smooth="yes"/>
      <point x="707" y="87"/>
      <point x="759" y="2"/>
      <point x="881" y="0" type="curve" smooth="yes"/>
      <point x="1065" y="-3"/>
      <point x="1225" y="122"/>
      <point x="1332" y="206" type="curve" smooth="yes"/>
      <point x="1369" y="235"/>
      <point x="1381" y="264"/>
      <point x="1377" y="296" type="curve" smooth="yes"/>
      <point x="1373" y="338"/>
      <point x="1344" y="370"/>
      <point x="1327" y="370" type="curve" smooth="yes"/>
      <point x="1311" y="370"/>
      <point x="1299" y="358"/>
      <point x="1277" y="336" type="curve" smooth="yes"/>
      <point x="1235" y="293"/>
      <point x="1081" y="134"/>
      <point x="946" y="134" type="curve" smooth="yes"/>
      <point x="913" y="134"/>
      <point x="881" y="150"/>
      <point x="877" y="183" type="curve" smooth="yes"/>
      <point x="862" y="325"/>
      <point x="996" y="661"/>
      <point x="1051" y="780" type="curve" smooth="yes"/>
      <point x="1083" y="866"/>
      <point x="1036" y="955"/>
      <point x="946" y="955" type="curve" smooth="yes"/>
      <point x="857" y="955"/>
      <point x="527" y="736"/>
      <point x="267" y="210" type="curve"/>
      <point x="286" y="622" type="line"/>
      <point x="837" y="1102"/>
      <point x="1009" y="1472"/>
      <point x="1021" y="1697" type="curve"/>
      <point x="1020" y="1830"/>
      <point x="943" y="1920"/>
      <point x="806" y="1920" type="curve" smooth="yes"/>
      <point x="321" y="1920"/>
      <point x="118" y="872"/>
      <point x="122" y="311" type="curve" smooth="yes"/>
      <point x="122" y="218"/>
      <point x="109" y="30"/>
    </contour>
    <contour>
      <point x="296" y="774" type="curve"/>
      <point x="338" y="1254"/>
      <point x="606" y="1792"/>
      <point x="783" y="1761" type="curve" smooth="yes"/>
      <point x="839" y="1751"/>
      <point x="859" y="1715"/>
      <point x="861" y="1660" type="curve"/>
      <point x="861" y="1480"/>
      <point x="556" y="1020"/>
    </contour>
  </outline>
</glyph>
<glyph name="i" format="1">
  <advance width="205"/>
  <unicode hex="0069"/>
  <outline>
    <contour>
      <point x="111" y="0" type="curve" smooth="yes"/>
      <point x="161" y="-6"/>
      <point x="217" y="21"/>
      <point x="269" y="83" type="curve"/>
      <point x="275" y="92"/>
      <point x="276" y="96"/>
      <point x="277" y="101" type="curve" smooth="yes"/>
      <point x="277" y="111"/>
      <point x="267" y="120"/>
      <point x="255" y="120" type="curve" smooth="yes"/>
      <point x="251" y="119"/>
      <point x="248" y="116"/>
      <point x="245" y="113" type="curve" smooth="yes"/>
      <point x="163" y="20"/>
      <point x="88" y="21"/>
      <point x="91" y="98" type="curve" smooth="yes"/>
      <point x="93" y="148"/>
      <point x="132" y="249"/>
      <point x="157" y="297" type="curve" smooth="yes"/>
      <point x="163" y="307"/>
      <point x="164" y="321"/>
      <point x="143" y="325" type="curve" smooth="yes"/>
      <point x="123" y="330"/>
      <point x="115" y="323"/>
      <point x="103" y="301" type="curve" smooth="yes"/>
      <point x="76" y="250"/>
      <point x="38" y="147"/>
      <point x="38" y="88" type="curve" smooth="yes"/>
      <point x="38" y="40"/>
      <point x="67" y="7"/>
    </contour>
    <contour>
      <point x="191" y="412" type="curve" smooth="yes"/>
      <point x="218" y="412"/>
      <point x="235" y="430"/>
      <point x="235" y="454" type="curve" smooth="yes"/>
      <point x="235" y="472"/>
      <point x="221" y="485"/>
      <point x="198" y="485" type="curve" smooth="yes"/>
      <point x="171" y="485"/>
      <point x="151" y="470"/>
      <point x="151" y="446" type="curve" smooth="yes"/>
      <point x="151" y="423"/>
      <point x="166" y="412"/>
    </contour>
    <contour>
      <point x="0" y="0" type="move" name="ogonek"/>
    </contour>
  </outline>
</glyph>
<glyph name="j" format="1">
  <advance width="666"/>
  <unicode hex="006A"/>
  <outline>
    <contour>
      <point x="235" y="-607" type="curve" smooth="yes"/>
      <point x="459" y="-640"/>
      <point x="578" y="-338"/>
      <point x="581" y="-54" type="curve" smooth="yes"/>
      <point x="583" y="119"/>
      <point x="553" y="309"/>
      <point x="483" y="394" type="curve"/>
      <point x="704" y="411"/>
      <point x="920" y="438"/>
      <point x="920" y="599" type="curve" smooth="yes"/>
      <point x="920" y="624"/>
      <point x="915" y="631"/>
      <point x="896" y="621" type="curve"/>
      <point x="785" y="570"/>
      <point x="640" y="506"/>
      <point x="337" y="506" type="curve"/>
      <point x="443" y="743" type="line"/>
      <point x="466" y="795"/>
      <point x="500" y="866"/>
      <point x="504" y="924" type="curve" smooth="yes"/>
      <point x="506" y="945"/>
      <point x="496" y="956"/>
      <point x="474" y="956" type="curve" smooth="yes"/>
      <point x="407" y="956"/>
      <point x="372" y="927"/>
      <point x="333" y="835" type="curve" smooth="yes"/>
      <point x="236" y="608"/>
      <point x="86" y="272"/>
      <point x="62.8815" y="-3" type="curve" smooth="yes"/>
      <point x="40" y="-270"/>
      <point x="64" y="-582"/>
    </contour>
    <contour>
      <point x="277" y="-485" type="curve" smooth="yes"/>
      <point x="209" y="-485"/>
      <point x="184" y="-367"/>
      <point x="194" y="-139" type="curve" smooth="yes"/>
      <point x="204" y="95"/>
      <point x="287" y="363"/>
      <point x="319" y="455" type="curve"/>
      <point x="439" y="332"/>
      <point x="452" y="175"/>
      <point x="452" y="-22" type="curve" smooth="yes"/>
      <point x="452" y="-270"/>
      <point x="380" y="-485"/>
    </contour>
    <contour>
      <point x="562" y="1182" type="curve" smooth="yes"/>
      <point x="656.567" y="1182"/>
      <point x="716" y="1235.44"/>
      <point x="716" y="1331" type="curve" smooth="yes"/>
      <point x="716" y="1408.27"/>
      <point x="665.484" y="1441"/>
      <point x="586" y="1441" type="curve" smooth="yes"/>
      <point x="489.811" y="1441"/>
      <point x="420" y="1388.79"/>
      <point x="420" y="1304" type="curve" smooth="yes"/>
      <point x="420" y="1221.59"/>
      <point x="469.363" y="1182"/>
    </contour>
  </outline>
</glyph>
<glyph name="k" format="1">
  <advance width="1227"/>
  <unicode hex="006B"/>
  <outline>
    <contour>
      <point x="873" y="-9" type="curve" smooth="yes"/>
      <point x="1037" y="-9"/>
      <point x="1259" y="104"/>
      <point x="1425" y="350" type="curve" smooth="yes"/>
      <point x="1457" y="397"/>
      <point x="1434" y="472"/>
      <point x="1387" y="472" type="curve" smooth="yes"/>
      <point x="1385" y="472"/>
      <point x="1156" y="123"/>
      <point x="904" y="123" type="curve" smooth="yes"/>
      <point x="854" y="123"/>
      <point x="817" y="154"/>
      <point x="818" y="208" type="curve"/>
      <point x="839" y="386"/>
      <point x="1216" y="485"/>
      <point x="1193" y="765" type="curve" smooth="yes"/>
      <point x="1182" y="888"/>
      <point x="1107" y="963"/>
      <point x="987" y="963" type="curve" smooth="yes"/>
      <point x="834" y="963"/>
      <point x="713" y="906"/>
      <point x="281" y="216" type="curve"/>
      <point x="280" y="313"/>
      <point x="294" y="474"/>
      <point x="312" y="611" type="curve"/>
      <point x="563" y="804"/>
      <point x="1029" y="1326"/>
      <point x="1029" y="1729" type="curve" smooth="yes"/>
      <point x="1029" y="1837"/>
      <point x="950" y="1926"/>
      <point x="845" y="1926" type="curve" smooth="yes"/>
      <point x="510" y="1926"/>
      <point x="182" y="1139"/>
      <point x="147" y="329" type="curve"/>
      <point x="147" y="23"/>
      <point x="186" y="-10"/>
      <point x="224" y="-10" type="curve" smooth="yes"/>
      <point x="366" y="-10"/>
      <point x="707" y="800"/>
      <point x="940" y="819" type="curve" smooth="yes"/>
      <point x="1025" y="826"/>
      <point x="1042" y="754"/>
      <point x="1042" y="710" type="curve" smooth="yes"/>
      <point x="1042" y="582"/>
      <point x="654" y="403"/>
      <point x="654" y="177" type="curve" smooth="yes"/>
      <point x="654" y="17"/>
      <point x="776" y="-9"/>
    </contour>
    <contour>
      <point x="342" y="773" type="curve"/>
      <point x="420" y="1197"/>
      <point x="600" y="1723"/>
      <point x="790" y="1730" type="curve"/>
      <point x="846" y="1730"/>
      <point x="870" y="1696"/>
      <point x="870" y="1641" type="curve" smooth="yes"/>
      <point x="872" y="1422"/>
      <point x="498" y="871"/>
    </contour>
  </outline>
</glyph>
<glyph name="l" format="1">
  <advance width="661.002"/>
  <unicode hex="006C"/>
  <outline>
    <contour>
      <point x="410" y="-2" type="curve"/>
      <point x="566" y="-2"/>
      <point x="757" y="97"/>
      <point x="914" y="272" type="curve"/>
      <point x="983" y="349"/>
      <point x="891" y="412"/>
      <point x="855" y="372" type="curve"/>
      <point x="753" y="256"/>
      <point x="574" y="124"/>
      <point x="459" y="124" type="curve"/>
      <point x="272" y="124"/>
      <point x="280" y="345"/>
      <point x="304" y="539" type="curve"/>
      <point x="608" y="774"/>
      <point x="981" y="1314"/>
      <point x="1012" y="1729" type="curve"/>
      <point x="1020" y="1836"/>
      <point x="955" y="1921"/>
      <point x="845" y="1921" type="curve"/>
      <point x="451" y="1921"/>
      <point x="180" y="1023"/>
      <point x="141" y="524" type="curve"/>
      <point x="117" y="190"/>
      <point x="185" y="-2"/>
    </contour>
    <contour>
      <point x="313" y="676" type="curve"/>
      <point x="331" y="904"/>
      <point x="534" y="1741"/>
      <point x="777" y="1741" type="curve"/>
      <point x="831" y="1741"/>
      <point x="857" y="1707"/>
      <point x="857" y="1651" type="curve"/>
      <point x="857" y="1375"/>
      <point x="510" y="878"/>
    </contour>
  </outline>
</glyph>
<glyph name="m" format="1">
  <advance width="1424.909"/>
  <unicode hex="006D"/>
  <outline>
    <contour>
      <point x="1194" y="-7" type="curve" smooth="yes"/>
      <point x="1322" y="-6"/>
      <point x="1485" y="64"/>
      <point x="1628" y="263" type="curve"/>
      <point x="1662" y="299"/>
      <point x="1572" y="378"/>
      <point x="1543" y="330" type="curve"/>
      <point x="1476" y="256"/>
      <point x="1362" y="129"/>
      <point x="1264" y="127" type="curve" smooth="yes"/>
      <point x="1206" y="126"/>
      <point x="1192" y="163"/>
      <point x="1192" y="230" type="curve" smooth="yes"/>
      <point x="1192" y="436"/>
      <point x="1320" y="649"/>
      <point x="1320" y="882" type="curve" smooth="yes"/>
      <point x="1320" y="935"/>
      <point x="1292" y="961"/>
      <point x="1256" y="961" type="curve" smooth="yes"/>
      <point x="1212" y="961"/>
      <point x="1160" y="937"/>
      <point x="1103" y="884" type="curve" smooth="yes"/>
      <point x="1016" y="804"/>
      <point x="917" y="657"/>
      <point x="816" y="427" type="curve"/>
      <point x="769" y="312" type="line"/>
      <point x="814" y="565"/>
      <point x="849" y="804"/>
      <point x="848" y="885" type="curve" smooth="yes"/>
      <point x="847" y="945"/>
      <point x="818" y="959"/>
      <point x="793" y="959" type="curve" smooth="yes"/>
      <point x="754" y="959"/>
      <point x="706" y="936"/>
      <point x="652" y="890" type="curve" smooth="yes"/>
      <point x="558" y="812"/>
      <point x="449" y="665"/>
      <point x="348" y="449" type="curve"/>
      <point x="295" y="349" type="line"/>
      <point x="336" y="729"/>
      <point x="394" y="818"/>
      <point x="397" y="903" type="curve" smooth="yes"/>
      <point x="398" y="961"/>
      <point x="361" y="964"/>
      <point x="337" y="964" type="curve" smooth="yes"/>
      <point x="291" y="965"/>
      <point x="251" y="941"/>
      <point x="215" y="830" type="curve" smooth="yes"/>
      <point x="179" y="720"/>
      <point x="147" y="524"/>
      <point x="116" y="180" type="curve" smooth="yes"/>
      <point x="110" y="88"/>
      <point x="127" y="-8"/>
      <point x="207" y="-8" type="curve" smooth="yes"/>
      <point x="291" y="-8"/>
      <point x="288" y="13"/>
      <point x="364" y="186" type="curve" smooth="yes"/>
      <point x="454" y="393"/>
      <point x="657" y="747"/>
      <point x="695" y="721" type="curve"/>
      <point x="708" y="702"/>
      <point x="619" y="312"/>
      <point x="610" y="114" type="curve" smooth="yes"/>
      <point x="605" y="8"/>
      <point x="656" y="-8"/>
      <point x="679" y="-8" type="curve" smooth="yes"/>
      <point x="708" y="-8"/>
      <point x="749" y="-4"/>
      <point x="793" y="116" type="curve" smooth="yes"/>
      <point x="853" y="280"/>
      <point x="1103" y="744"/>
      <point x="1132" y="690" type="curve" smooth="yes"/>
      <point x="1162" y="634"/>
      <point x="1040" y="360"/>
      <point x="1050" y="140" type="curve" smooth="yes"/>
      <point x="1054" y="47"/>
      <point x="1098" y="-8"/>
    </contour>
    <contour>
      <point x="701" y="0" type="move" name="bot"/>
    </contour>
  </outline>
</glyph>
<glyph name="n" format="1">
  <advance width="1083"/>
  <unicode hex="006E"/>
  <outline>
    <contour>
      <point x="859" y="-12" type="curve" smooth="yes"/>
      <point x="965" y="-23"/>
      <point x="1166" y="36"/>
      <point x="1318" y="297" type="curve" smooth="yes"/>
      <point x="1343" y="340"/>
      <point x="1253" y="422"/>
      <point x="1212" y="353" type="curve" smooth="yes"/>
      <point x="1106" y="177"/>
      <point x="1008" y="124"/>
      <point x="937" y="117" type="curve" smooth="yes"/>
      <point x="850" y="109"/>
      <point x="825" y="144"/>
      <point x="833" y="209" type="curve" smooth="yes"/>
      <point x="853" y="382"/>
      <point x="947" y="648"/>
      <point x="1012" y="844" type="curve" smooth="yes"/>
      <point x="1028" y="893"/>
      <point x="986" y="959"/>
      <point x="888" y="959" type="curve" smooth="yes"/>
      <point x="780" y="959"/>
      <point x="483" y="773"/>
      <point x="265" y="225" type="curve"/>
      <point x="274" y="400"/>
      <point x="374" y="791"/>
      <point x="411" y="891" type="curve" smooth="yes"/>
      <point x="422" y="920"/>
      <point x="385" y="955"/>
      <point x="339" y="955" type="curve" smooth="yes"/>
      <point x="291" y="955"/>
      <point x="277" y="923"/>
      <point x="254" y="872" type="curve" smooth="yes"/>
      <point x="176" y="688"/>
      <point x="127" y="385"/>
      <point x="125" y="186" type="curve" smooth="yes"/>
      <point x="124" y="80"/>
      <point x="123" y="0"/>
      <point x="200" y="0" type="curve" smooth="yes"/>
      <point x="275" y="0"/>
      <point x="299" y="13"/>
      <point x="338" y="102" type="curve"/>
      <point x="505" y="568"/>
      <point x="791" y="804"/>
      <point x="824" y="785" type="curve" smooth="yes"/>
      <point x="860" y="764"/>
      <point x="683" y="419"/>
      <point x="679" y="177" type="curve" smooth="yes"/>
      <point x="677" y="62"/>
      <point x="752" y="-1"/>
    </contour>
  </outline>
</glyph>
<glyph name="o" format="1">
  <advance width="896.999"/>
  <unicode hex="006F"/>
  <outline>
    <contour>
      <point x="355" y="-8" type="curve" smooth="yes"/>
      <point x="643" y="-8"/>
      <point x="772" y="285"/>
      <point x="801" y="463" type="curve"/>
      <point x="927" y="462"/>
      <point x="1132" y="564"/>
      <point x="1227" y="737" type="curve" smooth="yes"/>
      <point x="1256" y="790"/>
      <point x="1177" y="852"/>
      <point x="1146" y="810" type="curve" smooth="yes"/>
      <point x="1032" y="657"/>
      <point x="957" y="612"/>
      <point x="817" y="577" type="curve"/>
      <point x="850" y="828"/>
      <point x="755" y="965"/>
      <point x="575" y="965" type="curve" smooth="yes"/>
      <point x="309" y="965"/>
      <point x="74" y="635"/>
      <point x="74" y="331" type="curve" smooth="yes"/>
      <point x="74" y="139"/>
      <point x="175" y="-8"/>
    </contour>
    <contour>
      <point x="414" y="120" type="curve" smooth="yes"/>
      <point x="268" y="110"/>
      <point x="232" y="226"/>
      <point x="232" y="343" type="curve" smooth="yes"/>
      <point x="232" y="580"/>
      <point x="396" y="837"/>
      <point x="576" y="837" type="curve" smooth="yes"/>
      <point x="696" y="837"/>
      <point x="664" y="651"/>
      <point x="664" y="651" type="curve" smooth="yes"/>
      <point x="563" y="625"/>
      <point x="544" y="478"/>
      <point x="661" y="462" type="curve"/>
      <point x="654" y="322"/>
      <point x="553" y="130"/>
    </contour>
    <contour>
      <point x="456" y="0" type="move" name="bot"/>
    </contour>
    <contour>
      <point x="-7" y="0" type="move" name="ogonek"/>
    </contour>
    <contour>
      <point x="553" y="953" type="move" name="top"/>
    </contour>
  </outline>
</glyph>
<glyph name="p" format="1">
  <advance width="935.984"/>
  <unicode hex="0070"/>
  <outline>
    <contour>
      <point x="828" y="360" type="curve"/>
      <point x="931" y="360"/>
      <point x="1121" y="438"/>
      <point x="1209" y="557" type="curve"/>
      <point x="1220" y="576"/>
      <point x="1229" y="596"/>
      <point x="1234" y="620" type="curve"/>
      <point x="1239" y="651"/>
      <point x="1228" y="692"/>
      <point x="1204" y="678" type="curve"/>
      <point x="1195" y="672"/>
      <point x="1170" y="652"/>
      <point x="1152" y="637" type="curve"/>
      <point x="1036" y="541"/>
      <point x="897" y="516"/>
      <point x="849" y="516" type="curve"/>
      <point x="814" y="516"/>
      <point x="782" y="681"/>
      <point x="716" y="681" type="curve"/>
      <point x="711" y="681"/>
      <point x="690" y="687"/>
      <point x="658" y="645" type="curve"/>
      <point x="620" y="592"/>
      <point x="622" y="534"/>
      <point x="634" y="488" type="curve"/>
      <point x="655" y="409"/>
      <point x="701" y="360"/>
    </contour>
    <contour>
      <point x="8" y="-653" type="curve"/>
      <point x="55" y="-653"/>
      <point x="149" y="-624"/>
      <point x="148" y="-584" type="curve" smooth="yes"/>
      <point x="141" y="-299"/>
      <point x="163" y="-34"/>
      <point x="201" y="94" type="curve"/>
      <point x="258" y="37"/>
      <point x="363" y="0"/>
      <point x="418" y="0" type="curve"/>
      <point x="690" y="0"/>
      <point x="861" y="341"/>
      <point x="861" y="616" type="curve"/>
      <point x="861" y="793"/>
      <point x="796" y="953"/>
      <point x="572" y="960" type="curve"/>
      <point x="225" y="973"/>
      <point x="118" y="509"/>
      <point x="66" y="251" type="curve"/>
      <point x="52" y="180"/>
      <point x="-2" y="-182"/>
      <point x="-20" y="-445" type="curve"/>
      <point x="-20" y="-452"/>
      <point x="-24" y="-653"/>
    </contour>
    <contour>
      <point x="434" y="152" type="curve"/>
      <point x="377" y="152"/>
      <point x="309" y="162"/>
      <point x="229" y="227" type="curve"/>
      <point x="244" y="325"/>
      <point x="294" y="830"/>
      <point x="570" y="830" type="curve"/>
      <point x="673" y="830"/>
      <point x="718" y="685"/>
      <point x="718" y="558" type="curve"/>
      <point x="718" y="370"/>
      <point x="615" y="152"/>
    </contour>
    <contour>
      <point x="464" y="0" type="move" name="bot"/>
    </contour>
  </outline>
</glyph>
<glyph name="q" format="1">
  <advance width="975.996"/>
  <unicode hex="0071"/>
  <outline>
    <contour>
      <point x="728" y="687"/>
      <point x="657" y="340"/>
      <point x="580" y="132" type="curve"/>
      <point x="55" y="1"/>
      <point x="170" y="836"/>
      <point x="585" y="836" type="curve" smooth="yes"/>
      <point x="656" y="836"/>
      <point x="752" y="808"/>
      <point x="745" y="772" type="curve" smooth="yes"/>
    </contour>
    <contour>
      <point x="765" y="215" type="line" smooth="yes"/>
      <point x="806" y="360"/>
      <point x="874" y="639"/>
      <point x="903" y="791" type="curve" smooth="yes"/>
      <point x="916" y="857"/>
      <point x="751" y="965"/>
      <point x="571" y="965" type="curve"/>
      <point x="-75" y="941"/>
      <point x="-61" y="-168"/>
      <point x="563" y="14" type="curve"/>
      <point x="509" y="-187"/>
      <point x="420" y="-474"/>
      <point x="343" y="-707" type="curve" smooth="yes"/>
      <point x="323" y="-767"/>
      <point x="469" y="-837"/>
      <point x="495" y="-744" type="curve" smooth="yes"/>
    </contour>
    <contour>
      <point x="507" y="87"/>
      <point x="765" y="253" type="curve"/>
      <point x="891" y="252"/>
      <point x="1137" y="494"/>
      <point x="1223" y="667" type="curve" smooth="yes"/>
      <point x="1249" y="720"/>
      <point x="1167" y="782"/>
      <point x="1138" y="740" type="curve" smooth="yes"/>
      <point x="1032" y="587"/>
      <point x="942" y="432"/>
      <point x="804" y="397" type="curve"/>
      <point x="537" y="536"/>
    </contour>
  </outline>
</glyph>
<glyph name="r" format="1">
  <advance width="298"/>
  <unicode hex="0072"/>
  <outline>
    <contour>
      <point x="75" y="-0" type="curve" smooth="yes"/>
      <point x="96" y="-0"/>
      <point x="97" y="5"/>
      <point x="103" y="19" type="curve"/>
      <point x="167" y="195"/>
      <point x="260" y="326"/>
      <point x="239" y="248" type="curve"/>
      <point x="217" y="182"/>
      <point x="225" y="104"/>
      <point x="292" y="113" type="curve" smooth="yes"/>
      <point x="323" y="117"/>
      <point x="353" y="144"/>
      <point x="368" y="164" type="curve" smooth="yes"/>
      <point x="385" y="185"/>
      <point x="369" y="209"/>
      <point x="351" y="191" type="curve" smooth="yes"/>
      <point x="289" y="129"/>
      <point x="258" y="149"/>
      <point x="274" y="219" type="curve" smooth="yes"/>
      <point x="292" y="291"/>
      <point x="298" y="329"/>
      <point x="254" y="329" type="curve" smooth="yes"/>
      <point x="197" y="329"/>
      <point x="121" y="174"/>
      <point x="101" y="111" type="curve"/>
      <point x="107" y="207"/>
      <point x="130" y="273"/>
      <point x="139" y="307" type="curve" smooth="yes"/>
      <point x="142" y="318"/>
      <point x="133" y="330"/>
      <point x="120" y="330" type="curve" smooth="yes"/>
      <point x="102" y="330"/>
      <point x="95" y="321"/>
      <point x="86" y="292" type="curve" smooth="yes"/>
      <point x="68" y="233"/>
      <point x="49" y="131"/>
      <point x="48" y="63" type="curve" smooth="yes"/>
      <point x="48" y="27"/>
      <point x="47" y="-0"/>
    </contour>
  </outline>
</glyph>
<glyph name="s" format="1">
  <advance width="860"/>
  <unicode hex="0073"/>
  <outline>
    <contour>
      <point x="502" y="-8" type="curve" smooth="yes"/>
      <point x="813" y="-8"/>
      <point x="991" y="133"/>
      <point x="1116" y="279" type="curve"/>
      <point x="1132" y="303"/>
      <point x="1073" y="404"/>
      <point x="1050" y="376" type="curve" smooth="yes"/>
      <point x="1009" y="324"/>
      <point x="896" y="163"/>
      <point x="714" y="125" type="curve"/>
      <point x="895" y="436"/>
      <point x="479" y="700"/>
      <point x="558" y="841" type="curve" smooth="yes"/>
      <point x="615" y="944"/>
      <point x="474" y="1034"/>
      <point x="406" y="904" type="curve" smooth="yes"/>
      <point x="150" y="393"/>
      <point x="86" y="282"/>
      <point x="51" y="205" type="curve"/>
      <point x="77" y="120"/>
      <point x="228" y="-5"/>
    </contour>
    <contour>
      <point x="436" y="108" type="curve" smooth="yes"/>
      <point x="324" y="111"/>
      <point x="235" y="176"/>
      <point x="198" y="227" type="curve"/>
      <point x="249" y="322"/>
      <point x="411" y="628"/>
      <point x="411" y="628" type="curve"/>
      <point x="442" y="690" type="line"/>
      <point x="695" y="318"/>
      <point x="663" y="99"/>
    </contour>
  </outline>
</glyph>
<glyph name="t" format="1">
  <advance width="724.998"/>
  <unicode hex="0074"/>
  <outline>
    <contour>
      <point x="406" y="-35" type="curve"/>
      <point x="568" y="-35"/>
      <point x="744" y="44"/>
      <point x="907" y="220" type="curve"/>
      <point x="979" y="296"/>
      <point x="883" y="360"/>
      <point x="846" y="320" type="curve"/>
      <point x="739" y="204"/>
      <point x="577" y="91"/>
      <point x="457" y="91" type="curve"/>
      <point x="257" y="91"/>
      <point x="299" y="487"/>
      <point x="329" y="684" type="curve"/>
      <point x="661" y="889"/>
      <point x="962" y="1276"/>
      <point x="962" y="1619" type="curve" smooth="yes"/>
      <point x="962" y="1712"/>
      <point x="912" y="1790"/>
      <point x="814" y="1792" type="curve"/>
      <point x="448" y="1796"/>
      <point x="197" y="1034"/>
      <point x="149" y="603" type="curve"/>
      <point x="115" y="261"/>
      <point x="175" y="-35"/>
    </contour>
    <contour>
      <point x="38" y="503" type="curve"/>
      <point x="126" y="539"/>
      <point x="603" y="691"/>
      <point x="797" y="710" type="curve"/>
      <point x="850" y="715"/>
      <point x="845" y="833"/>
      <point x="779" y="824" type="curve"/>
      <point x="625" y="807"/>
      <point x="278" y="708"/>
      <point x="-7" y="589" type="curve"/>
      <point x="-48" y="573"/>
      <point x="-21" y="477"/>
    </contour>
    <contour>
      <point x="333" y="786" type="curve"/>
      <point x="355" y="984"/>
      <point x="511" y="1654"/>
      <point x="794" y="1652" type="curve" smooth="yes"/>
      <point x="836" y="1650"/>
      <point x="835" y="1570"/>
      <point x="830" y="1534" type="curve" smooth="yes"/>
      <point x="793" y="1228"/>
      <point x="545" y="988"/>
    </contour>
    <contour>
      <point x="362.499" y="0" type="move" name="bot"/>
    </contour>
  </outline>
</glyph>
<glyph name="u" format="1">
  <advance width="1015"/>
  <unicode hex="0075"/>
  <outline>
    <contour>
      <point x="157" y="779"/>
      <point x="95" y="550"/>
      <point x="95" y="355" type="curve" smooth="yes"/>
      <point x="95" y="150"/>
      <point x="164" y="4"/>
      <point x="339" y="-15" type="curve" smooth="yes"/>
      <point x="495" y="-32"/>
      <point x="589" y="60"/>
      <point x="662" y="193" type="curve"/>
      <point x="659" y="125"/>
      <point x="686" y="-7"/>
      <point x="817" y="-12" type="curve" smooth="yes"/>
      <point x="966" y="-18"/>
      <point x="1156" y="142"/>
      <point x="1228" y="263" type="curve" smooth="yes"/>
      <point x="1253" y="305"/>
      <point x="1239" y="343"/>
      <point x="1187" y="343" type="curve" smooth="yes"/>
      <point x="1171" y="343"/>
      <point x="1146" y="337"/>
      <point x="1120" y="301" type="curve" smooth="yes"/>
      <point x="1081" y="247"/>
      <point x="950" y="109"/>
      <point x="852" y="102" type="curve" smooth="yes"/>
      <point x="805" y="99"/>
      <point x="769" y="151"/>
      <point x="781" y="283" type="curve" smooth="yes"/>
      <point x="804" y="531"/>
      <point x="911" y="814"/>
      <point x="935" y="892" type="curve" smooth="yes"/>
      <point x="942" y="914"/>
      <point x="923" y="947"/>
      <point x="887" y="953" type="curve" smooth="yes"/>
      <point x="835" y="960"/>
      <point x="797" y="949"/>
      <point x="766" y="830" type="curve" smooth="yes"/>
      <point x="670" y="466" type="line" smooth="yes"/>
      <point x="597" y="190"/>
      <point x="505" y="111"/>
      <point x="392" y="110" type="curve" smooth="yes"/>
      <point x="298" y="109"/>
      <point x="250" y="182"/>
      <point x="248" y="302" type="curve" smooth="yes"/>
      <point x="244" y="553"/>
      <point x="323" y="746"/>
      <point x="391" y="916" type="curve"/>
      <point x="393" y="941"/>
      <point x="369" y="959"/>
      <point x="324" y="959" type="curve" smooth="yes"/>
      <point x="283" y="959"/>
      <point x="262" y="953"/>
      <point x="245" y="925" type="curve" smooth="yes"/>
    </contour>
    <contour>
      <point x="507.5" y="0" type="move" name="bot"/>
    </contour>
    <contour>
      <point x="0" y="0" type="move" name="ogonek"/>
    </contour>
    <contour>
      <point x="604" y="953" type="move" name="top"/>
    </contour>
  </outline>
</glyph>
<glyph name="v" format="1">
  <advance width="841.002"/>
  <unicode hex="0076"/>
  <outline>
    <contour>
      <point x="271" y="-5" type="curve"/>
      <point x="286" y="-5"/>
      <point x="327" y="15"/>
      <point x="348" y="33" type="curve"/>
      <point x="435" y="141"/>
      <point x="570" y="326"/>
      <point x="622" y="453" type="curve"/>
      <point x="616" y="302"/>
      <point x="726" y="253"/>
      <point x="857" y="253" type="curve" smooth="yes"/>
      <point x="937" y="253"/>
      <point x="986" y="262"/>
      <point x="1061" y="287" type="curve" smooth="yes"/>
      <point x="1084" y="295"/>
      <point x="1099" y="318"/>
      <point x="1103" y="340" type="curve" smooth="yes"/>
      <point x="1106" y="361"/>
      <point x="1099" y="382"/>
      <point x="1081" y="390" type="curve" smooth="yes"/>
      <point x="1072" y="394"/>
      <point x="1059" y="394"/>
      <point x="1043" y="390" type="curve" smooth="yes"/>
      <point x="963" y="369"/>
      <point x="929" y="362"/>
      <point x="871" y="362" type="curve" smooth="yes"/>
      <point x="778" y="362"/>
      <point x="719" y="403"/>
      <point x="719" y="528" type="curve"/>
      <point x="729.924" y="650.504"/>
      <point x="796.861" y="813.192"/>
      <point x="827.649" y="883.519" type="curve" smooth="yes"/>
      <point x="836.318" y="903.323"/>
      <point x="842.121" y="915.803"/>
      <point x="843" y="918" type="curve"/>
      <point x="854" y="945"/>
      <point x="787" y="960"/>
      <point x="741" y="960" type="curve"/>
      <point x="712.095" y="960"/>
      <point x="676" y="939"/>
      <point x="655.262" y="896.554" type="curve"/>
      <point x="318" y="221" type="line"/>
      <point x="307" y="212" type="line"/>
      <point x="326.438" y="812.439" type="line"/>
      <point x="326.205" y="905.255"/>
      <point x="308.37" y="966.666"/>
      <point x="247" y="962" type="curve"/>
      <point x="175" y="962"/>
      <point x="164" y="896"/>
      <point x="155" y="808" type="curve"/>
      <point x="146" y="733"/>
      <point x="149" y="606"/>
      <point x="149" y="500" type="curve"/>
      <point x="149" y="255"/>
      <point x="139" y="-5"/>
    </contour>
  </outline>
</glyph>
<glyph name="w" format="1">
  <advance width="1326"/>
  <unicode hex="0077"/>
  <outline>
    <contour>
      <point x="245" y="0" type="curve" smooth="yes"/>
      <point x="260" y="0"/>
      <point x="299" y="17"/>
      <point x="324" y="59" type="curve" smooth="yes"/>
      <point x="399" y="189"/>
      <point x="556" y="451"/>
      <point x="682" y="735" type="curve"/>
      <point x="684" y="318" type="line" smooth="yes"/>
      <point x="685" y="48"/>
      <point x="697" y="0"/>
      <point x="787" y="0" type="curve" smooth="yes"/>
      <point x="881" y="0"/>
      <point x="907" y="78"/>
      <point x="1052" y="347" type="curve"/>
      <point x="1051" y="76"/>
      <point x="1383" y="125"/>
      <point x="1583" y="401" type="curve"/>
      <point x="1605" y="419"/>
      <point x="1560" y="512"/>
      <point x="1527" y="488" type="curve"/>
      <point x="1225" y="159"/>
      <point x="1068" y="305"/>
      <point x="1184" y="608" type="curve" smooth="yes"/>
      <point x="1249" y="778"/>
      <point x="1279" y="850"/>
      <point x="1291" y="878" type="curve" smooth="yes"/>
      <point x="1306" y="918"/>
      <point x="1289" y="949"/>
      <point x="1241" y="957" type="curve" smooth="yes"/>
      <point x="1203" y="963"/>
      <point x="1163" y="958"/>
      <point x="1130" y="883" type="curve" smooth="yes"/>
      <point x="811" y="165" type="line"/>
      <point x="815" y="847" type="line" smooth="yes"/>
      <point x="815" y="919"/>
      <point x="799" y="946"/>
      <point x="761" y="956" type="curve" smooth="yes"/>
      <point x="673" y="980"/>
      <point x="640" y="918"/>
      <point x="597" y="835" type="curve" smooth="yes"/>
      <point x="280" y="226" type="line"/>
      <point x="346" y="892" type="line" smooth="yes"/>
      <point x="349" y="922"/>
      <point x="333" y="948"/>
      <point x="296" y="956" type="curve" smooth="yes"/>
      <point x="246" y="967"/>
      <point x="204" y="947"/>
      <point x="198" y="878" type="curve" smooth="yes"/>
      <point x="142" y="264" type="line" smooth="yes"/>
      <point x="120" y="25"/>
      <point x="156" y="0"/>
    </contour>
    <contour>
      <point x="683.5" y="0" type="move" name="bot"/>
    </contour>
  </outline>
</glyph>
<glyph name="x" format="1">
  <advance width="955"/>
  <unicode hex="0078"/>
  <outline>
    <contour>
      <point x="1110" y="832" type="curve" smooth="yes"/>
      <point x="1151" y="982"/>
      <point x="937" y="1037"/>
      <point x="823" y="893" type="curve" smooth="yes"/>
      <point x="446" y="428" type="line" smooth="yes"/>
      <point x="338" y="294"/>
      <point x="224" y="156"/>
      <point x="151" y="106" type="curve" smooth="yes"/>
      <point x="65" y="47"/>
      <point x="178" y="-104"/>
      <point x="248" y="2" type="curve" smooth="yes"/>
      <point x="317" y="106"/>
      <point x="410" y="222"/>
      <point x="496" y="330" type="curve" smooth="yes"/>
      <point x="850" y="773" type="line" smooth="yes"/>
      <point x="979" y="934"/>
      <point x="1093" y="769"/>
    </contour>
    <contour>
      <point x="789" y="-13" type="curve" smooth="yes"/>
      <point x="1047" y="-88"/>
      <point x="1150" y="182"/>
      <point x="1211" y="286" type="curve" smooth="yes"/>
      <point x="1253" y="357"/>
      <point x="1200" y="419"/>
      <point x="1150" y="351" type="curve" smooth="yes"/>
      <point x="1100" y="284"/>
      <point x="1005" y="93"/>
      <point x="864" y="93" type="curve" smooth="yes"/>
      <point x="706" y="93"/>
      <point x="530" y="381"/>
      <point x="195" y="954" type="curve" smooth="yes"/>
      <point x="182" y="976"/>
      <point x="74" y="927"/>
      <point x="106" y="871" type="curve" smooth="yes"/>
      <point x="409" y="347"/>
      <point x="572" y="50"/>
    </contour>
  </outline>
</glyph>
<glyph name="y" format="1">
  <advance width="1013"/>
  <unicode hex="0079"/>
  <outline>
    <contour>
      <point x="178" y="-941" type="curve" smooth="yes"/>
      <point x="596" y="-941"/>
      <point x="708" y="-413"/>
      <point x="774" y="-62" type="curve"/>
      <point x="977" y="107"/>
      <point x="1091" y="177"/>
      <point x="1230" y="222" type="curve"/>
      <point x="1291" y="235"/>
      <point x="1256" y="363"/>
      <point x="1189" y="349" type="curve" smooth="yes"/>
      <point x="1084" y="326"/>
      <point x="965" y="234"/>
      <point x="791" y="96" type="curve"/>
      <point x="791" y="96"/>
      <point x="837" y="307"/>
      <point x="861" y="425" type="curve" smooth="yes"/>
      <point x="921" y="722"/>
      <point x="967" y="799"/>
      <point x="967" y="929" type="curve" smooth="yes"/>
      <point x="967" y="946"/>
      <point x="951" y="955"/>
      <point x="918" y="955" type="curve" smooth="yes"/>
      <point x="836" y="955"/>
      <point x="797" y="903"/>
      <point x="778" y="836" type="curve"/>
      <point x="778" y="836"/>
      <point x="685" y="474"/>
      <point x="685" y="474" type="curve"/>
      <point x="660" y="381"/>
      <point x="549" y="138"/>
      <point x="396" y="138" type="curve" smooth="yes"/>
      <point x="294" y="138"/>
      <point x="284" y="265"/>
      <point x="284" y="332" type="curve" smooth="yes"/>
      <point x="284" y="466"/>
      <point x="343" y="626"/>
      <point x="392" y="778" type="curve" smooth="yes"/>
      <point x="415" y="842"/>
      <point x="434" y="880"/>
      <point x="434" y="928" type="curve" smooth="yes"/>
      <point x="434" y="953"/>
      <point x="405" y="970"/>
      <point x="395" y="970" type="curve" smooth="yes"/>
      <point x="335" y="970"/>
      <point x="308" y="934"/>
      <point x="286" y="894" type="curve" smooth="yes"/>
      <point x="205" y="741"/>
      <point x="130" y="516"/>
      <point x="130" y="289" type="curve" smooth="yes"/>
      <point x="130" y="146"/>
      <point x="197" y="-2"/>
      <point x="346" y="-2" type="curve" smooth="yes"/>
      <point x="511" y="-2"/>
      <point x="635" y="140"/>
      <point x="667" y="226" type="curve"/>
      <point x="595" y="-23" type="line"/>
      <point x="437" y="-143"/>
      <point x="278" y="-240"/>
      <point x="154" y="-380" type="curve" smooth="yes"/>
      <point x="75.9999" y="-468"/>
      <point x="-54" y="-633"/>
      <point x="-34" y="-772" type="curve" smooth="yes"/>
      <point x="-21" y="-861"/>
      <point x="63" y="-941"/>
    </contour>
    <contour>
      <point x="187" y="-821" type="curve" smooth="yes"/>
      <point x="138" y="-814"/>
      <point x="98" y="-780"/>
      <point x="98" y="-714" type="curve" smooth="yes"/>
      <point x="98" y="-589"/>
      <point x="265" y="-386"/>
      <point x="586" y="-180" type="curve"/>
      <point x="553" y="-296"/>
      <point x="470" y="-863"/>
    </contour>
    <contour>
      <point x="506.5" y="0" type="move" name="bot"/>
    </contour>
  </outline>
</glyph>
<glyph name="z" format="1">
  <advance width="254"/>
  <unicode hex="007A"/>
  <outline>
    <contour>
      <point x="299" y="66" type="curve" smooth="yes"/>
      <point x="317" y="80"/>
      <point x="301" y="110"/>
      <point x="293" y="105" type="curve" smooth="yes"/>
      <point x="158" y="24"/>
      <point x="58" y="27"/>
      <point x="61" y="73" type="curve"/>
      <point x="88" y="106"/>
      <point x="208" y="219"/>
      <point x="237" y="256" type="curve" smooth="yes"/>
      <point x="248" y="269"/>
      <point x="251" y="279"/>
      <point x="251" y="292" type="curve" smooth="yes"/>
      <point x="251" y="310"/>
      <point x="238" y="314"/>
      <point x="227" y="314" type="curve" smooth="yes"/>
      <point x="210" y="314"/>
      <point x="95" y="313"/>
      <point x="36" y="313" type="curve" smooth="yes"/>
      <point x="8" y="313"/>
      <point x="25" y="271"/>
      <point x="36" y="271" type="curve" smooth="yes"/>
      <point x="65" y="271"/>
      <point x="125" y="275"/>
      <point x="191" y="277" type="curve"/>
      <point x="42" y="124" type="line" smooth="yes"/>
      <point x="30" y="111"/>
      <point x="14" y="96"/>
      <point x="10" y="76" type="curve" smooth="yes"/>
      <point x="-8" y="-10"/>
      <point x="144" y="-47"/>
    </contour>
  </outline>
</glyph>
<glyph name="bar" format="1">
  <advance width="1248"/>
  <unicode hex="007C"/>
  <outline>
    <contour>
      <point x="535" y="-29" type="curve"/>
      <point x="632" y="-60"/>
      <point x="713" y="15"/>
      <point x="725" y="103" type="curve" smooth="yes"/>
      <point x="771" y="416"/>
      <point x="818.272" y="768.678"/>
      <point x="866.279" y="1083.73" type="curve" smooth="yes"/>
      <point x="899.52" y="1304.33"/>
      <point x="972" y="1555"/>
      <point x="972" y="1772" type="curve" smooth="yes"/>
      <point x="972" y="1819"/>
      <point x="944" y="1864"/>
      <point x="902" y="1864" type="curve" smooth="yes"/>
      <point x="815" y="1864"/>
      <point x="762" y="1804"/>
      <point x="750" y="1724" type="curve"/>
      <point x="707" y="1461"/>
      <point x="649.679" y="1144.01"/>
      <point x="606.695" y="873.106" type="curve"/>
      <point x="537" y="402"/>
      <point x="443" y="12"/>
    </contour>
  </outline>
</glyph>
<glyph name="braceright" format="1">
  <advance width="426"/>
  <unicode hex="007D"/>
  <outline>
    <contour>
      <point x="181" y="-101" type="curve" smooth="yes"/>
      <point x="269" y="-93"/>
      <point x="290" y="-25"/>
      <point x="300" y="146" type="curve" smooth="yes"/>
      <point x="303" y="203"/>
      <point x="322" y="230"/>
      <point x="395" y="225" type="curve" smooth="yes"/>
      <point x="413" y="224"/>
      <point x="422" y="230"/>
      <point x="424" y="249" type="curve" smooth="yes"/>
      <point x="426" y="265"/>
      <point x="419" y="276"/>
      <point x="407" y="278" type="curve" smooth="yes"/>
      <point x="332" y="285"/>
      <point x="321" y="306"/>
      <point x="321" y="347" type="curve" smooth="yes"/>
      <point x="321" y="405"/>
      <point x="335" y="456"/>
      <point x="335" y="504" type="curve" smooth="yes"/>
      <point x="335" y="593"/>
      <point x="293" y="634"/>
      <point x="162" y="619" type="curve" smooth="yes"/>
      <point x="145" y="617"/>
      <point x="147" y="582"/>
      <point x="168" y="583" type="curve" smooth="yes"/>
      <point x="275" y="589"/>
      <point x="288" y="561"/>
      <point x="288" y="497" type="curve" smooth="yes"/>
      <point x="288" y="445"/>
      <point x="273" y="390"/>
      <point x="273" y="338" type="curve" smooth="yes"/>
      <point x="273" y="285"/>
      <point x="311" y="258"/>
      <point x="362" y="252" type="curve"/>
      <point x="362" y="256" type="line"/>
      <point x="306" y="254"/>
      <point x="257" y="228"/>
      <point x="254" y="166" type="curve" smooth="yes"/>
      <point x="245" y="-5"/>
      <point x="235" y="-55"/>
      <point x="171" y="-62" type="curve" smooth="yes"/>
      <point x="136" y="-66"/>
      <point x="103" y="-54"/>
      <point x="83" y="-47" type="curve" smooth="yes"/>
      <point x="60" y="-40"/>
      <point x="54" y="-69"/>
      <point x="67" y="-76" type="curve" smooth="yes"/>
      <point x="91" y="-91"/>
      <point x="136" y="-104"/>
    </contour>
  </outline>
</glyph>
<glyph name="asciitilde" format="1">
  <advance width="864"/>
  <unicode hex="007E"/>
  <outline>
    <contour>
      <point x="728" y="1315" type="curve" smooth="yes"/>
      <point x="834.859" y="1315"/>
      <point x="953.999" y="1451.52"/>
      <point x="953.999" y="1557" type="curve" smooth="yes"/>
      <point x="953.999" y="1590.73"/>
      <point x="928.382" y="1610"/>
      <point x="891" y="1610" type="curve" smooth="yes"/>
      <point x="799.129" y="1610"/>
      <point x="771.793" y="1491.9"/>
      <point x="709.895" y="1438.96" type="curve"/>
      <point x="593.979" y="1553.74" type="line" smooth="yes"/>
      <point x="533.025" y="1613.66"/>
      <point x="487.427" y="1693"/>
      <point x="392" y="1693" type="curve" smooth="yes"/>
      <point x="285.141" y="1693"/>
      <point x="166" y="1556.48"/>
      <point x="166" y="1451" type="curve" smooth="yes"/>
      <point x="166" y="1417.27"/>
      <point x="191.618" y="1398"/>
      <point x="229" y="1398" type="curve" smooth="yes"/>
      <point x="318.832" y="1398"/>
      <point x="355.985" y="1517.72"/>
      <point x="409.116" y="1570.02" type="curve"/>
      <point x="526.021" y="1454.26" type="line" smooth="yes"/>
      <point x="586.975" y="1394.34"/>
      <point x="632.573" y="1315"/>
    </contour>
  </outline>
</glyph>
<glyph name="exclamdown" format="1">
  <advance width="1184"/>
  <unicode hex="00A1"/>
  <outline>
    <contour>
      <point x="325" y="-12" type="curve" smooth="yes"/>
      <point x="396" y="-22"/>
      <point x="473" y="22"/>
      <point x="515" y="172" type="curve" smooth="yes"/>
      <point x="620" y="550"/>
      <point x="733" y="845"/>
      <point x="833" y="1342" type="curve"/>
      <point x="835" y="1373"/>
      <point x="820" y="1392"/>
      <point x="789" y="1392" type="curve" smooth="yes"/>
      <point x="752" y="1392"/>
      <point x="711" y="1374"/>
      <point x="705" y="1342" type="curve"/>
      <point x="569" y="1021"/>
      <point x="457" y="743"/>
      <point x="347" y="424" type="curve" smooth="yes"/>
      <point x="311" y="320"/>
      <point x="271" y="217"/>
      <point x="271" y="93" type="curve" smooth="yes"/>
      <point x="271" y="45"/>
      <point x="286" y="-6"/>
    </contour>
    <contour>
      <point x="820" y="1531" type="curve" smooth="yes"/>
      <point x="919.321" y="1531"/>
      <point x="973" y="1592.21"/>
      <point x="973" y="1692" type="curve" smooth="yes"/>
      <point x="973" y="1782.42"/>
      <point x="928.728" y="1826"/>
      <point x="839" y="1826" type="curve" smooth="yes"/>
      <point x="741.609" y="1826"/>
      <point x="688" y="1758.65"/>
      <point x="688" y="1663" type="curve" smooth="yes"/>
      <point x="688" y="1575.42"/>
      <point x="732.425" y="1531"/>
    </contour>
  </outline>
</glyph>
<glyph name="cent" format="1">
  <advance width="896"/>
  <unicode hex="00A2"/>
  <outline>
    <contour>
      <point x="480" y="-168" type="curve"/>
      <point x="541" y="-168"/>
      <point x="539" y="-165"/>
      <point x="547" y="-125" type="curve"/>
      <point x="567" y="40" type="line"/>
      <point x="640" y="40"/>
      <point x="776" y="115"/>
      <point x="860" y="184" type="curve"/>
      <point x="873" y="195"/>
      <point x="879" y="204"/>
      <point x="879" y="218" type="curve"/>
      <point x="879" y="261"/>
      <point x="851" y="301"/>
      <point x="829" y="283" type="curve"/>
      <point x="768" y="236"/>
      <point x="652" y="173"/>
      <point x="577" y="164" type="curve"/>
      <point x="598" y="381"/>
      <point x="607" y="594"/>
      <point x="621" y="799" type="curve"/>
      <point x="833" y="784"/>
      <point x="700" y="574"/>
      <point x="797" y="574" type="curve"/>
      <point x="852" y="574"/>
      <point x="881" y="655"/>
      <point x="881" y="729" type="curve"/>
      <point x="881" y="854"/>
      <point x="754" y="918"/>
      <point x="630" y="928" type="curve"/>
      <point x="634" y="1000"/>
      <point x="648" y="1105"/>
      <point x="612" y="1105" type="curve"/>
      <point x="587" y="1105"/>
      <point x="554" y="1101"/>
      <point x="545.885" y="1031.54" type="curve"/>
      <point x="536.628" y="928.174" type="line"/>
      <point x="285.685" y="914.566"/>
      <point x="94" y="691.323"/>
      <point x="94" y="413" type="curve"/>
      <point x="94" y="182.704"/>
      <point x="226.748" y="17.888"/>
      <point x="460.075" y="30.6609" type="curve"/>
      <point x="458.569" y="-40"/>
      <point x="453" y="-52"/>
      <point x="453" y="-89" type="curve"/>
      <point x="453" y="-129"/>
      <point x="456.966" y="-168"/>
    </contour>
    <contour>
      <point x="471.331" y="161.362" type="curve"/>
      <point x="335.176" y="168.445"/>
      <point x="245" y="285"/>
      <point x="245" y="414" type="curve"/>
      <point x="245" y="595"/>
      <point x="366.727" y="759.125"/>
      <point x="524.791" y="791.337" type="curve"/>
      <point x="506.586" y="587.509"/>
      <point x="488.277" y="367.224"/>
    </contour>
  </outline>
</glyph>
<glyph name="brokenbar" format="1">
  <advance width="1025"/>
  <unicode hex="00A6"/>
  <outline>
    <contour>
      <point x="459" y="-132" type="curve"/>
      <point x="509.333" y="-132"/>
      <point x="528.242" y="-110"/>
      <point x="536.416" y="-59" type="curve"/>
      <point x="553.398" y="41.87"/>
      <point x="562.3" y="97.2643"/>
      <point x="593.255" y="341.901" type="curve"/>
      <point x="601.441" y="404.325"/>
      <point x="624" y="502.406"/>
      <point x="624" y="585" type="curve"/>
      <point x="624" y="660.084"/>
      <point x="593.248" y="719"/>
      <point x="533" y="719" type="curve"/>
      <point x="472.728" y="719"/>
      <point x="438.318" y="666.678"/>
      <point x="429.681" y="603.639" type="curve"/>
      <point x="398.282" y="389.922"/>
      <point x="338" y="213.029"/>
      <point x="338" y="0.999999" type="curve"/>
      <point x="338" y="-109"/>
      <point x="375.965" y="-132"/>
    </contour>
    <contour>
      <point x="615" y="973" type="curve"/>
      <point x="673.3" y="973"/>
      <point x="696.998" y="1024.02"/>
      <point x="705.217" y="1091.6" type="curve"/>
      <point x="727.457" y="1275.58"/>
      <point x="778" y="1470.82"/>
      <point x="778" y="1668" type="curve"/>
      <point x="778" y="1748.18"/>
      <point x="750.311" y="1824"/>
      <point x="691" y="1824" type="curve"/>
      <point x="646.021" y="1824"/>
      <point x="616.774" y="1777.69"/>
      <point x="604.232" y="1721.25" type="curve"/>
      <point x="556.595" y="1514.83"/>
      <point x="511" y="1134.21"/>
      <point x="511" y="1097" type="curve"/>
      <point x="511" y="1029"/>
      <point x="553.996" y="973"/>
    </contour>
  </outline>
</glyph>
<glyph name="section" format="1">
  <advance width="492"/>
  <unicode hex="00A7"/>
  <outline>
    <contour>
      <point x="233" y="-37" type="curve" smooth="yes"/>
      <point x="306" y="-37"/>
      <point x="381" y="-6"/>
      <point x="381" y="61" type="curve" smooth="yes"/>
      <point x="381" y="89"/>
      <point x="373" y="106"/>
      <point x="359" y="124" type="curve"/>
      <point x="386" y="142"/>
      <point x="410" y="174"/>
      <point x="410" y="214" type="curve"/>
      <point x="415" y="281"/>
      <point x="363" y="309"/>
      <point x="320" y="332" type="curve"/>
      <point x="297" y="345"/>
      <point x="216" y="371"/>
      <point x="216" y="414" type="curve" smooth="yes"/>
      <point x="216" y="451"/>
      <point x="254" y="468"/>
      <point x="289" y="468" type="curve" smooth="yes"/>
      <point x="332" y="468"/>
      <point x="380" y="448"/>
      <point x="380" y="401" type="curve" smooth="yes"/>
      <point x="380" y="392"/>
      <point x="376" y="384"/>
      <point x="376" y="378" type="curve" smooth="yes"/>
      <point x="376" y="368"/>
      <point x="385" y="361"/>
      <point x="396" y="361" type="curve" smooth="yes"/>
      <point x="415" y="361"/>
      <point x="424" y="379"/>
      <point x="424" y="403" type="curve" smooth="yes"/>
      <point x="424" y="466"/>
      <point x="364" y="509"/>
      <point x="299" y="509" type="curve" smooth="yes"/>
      <point x="226" y="509"/>
      <point x="150" y="482"/>
      <point x="150" y="418" type="curve" smooth="yes"/>
      <point x="150" y="388"/>
      <point x="167" y="371"/>
      <point x="186" y="353" type="curve"/>
      <point x="156" y="336"/>
      <point x="128" y="313"/>
      <point x="128" y="276" type="curve" smooth="yes"/>
      <point x="128" y="237"/>
      <point x="151" y="206"/>
      <point x="179" y="189" type="curve" smooth="yes"/>
      <point x="217" y="167"/>
      <point x="321" y="140"/>
      <point x="321" y="71" type="curve" smooth="yes"/>
      <point x="321" y="29"/>
      <point x="273" y="4"/>
      <point x="235" y="4" type="curve" smooth="yes"/>
      <point x="190" y="4"/>
      <point x="139" y="20"/>
      <point x="139" y="69" type="curve" smooth="yes"/>
      <point x="139" y="89"/>
      <point x="145" y="103"/>
      <point x="145" y="115" type="curve" smooth="yes"/>
      <point x="145" y="119"/>
      <point x="138" y="122"/>
      <point x="126" y="122" type="curve" smooth="yes"/>
      <point x="103" y="122"/>
      <point x="87" y="97"/>
      <point x="87" y="69" type="curve" smooth="yes"/>
      <point x="87" y="-3"/>
      <point x="156" y="-37"/>
    </contour>
    <contour>
      <point x="327" y="163" type="curve"/>
      <point x="315" y="171"/>
      <point x="303" y="179"/>
      <point x="291" y="185" type="curve" smooth="yes"/>
      <point x="266" y="198"/>
      <point x="184" y="233"/>
      <point x="184" y="278" type="curve" smooth="yes"/>
      <point x="184" y="304"/>
      <point x="202" y="322"/>
      <point x="215" y="332" type="curve"/>
      <point x="232" y="322"/>
      <point x="250" y="313"/>
      <point x="267" y="304" type="curve" smooth="yes"/>
      <point x="294" y="291"/>
      <point x="359" y="267"/>
      <point x="354" y="214" type="curve"/>
      <point x="354" y="190"/>
      <point x="338" y="171"/>
    </contour>
  </outline>
</glyph>
<glyph name="dieresis" format="1">
  <advance width="1025"/>
  <unicode hex="00A8"/>
  <outline>
    <contour>
      <point x="312" y="1331" type="curve" smooth="yes"/>
      <point x="385" y="1331"/>
      <point x="425" y="1382"/>
      <point x="425" y="1453" type="curve" smooth="yes"/>
      <point x="425" y="1520"/>
      <point x="390" y="1557"/>
      <point x="324" y="1557" type="curve" smooth="yes"/>
      <point x="251" y="1557"/>
      <point x="213" y="1507"/>
      <point x="213" y="1435" type="curve" smooth="yes"/>
      <point x="213" y="1366"/>
      <point x="246" y="1331"/>
    </contour>
    <contour>
      <point x="740" y="1331" type="curve" smooth="yes"/>
      <point x="813" y="1331"/>
      <point x="853" y="1382"/>
      <point x="853" y="1453" type="curve" smooth="yes"/>
      <point x="853" y="1520"/>
      <point x="818" y="1557"/>
      <point x="752" y="1557" type="curve" smooth="yes"/>
      <point x="679" y="1557"/>
      <point x="641" y="1507"/>
      <point x="641" y="1435" type="curve" smooth="yes"/>
      <point x="641" y="1367"/>
      <point x="676" y="1331"/>
    </contour>
  </outline>
</glyph>
<glyph name="ordfeminine" format="1">
  <advance width="928"/>
  <unicode hex="00AA"/>
  <outline>
    <contour>
      <point x="712" y="824" type="curve" smooth="yes"/>
      <point x="855" y="824"/>
      <point x="1008" y="1014"/>
      <point x="993" y="1058" type="curve"/>
      <point x="977" y="1118" type="line"/>
      <point x="960" y="1187"/>
      <point x="874" y="972"/>
      <point x="739" y="971.999" type="curve" smooth="yes"/>
      <point x="677.562" y="971.999"/>
      <point x="676" y="1040.72"/>
      <point x="676" y="1084" type="curve" smooth="yes"/>
      <point x="676" y="1233.54"/>
      <point x="731" y="1351.54"/>
      <point x="731" y="1487" type="curve" smooth="yes"/>
      <point x="731" y="1541.72"/>
      <point x="705" y="1542"/>
      <point x="681" y="1542" type="curve" smooth="yes"/>
      <point x="568" y="1542"/>
      <point x="627" y="1607"/>
      <point x="569" y="1607" type="curve" smooth="yes"/>
      <point x="532" y="1607"/>
      <point x="476" y="1607"/>
      <point x="400" y="1572" type="curve"/>
      <point x="246.852" y="1505.56"/>
      <point x="89" y="1297.56"/>
      <point x="89" y="1047" type="curve" smooth="yes"/>
      <point x="89" y="922.496"/>
      <point x="163.316" y="827"/>
      <point x="281" y="827" type="curve" smooth="yes"/>
      <point x="407.845" y="827"/>
      <point x="525" y="924"/>
      <point x="558.572" y="992.958" type="curve"/>
      <point x="591.155" y="905.474"/>
      <point x="623.655" y="824"/>
    </contour>
    <contour>
      <point x="353" y="943.999" type="curve" smooth="yes"/>
      <point x="276.643" y="943.999"/>
      <point x="260" y="1024.44"/>
      <point x="260" y="1084" type="curve" smooth="yes"/>
      <point x="260" y="1259.05"/>
      <point x="389.711" y="1519.24"/>
      <point x="584.272" y="1489.69" type="curve"/>
      <point x="525.492" y="1207.98" type="line" smooth="yes"/>
      <point x="508.447" y="1124.76"/>
      <point x="468.027" y="943.999"/>
    </contour>
  </outline>
</glyph>
<glyph name="guillemotleft" format="1">
  <advance width="1440"/>
  <unicode hex="00AB"/>
  <outline>
    <contour>
      <point x="650.403" y="108.706" type="curve" smooth="yes"/>
      <point x="694" y="84"/>
      <point x="789" y="104"/>
      <point x="789" y="158" type="curve" smooth="yes"/>
      <point x="789" y="225"/>
      <point x="720" y="251"/>
      <point x="672.713" y="294.034" type="curve"/>
      <point x="379.323" y="545.978" type="line"/>
      <point x="731.296" y="793.218" type="line" smooth="yes"/>
      <point x="776.19" y="825.869"/>
      <point x="820" y="852.155"/>
      <point x="820" y="896" type="curve" smooth="yes"/>
      <point x="820" y="942.176"/>
      <point x="782.066" y="973.999"/>
      <point x="733" y="973.999" type="curve" smooth="yes"/>
      <point x="659.227" y="973.999"/>
      <point x="608.571" y="908.871"/>
      <point x="546.531" y="863.657" type="curve" smooth="yes"/>
      <point x="439.268" y="787.04"/>
      <point x="217" y="693.404"/>
      <point x="217" y="533" type="curve" smooth="yes"/>
      <point x="217" y="475.888"/>
      <point x="245.384" y="441.017"/>
      <point x="285.215" y="403.129" type="curve" smooth="yes"/>
      <point x="404.495" y="289.863"/>
      <point x="500.303" y="193.077"/>
    </contour>
    <contour>
      <point x="1226.4" y="108.706" type="curve" smooth="yes"/>
      <point x="1270" y="84"/>
      <point x="1365" y="104"/>
      <point x="1365" y="158" type="curve" smooth="yes"/>
      <point x="1365" y="225"/>
      <point x="1296" y="251"/>
      <point x="1248.71" y="294.033" type="curve"/>
      <point x="955.322" y="545.978" type="line"/>
      <point x="1307.3" y="793.218" type="line" smooth="yes"/>
      <point x="1352.19" y="825.869"/>
      <point x="1396" y="852.155"/>
      <point x="1396" y="896" type="curve" smooth="yes"/>
      <point x="1396" y="942.176"/>
      <point x="1358.07" y="973.999"/>
      <point x="1309" y="973.999" type="curve" smooth="yes"/>
      <point x="1235.23" y="973.999"/>
      <point x="1184.57" y="908.871"/>
      <point x="1122.53" y="863.657" type="curve" smooth="yes"/>
      <point x="1015.27" y="787.04"/>
      <point x="793" y="693.404"/>
      <point x="793" y="533" type="curve" smooth="yes"/>
      <point x="793" y="476"/>
      <point x="821" y="441"/>
      <point x="861" y="403" type="curve" smooth="yes"/>
      <point x="980" y="290"/>
      <point x="1076" y="193"/>
    </contour>
  </outline>
</glyph>
<glyph name="logicalnot" format="1">
  <advance width="1216"/>
  <unicode hex="00AC"/>
  <outline>
    <contour>
      <point x="911" y="245" type="curve" smooth="yes"/>
      <point x="961.263" y="245"/>
      <point x="986.463" y="294.501"/>
      <point x="990.044" y="354.477" type="curve" smooth="yes"/>
      <point x="1010" y="691.677" type="line"/>
      <point x="1009.64" y="724.174"/>
      <point x="983.893" y="743"/>
      <point x="940" y="743" type="curve" smooth="yes"/>
      <point x="309" y="743" type="line" smooth="yes"/>
      <point x="246.977" y="743"/>
      <point x="195" y="714.657"/>
      <point x="195" y="666" type="curve" smooth="yes"/>
      <point x="195" y="621.774"/>
      <point x="235.784" y="601"/>
      <point x="293" y="601" type="curve" smooth="yes"/>
      <point x="862.501" y="601" type="line"/>
      <point x="847" y="335.295" type="line"/>
      <point x="847.204" y="283.045"/>
      <point x="869.995" y="245"/>
    </contour>
  </outline>
</glyph>
<glyph name="registered" format="1">
  <advance width="602"/>
  <unicode hex="00AE"/>
  <outline>
    <contour>
      <point x="328" y="140" type="curve" smooth="yes"/>
      <point x="333" y="105"/>
      <point x="378" y="106"/>
      <point x="373" y="145" type="curve"/>
      <point x="347" y="287" type="line"/>
      <point x="322" y="273" type="line"/>
      <point x="387" y="279"/>
      <point x="426" y="312"/>
      <point x="429" y="364" type="curve" smooth="yes"/>
      <point x="432" y="415"/>
      <point x="391" y="431"/>
      <point x="342" y="431" type="curve" smooth="yes"/>
      <point x="324" y="431"/>
      <point x="287" y="428"/>
      <point x="264" y="427" type="curve"/>
      <point x="229" y="311" type="line"/>
      <point x="203" y="315" type="line" smooth="yes"/>
      <point x="196" y="317"/>
      <point x="194" y="311"/>
      <point x="194" y="304" type="curve" smooth="yes"/>
      <point x="194" y="291"/>
      <point x="209" y="283"/>
      <point x="221" y="279" type="curve"/>
      <point x="188" y="165" type="line"/>
      <point x="179" y="130"/>
      <point x="220" y="113"/>
      <point x="230" y="155" type="curve"/>
      <point x="263" y="273" type="line"/>
      <point x="279" y="272"/>
      <point x="296" y="271"/>
      <point x="310" y="271" type="curve"/>
      <point x="313" y="260"/>
      <point x="322" y="180"/>
    </contour>
    <contour>
      <point x="291" y="59" type="curve" smooth="yes"/>
      <point x="168" y="59"/>
      <point x="77" y="123"/>
      <point x="77" y="248" type="curve" smooth="yes"/>
      <point x="77" y="381"/>
      <point x="167" y="505"/>
      <point x="352" y="493" type="curve" smooth="yes"/>
      <point x="458" y="485"/>
      <point x="518" y="422"/>
      <point x="518" y="316" type="curve" smooth="yes"/>
      <point x="518" y="178"/>
      <point x="434" y="59"/>
    </contour>
    <contour>
      <point x="292" y="20" type="curve" smooth="yes"/>
      <point x="420" y="20"/>
      <point x="566" y="119"/>
      <point x="566" y="316" type="curve" smooth="yes"/>
      <point x="566" y="449"/>
      <point x="480" y="523"/>
      <point x="343" y="531" type="curve" smooth="yes"/>
      <point x="169" y="542"/>
      <point x="33" y="423"/>
      <point x="33" y="248" type="curve" smooth="yes"/>
      <point x="33" y="105"/>
      <point x="140" y="20"/>
    </contour>
    <contour>
      <point x="271" y="306" type="curve"/>
      <point x="297" y="397" type="line"/>
      <point x="325" y="397" type="line" smooth="yes"/>
      <point x="369" y="397"/>
      <point x="393" y="391"/>
      <point x="389" y="357" type="curve" smooth="yes"/>
      <point x="384" y="304"/>
      <point x="315" y="302"/>
    </contour>
  </outline>
</glyph>
<glyph name="macron" format="1">
  <advance width="600"/>
  <unicode hex="00AF"/>
  <outline>
    <contour>
      <point x="22" y="2411"/>
      <point x="55" y="2412" type="curve" smooth="yes"/>
      <point x="555" y="2443" type="line" smooth="yes"/>
      <point x="591" y="2445"/>
      <point x="608" y="2475"/>
      <point x="608" y="2501" type="curve"/>
      <point x="608" y="2524"/>
      <point x="598" y="2546"/>
      <point x="552" y="2545" type="curve" smooth="yes"/>
      <point x="61" y="2529" type="line" smooth="yes"/>
      <point x="14" y="2527"/>
      <point x="2" y="2499"/>
      <point x="2" y="2471" type="curve"/>
      <point x="2" y="2431"/>
    </contour>
    <contour>
      <point x="281" y="1940" type="move" name="_top"/>
    </contour>
  </outline>
</glyph>
<glyph name="degree" format="1">
  <advance width="737"/>
  <unicode hex="00B0"/>
  <outline>
    <contour>
      <point x="324" y="1183" type="curve" smooth="yes"/>
      <point x="247.035" y="1183"/>
      <point x="195" y="1241.38"/>
      <point x="195" y="1316" type="curve" smooth="yes"/>
      <point x="195" y="1433"/>
      <point x="296.333" y="1509"/>
      <point x="413" y="1509" type="curve" smooth="yes"/>
      <point x="483.367" y="1509"/>
      <point x="529" y="1454.24"/>
      <point x="529" y="1388" type="curve" smooth="yes"/>
      <point x="529" y="1276.86"/>
      <point x="437.429" y="1183"/>
    </contour>
    <contour>
      <point x="324" y="1075" type="curve" smooth="yes"/>
      <point x="514.897" y="1075"/>
      <point x="652" y="1207.51"/>
      <point x="652" y="1403" type="curve" smooth="yes"/>
      <point x="652" y="1531.31"/>
      <point x="566.06" y="1612"/>
      <point x="440" y="1612" type="curve" smooth="yes"/>
      <point x="256.981" y="1612"/>
      <point x="84" y="1498.16"/>
      <point x="84" y="1317" type="curve" smooth="yes"/>
      <point x="84" y="1165.54"/>
      <point x="178.082" y="1075"/>
    </contour>
  </outline>
</glyph>
<glyph name="plusminus" format="1">
  <advance width="514"/>
  <unicode hex="00B1"/>
  <outline>
    <contour>
      <point x="263" y="94" type="curve" smooth="yes"/>
      <point x="280" y="94"/>
      <point x="289" y="111"/>
      <point x="289" y="133" type="curve" smooth="yes"/>
      <point x="289" y="216" type="line"/>
      <point x="375" y="216" type="line" smooth="yes"/>
      <point x="394" y="216"/>
      <point x="408" y="229"/>
      <point x="408" y="247" type="curve" smooth="yes"/>
      <point x="408" y="260"/>
      <point x="398" y="268"/>
      <point x="381" y="268" type="curve" smooth="yes"/>
      <point x="289" y="268" type="line"/>
      <point x="289" y="359" type="line" smooth="yes"/>
      <point x="289" y="376"/>
      <point x="281" y="387"/>
      <point x="267" y="387" type="curve" smooth="yes"/>
      <point x="249" y="387"/>
      <point x="237" y="372"/>
      <point x="237" y="353" type="curve" smooth="yes"/>
      <point x="237" y="268" type="line"/>
      <point x="155" y="268" type="line" smooth="yes"/>
      <point x="133" y="268"/>
      <point x="116" y="259"/>
      <point x="116" y="242" type="curve" smooth="yes"/>
      <point x="116" y="225"/>
      <point x="132" y="216"/>
      <point x="153" y="216" type="curve" smooth="yes"/>
      <point x="237" y="216" type="line"/>
      <point x="237" y="132" type="line" smooth="yes"/>
      <point x="237" y="111"/>
      <point x="246" y="94"/>
    </contour>
    <contour>
      <point x="135" y="-10" type="curve"/>
      <point x="389" y="10" type="line" smooth="yes"/>
      <point x="408" y="11"/>
      <point x="419" y="24"/>
      <point x="419" y="36" type="curve" smooth="yes"/>
      <point x="419" y="45"/>
      <point x="410" y="55"/>
      <point x="390" y="55" type="curve"/>
      <point x="140" y="42" type="line" smooth="yes"/>
      <point x="121" y="41"/>
      <point x="113" y="29"/>
      <point x="113" y="16" type="curve" smooth="yes"/>
      <point x="113" y="2"/>
      <point x="121" y="-10"/>
    </contour>
  </outline>
</glyph>
<glyph name="acute" format="1">
  <advance width="609"/>
  <unicode hex="00B4"/>
  <outline>
    <contour>
      <point x="228" y="1216" type="curve" smooth="yes"/>
      <point x="584.245" y="1545.52" type="line" smooth="yes"/>
      <point x="696" y="1648"/>
      <point x="537" y="1775"/>
      <point x="466" y="1655" type="curve" smooth="yes"/>
      <point x="180.881" y="1260.28" type="line" smooth="yes"/>
      <point x="152" y="1220"/>
      <point x="190" y="1181"/>
    </contour>
    <contour>
      <point x="304.5" y="953" type="move" name="_top"/>
    </contour>
  </outline>
</glyph>
<glyph name="mu" format="1">
  <advance width="962"/>
  <unicode hex="00B5"/>
  <outline>
    <contour>
      <point x="128" y="-256" type="curve" smooth="yes"/>
      <point x="286" y="-256"/>
      <point x="277" y="-76"/>
      <point x="293" y="72" type="curve"/>
      <point x="311" y="64"/>
      <point x="330" y="60"/>
      <point x="350" y="60" type="curve" smooth="yes"/>
      <point x="452" y="60"/>
      <point x="528" y="143"/>
      <point x="577" y="215" type="curve"/>
      <point x="598" y="118"/>
      <point x="630" y="9.99999"/>
      <point x="745" y="9.99999" type="curve" smooth="yes"/>
      <point x="935" y="9.99999"/>
      <point x="1115" y="133"/>
      <point x="1216" y="234" type="curve"/>
      <point x="1216" y="273"/>
      <point x="1215" y="305"/>
      <point x="1215" y="342" type="curve" smooth="yes"/>
      <point x="1215" y="380"/>
      <point x="1214" y="414"/>
      <point x="1214" y="454" type="curve"/>
      <point x="1149" y="370"/>
      <point x="987.999" y="223"/>
      <point x="845" y="223" type="curve" smooth="yes"/>
      <point x="795" y="223"/>
      <point x="792" y="275"/>
      <point x="792" y="327" type="curve" smooth="yes"/>
      <point x="792" y="352" type="line" smooth="yes"/>
      <point x="792" y="531"/>
      <point x="876" y="708"/>
      <point x="876" y="895" type="curve" smooth="yes"/>
      <point x="876" y="941"/>
      <point x="818" y="959"/>
      <point x="765" y="959" type="curve" smooth="yes"/>
      <point x="716" y="959"/>
      <point x="652" y="939"/>
      <point x="644" y="902" type="curve" smooth="yes"/>
      <point x="545" y="394" type="line" smooth="yes"/>
      <point x="530" y="319"/>
      <point x="483" y="225"/>
      <point x="396" y="225" type="curve" smooth="yes"/>
      <point x="353" y="225"/>
      <point x="338" y="274"/>
      <point x="338" y="318" type="curve" smooth="yes"/>
      <point x="338" y="319"/>
      <point x="339" y="329"/>
      <point x="342" y="349" type="curve" smooth="yes"/>
      <point x="370" y="533"/>
      <point x="404" y="733"/>
      <point x="435" y="917" type="curve"/>
      <point x="435" y="920" type="line" smooth="yes"/>
      <point x="435" y="951"/>
      <point x="377" y="959"/>
      <point x="336" y="959" type="curve" smooth="yes"/>
      <point x="224" y="959"/>
      <point x="203" y="932"/>
      <point x="181" y="842" type="curve" smooth="yes"/>
      <point x="111" y="553"/>
      <point x="32" y="205"/>
      <point x="32" y="-128" type="curve" smooth="yes"/>
      <point x="32" y="-208"/>
      <point x="52" y="-256"/>
    </contour>
  </outline>
</glyph>
<glyph name="periodcentered" format="1">
  <advance width="240"/>
  <unicode hex="00B7"/>
  <outline>
    <contour>
      <point x="167" y="21" type="curve" smooth="yes"/>
      <point x="193" y="21"/>
      <point x="208" y="38"/>
      <point x="208" y="64" type="curve" smooth="yes"/>
      <point x="208" y="87"/>
      <point x="196" y="99"/>
      <point x="171" y="99" type="curve" smooth="yes"/>
      <point x="146" y="99"/>
      <point x="131" y="83"/>
      <point x="131" y="57" type="curve" smooth="yes"/>
      <point x="131" y="33"/>
      <point x="143" y="21"/>
    </contour>
  </outline>
</glyph>
<glyph name="cedilla" format="1">
  <advance width="1184"/>
  <unicode hex="00B8"/>
  <outline>
    <contour>
      <point x="531" y="-357" type="curve" smooth="yes"/>
      <point x="661" y="22" type="line" smooth="yes"/>
      <point x="671" y="51"/>
      <point x="639" y="67"/>
      <point x="618" y="34" type="curve" smooth="yes"/>
      <point x="397" y="-312" type="line" smooth="yes"/>
      <point x="320" y="-432"/>
      <point x="481" y="-502"/>
    </contour>
  </outline>
</glyph>
<glyph name="ordmasculine" format="1">
  <advance width="799"/>
  <unicode hex="00BA"/>
  <outline>
    <contour>
      <point x="383" y="937" type="curve"/>
      <point x="264.325" y="937"/>
      <point x="228" y="1038.42"/>
      <point x="228" y="1143" type="curve"/>
      <point x="228" y="1273.36"/>
      <point x="290.543" y="1495"/>
      <point x="433" y="1495" type="curve"/>
      <point x="541.169" y="1495"/>
      <point x="564" y="1365.63"/>
      <point x="564" y="1277" type="curve"/>
      <point x="564" y="1160.36"/>
      <point x="512.597" y="937"/>
    </contour>
    <contour>
      <point x="355" y="831" type="curve"/>
      <point x="575.263" y="831"/>
      <point x="693" y="1067.93"/>
      <point x="693" y="1301" type="curve"/>
      <point x="693" y="1463.7"/>
      <point x="630.416" y="1601"/>
      <point x="483" y="1601" type="curve"/>
      <point x="257.192" y="1601"/>
      <point x="100" y="1410.27"/>
      <point x="100" y="1179" type="curve"/>
      <point x="100" y="990.76"/>
      <point x="177.964" y="831"/>
    </contour>
  </outline>
</glyph>
<glyph name="guillemotright" format="1">
  <advance width="492"/>
  <unicode hex="00BB"/>
  <outline>
    <contour>
      <point x="114" y="36" type="curve" smooth="yes"/>
      <point x="125" y="36"/>
      <point x="144" y="46"/>
      <point x="165" y="62" type="curve" smooth="yes"/>
      <point x="185" y="77"/>
      <point x="208" y="97"/>
      <point x="228" y="117" type="curve" smooth="yes"/>
      <point x="246" y="135"/>
      <point x="272" y="152"/>
      <point x="272" y="182" type="curve" smooth="yes"/>
      <point x="272" y="219"/>
      <point x="240" y="242"/>
      <point x="215" y="256" type="curve" smooth="yes"/>
      <point x="196" y="268"/>
      <point x="177" y="283"/>
      <point x="163" y="293" type="curve" smooth="yes"/>
      <point x="140" y="309"/>
      <point x="123" y="330"/>
      <point x="104" y="330" type="curve" smooth="yes"/>
      <point x="92" y="330"/>
      <point x="83" y="322"/>
      <point x="83" y="306" type="curve" smooth="yes"/>
      <point x="83" y="291"/>
      <point x="96" y="283"/>
      <point x="109" y="273" type="curve" smooth="yes"/>
      <point x="232" y="187" type="line"/>
      <point x="130" y="99" type="line" smooth="yes"/>
      <point x="113" y="84"/>
      <point x="93" y="78"/>
      <point x="93" y="54" type="curve" smooth="yes"/>
      <point x="93" y="43"/>
      <point x="103" y="36"/>
    </contour>
    <contour>
      <point x="312" y="36" type="curve" smooth="yes"/>
      <point x="322" y="36"/>
      <point x="341" y="46"/>
      <point x="361" y="62" type="curve" smooth="yes"/>
      <point x="382" y="77"/>
      <point x="405" y="97"/>
      <point x="424" y="117" type="curve" smooth="yes"/>
      <point x="442" y="135"/>
      <point x="469" y="152"/>
      <point x="469" y="182" type="curve" smooth="yes"/>
      <point x="469" y="219"/>
      <point x="437" y="242"/>
      <point x="412" y="256" type="curve" smooth="yes"/>
      <point x="393" y="268"/>
      <point x="374" y="283"/>
      <point x="360" y="293" type="curve" smooth="yes"/>
      <point x="337" y="309"/>
      <point x="319" y="330"/>
      <point x="301" y="330" type="curve" smooth="yes"/>
      <point x="289" y="330"/>
      <point x="279" y="322"/>
      <point x="279" y="306" type="curve" smooth="yes"/>
      <point x="279" y="291"/>
      <point x="292" y="283"/>
      <point x="306" y="273" type="curve" smooth="yes"/>
      <point x="430" y="187" type="line"/>
      <point x="327" y="99" type="line" smooth="yes"/>
      <point x="310" y="84"/>
      <point x="290" y="78"/>
      <point x="290" y="54" type="curve" smooth="yes"/>
      <point x="290" y="43"/>
      <point x="300" y="36"/>
    </contour>
  </outline>
</glyph>
<glyph name="threequarters" format="1">
  <advance width="1793"/>
  <unicode hex="00BE"/>
  <outline>
    <contour>
      <point x="327" y="875" type="curve"/>
      <point x="504" y="875"/>
      <point x="623" y="956.164"/>
      <point x="623" y="1124" type="curve"/>
      <point x="623" y="1221"/>
      <point x="553" y="1309"/>
      <point x="405" y="1325" type="curve"/>
      <point x="504" y="1348"/>
      <point x="579" y="1425.62"/>
      <point x="579" y="1511" type="curve"/>
      <point x="579" y="1615.96"/>
      <point x="468.483" y="1668"/>
      <point x="351" y="1668" type="curve"/>
      <point x="237.412" y="1668"/>
      <point x="120" y="1630"/>
      <point x="120" y="1531" type="curve"/>
      <point x="120" y="1490"/>
      <point x="145" y="1462"/>
      <point x="174" y="1462" type="curve"/>
      <point x="191" y="1462"/>
      <point x="210" y="1463"/>
      <point x="213" y="1479" type="curve"/>
      <point x="216" y="1492"/>
      <point x="188" y="1479.23"/>
      <point x="188" y="1522" type="curve"/>
      <point x="188" y="1570.25"/>
      <point x="241.695" y="1593"/>
      <point x="281" y="1593" type="curve"/>
      <point x="341.37" y="1593"/>
      <point x="413" y="1569"/>
      <point x="413" y="1500" type="curve"/>
      <point x="413" y="1397"/>
      <point x="295.963" y="1352"/>
      <point x="215" y="1352" type="curve"/>
      <point x="196.344" y="1352"/>
      <point x="187" y="1350"/>
      <point x="187" y="1318" type="curve"/>
      <point x="187" y="1300"/>
      <point x="191.483" y="1293.5"/>
      <point x="211.917" y="1291.93" type="curve"/>
      <point x="332.04" y="1279.4"/>
      <point x="446" y="1271"/>
      <point x="446" y="1107" type="curve"/>
      <point x="446" y="1010"/>
      <point x="371" y="958"/>
      <point x="294" y="958" type="curve"/>
      <point x="232" y="958"/>
      <point x="176" y="999.607"/>
      <point x="176" y="1046" type="curve"/>
      <point x="176" y="1113"/>
      <point x="229" y="1113"/>
      <point x="229" y="1134" type="curve"/>
      <point x="229" y="1147"/>
      <point x="193.781" y="1156"/>
      <point x="157" y="1156" type="curve"/>
      <point x="100.414" y="1156"/>
      <point x="71" y="1129.69"/>
      <point x="71" y="1044" type="curve"/>
      <point x="71" y="930.923"/>
      <point x="171.309" y="875"/>
    </contour>
    <contour>
      <point x="1394" y="-20" type="curve"/>
      <point x="1456" y="-20"/>
      <point x="1484" y="-26"/>
      <point x="1496" y="-5" type="curve"/>
      <point x="1517" y="43"/>
      <point x="1458" y="17"/>
      <point x="1458" y="110" type="curve"/>
      <point x="1462" y="140"/>
      <point x="1466" y="191"/>
      <point x="1484" y="222" type="curve"/>
      <point x="1544" y="220"/>
      <point x="1600" y="216"/>
      <point x="1657" y="216" type="curve"/>
      <point x="1675" y="216"/>
      <point x="1687" y="250"/>
      <point x="1687" y="331" type="curve"/>
      <point x="1687" y="352"/>
      <point x="1679" y="360"/>
      <point x="1660" y="360" type="curve"/>
      <point x="1604" y="360"/>
      <point x="1573.73" y="339.793"/>
      <point x="1509.02" y="330.988" type="curve"/>
      <point x="1526.88" y="412.528"/>
      <point x="1590" y="504.862"/>
      <point x="1590" y="593" type="curve"/>
      <point x="1590" y="612.816"/>
      <point x="1581.85" y="617"/>
      <point x="1541" y="617" type="curve"/>
      <point x="1405.66" y="617"/>
      <point x="1398" y="446"/>
      <point x="1354" y="328" type="curve"/>
      <point x="1289" y="315"/>
      <point x="1247.12" y="318.667"/>
      <point x="1183.73" y="319.827" type="curve"/>
      <point x="1263.52" y="504.206"/>
      <point x="1452" y="899"/>
      <point x="1392" y="899" type="curve"/>
      <point x="1392" y="899.247"/>
      <point x="1332.58" y="903"/>
      <point x="1303" y="903" type="curve"/>
      <point x="1245.75" y="903"/>
      <point x="1224" y="894"/>
      <point x="1218" y="869" type="curve"/>
      <point x="1171" y="667"/>
      <point x="1072.99" y="485.408"/>
      <point x="996.845" y="314.847" type="curve"/>
      <point x="979.164" y="275.063"/>
      <point x="946" y="239.21"/>
      <point x="946" y="205" type="curve"/>
      <point x="946" y="189.792"/>
      <point x="947.269" y="190"/>
      <point x="952" y="190" type="curve"/>
      <point x="1079.99" y="190"/>
      <point x="1166" y="233"/>
      <point x="1337" y="222" type="curve"/>
      <point x="1321" y="159"/>
      <point x="1298" y="125.473"/>
      <point x="1298" y="58" type="curve"/>
      <point x="1298" y="-4"/>
      <point x="1324.28" y="-20"/>
    </contour>
    <contour>
      <point x="518" y="263" type="curve"/>
      <point x="553" y="263"/>
      <point x="581" y="285"/>
      <point x="598" y="314" type="curve"/>
      <point x="800" y="639"/>
      <point x="982" y="984"/>
      <point x="1172" y="1308" type="curve"/>
      <point x="1192" y="1341"/>
      <point x="1207" y="1372"/>
      <point x="1207" y="1409" type="curve"/>
      <point x="1207" y="1440"/>
      <point x="1187" y="1454"/>
      <point x="1153" y="1454" type="curve"/>
      <point x="1105" y="1454"/>
      <point x="1060" y="1430"/>
      <point x="1043" y="1402" type="curve"/>
      <point x="862" y="1108"/>
      <point x="689" y="783"/>
      <point x="520" y="479" type="curve"/>
      <point x="487" y="419"/>
      <point x="455" y="390"/>
      <point x="455" y="330" type="curve"/>
      <point x="455" y="290"/>
      <point x="481" y="263"/>
    </contour>
  </outline>
</glyph>
